<svg width="34" height="34" viewBox="0 0 34 34" fill="none" xmlns="http://www.w3.org/2000/svg">
<path d="M17.0001 33.8187C7.72827 33.8187 0.181396 26.2719 0.181396 17C0.181396 7.72811 7.72827 0.181244 17.0001 0.181244C26.272 0.181244 33.8189 7.72811 33.8189 17C33.8189 26.2719 26.272 33.8187 17.0001 33.8187ZM17.0001 1.97812C8.73452 1.97812 1.97827 8.73436 1.97827 17C1.97827 25.2656 8.73452 32.0219 17.0001 32.0219C25.2658 32.0219 32.022 25.2656 32.022 17C32.022 8.73436 25.2658 1.97812 17.0001 1.97812Z" fill="#65B07F"/>
<path d="M14.9877 24.2594L6.43457 15.6344L7.72833 14.3406L14.9877 21.6719L26.2721 10.3875L27.5658 11.6812L14.9877 24.2594Z" fill="#65B07F"/>
</svg>
