<svg width="20" height="21" viewBox="0 0 20 21" fill="none" xmlns="http://www.w3.org/2000/svg">
<path opacity="0.4" d="M1.09375 7.96863H18.9177" stroke="#F3903A" stroke-width="1.35" stroke-linecap="round" stroke-linejoin="round"/>
<path opacity="0.4" d="M5.55811 15.3023H5.56737M14.4423 11.6444H14.4515H14.4423ZM10.0048 11.6444H10.0141H10.0048ZM5.55811 11.6444H5.56737H5.55811ZM14.4423 15.3023H14.4515H14.4423ZM10.0048 15.3023H10.0141H10.0048Z" stroke="#F3903A" stroke-width="1.35" stroke-linecap="round" stroke-linejoin="round"/>
<path d="M14.0439 1V4.0972" stroke="#F3903A" stroke-width="1.35" stroke-linecap="round" stroke-linejoin="round"/>
<path d="M5.96631 1V4.0972" stroke="#F3903A" stroke-width="1.35" stroke-linecap="round" stroke-linejoin="round"/>
<path fill-rule="evenodd" clip-rule="evenodd" d="M14.2382 2.48621H5.77095C2.83427 2.48621 1 4.02591 1 6.85611V15.3734C1 18.2481 2.83427 19.8234 5.77095 19.8234H14.229C17.1749 19.8234 19 18.2748 19 15.4446V6.85611C19.0092 4.02591 17.1842 2.48621 14.2382 2.48621Z" stroke="#F3903A" stroke-width="1.35" stroke-linecap="round" stroke-linejoin="round"/>
</svg>
