<svg width="28" height="28" viewBox="0 0 28 28" fill="none" xmlns="http://www.w3.org/2000/svg">
<rect width="28" height="28" rx="8.84719" fill="#F3903A" fill-opacity="0.25"/>
<path d="M15.3584 8.88215C15.0252 8.81512 14.7191 9.04668 14.6557 9.40087C14.5923 9.75506 14.8056 10.1009 15.1297 10.1702C16.1057 10.3774 16.8593 11.2 17.0503 12.2664V12.2671C17.1047 12.5741 17.3529 12.7973 17.6387 12.7973C17.6771 12.7973 17.7154 12.7935 17.7544 12.7859C18.0786 12.715 18.2919 12.37 18.2285 12.015C17.9434 10.4223 16.8175 9.19216 15.3584 8.88215Z" fill="#F3903A"/>
<path d="M15.3149 6.22821C15.1588 6.20384 15.0019 6.25411 14.8771 6.36227C14.7488 6.47196 14.6687 6.63039 14.6512 6.80787C14.6143 7.16663 14.852 7.49111 15.1811 7.53148C17.4502 7.80722 19.214 9.73203 19.4691 12.2106C19.5033 12.5427 19.7591 12.7933 20.0645 12.7933C20.0875 12.7933 20.1098 12.7918 20.1328 12.7887C20.2924 12.7697 20.4346 12.6836 20.535 12.5465C20.6347 12.4094 20.68 12.2388 20.6619 12.0644C20.344 8.97186 18.146 6.57174 15.3149 6.22821Z" fill="#F3903A"/>
<path fill-rule="evenodd" clip-rule="evenodd" d="M12.9892 14.5856C15.7816 17.6253 16.415 14.1087 18.1929 16.0433C19.907 17.9091 20.8921 18.283 18.7205 20.647C18.4484 20.8851 16.7201 23.7489 10.6462 17.1369C4.57156 10.5241 7.2001 8.64026 7.41877 8.34414C9.5957 5.97355 9.93309 7.0525 11.6471 8.91839C13.425 10.8538 10.1969 11.5458 12.9892 14.5856Z" fill="#F3903A"/>
</svg>
