<svg width="33" height="31" viewBox="0 0 33 31" fill="none" xmlns="http://www.w3.org/2000/svg">
<path d="M21.476 16.9384C21.476 15.8902 21.1651 14.8655 20.5828 13.9939C20.0004 13.1223 19.1726 12.443 18.2042 12.0419C17.2358 11.6407 16.1701 11.5358 15.142 11.7403C14.1139 11.9448 13.1695 12.4495 12.4283 13.1908C11.6871 13.932 11.1823 14.8764 10.9778 15.9045C10.7733 16.9326 10.8783 17.9982 11.2794 18.9667C11.6806 19.9351 12.3599 20.7628 13.2315 21.3452C14.103 21.9276 15.1277 22.2384 16.176 22.2384C17.5816 22.2384 18.9297 21.68 19.9236 20.6861C20.9176 19.6922 21.476 18.3441 21.476 16.9384V16.9384Z" stroke="#7D7D7D" stroke-width="1.5" stroke-miterlimit="10" stroke-linecap="round" stroke-linejoin="round"/>
<path d="M16.177 29.9244C29.739 29.9244 31.354 25.8615 31.354 17.0564C31.354 10.8854 30.538 7.58245 25.397 6.16345C24.8529 5.99327 24.3631 5.68287 23.977 5.26345C23.292 4.51245 22.792 2.20745 21.138 1.51045C19.484 0.81345 12.838 0.84645 11.215 1.51045C9.592 2.17445 9.061 4.51045 8.376 5.26345C7.99016 5.68324 7.50032 5.9937 6.956 6.16345C1.816 7.58245 1 10.8845 1 17.0555C1 25.8605 2.615 29.9244 16.177 29.9244Z" stroke="#7D7D7D" stroke-width="1.5" stroke-miterlimit="10" stroke-linecap="round" stroke-linejoin="round"/>
<path d="M24.4619 11.0435H24.4729" stroke="#7D7D7D" stroke-width="1.5" stroke-miterlimit="10" stroke-linecap="round" stroke-linejoin="round"/>
</svg>
