<svg width="29" height="18" viewBox="0 0 29 18" fill="none" xmlns="http://www.w3.org/2000/svg">
<path d="M1.99146 7.63083L2.72836 4.68328C2.52689 4.64049 2.37572 4.46175 2.37572 4.24761V3.77237C2.37572 2.74052 3.21522 1.90108 4.24701 1.90108H7.60344V0.920805C7.60344 0.413051 8.01649 0 8.52425 0H25.6333C26.1411 0 26.5541 0.413051 26.5541 0.920805V9.00008C26.5541 9.24612 26.3546 9.44565 26.1085 9.44565C25.8625 9.44565 25.663 9.24618 25.663 9.00008V0.920805C25.663 0.90441 25.6497 0.891127 25.6333 0.891127H8.52431C8.50791 0.891127 8.49463 0.90441 8.49463 0.920805V9.0002C8.49463 9.24624 8.29516 9.44576 8.04906 9.44576C7.80302 9.44576 7.6035 9.24629 7.6035 9.0002V8.49511H2.3476C2.34716 8.49511 2.34682 8.49522 2.34643 8.49522C2.34599 8.49522 2.3456 8.49516 2.34521 8.49516C1.69846 8.49561 1.1493 8.92011 0.960669 9.50506H2.3461C2.59214 9.50506 2.79166 9.70453 2.79166 9.95062V10.9011C2.79166 11.6709 2.16542 12.2972 1.39562 12.2972H0.89064V14.2575H2.05565C2.43836 13.1525 3.48883 12.3565 4.72237 12.3565C5.95591 12.3565 7.00643 13.1525 7.38908 14.2575H7.60361V10.9011C7.60361 10.655 7.80308 10.4555 8.04918 10.4555C8.29522 10.4555 8.49474 10.655 8.49474 10.9011V14.2574H17.7388C18.1215 13.1524 19.172 12.3564 20.4055 12.3564C21.6391 12.3564 22.6896 13.1524 23.0722 14.2574H25.6333C25.6497 14.2574 25.663 14.2441 25.663 14.2277V13.2475H23.7323C23.4862 13.2475 23.2867 13.0481 23.2867 12.802C23.2867 12.5559 23.4862 12.3564 23.7323 12.3564H28.0095C28.2556 12.3564 28.4551 12.5559 28.4551 12.802C28.4551 13.0481 28.2556 13.2475 28.0095 13.2475H26.5541V14.2277C26.5541 14.7355 26.141 15.1486 25.6332 15.1486H23.2265C23.2266 15.1584 23.2273 15.1683 23.2273 15.1782C23.2273 16.7342 21.9614 18 20.4055 18C18.8496 18 17.5838 16.7342 17.5838 15.1782C17.5838 15.1682 17.5844 15.1584 17.5845 15.1486H7.54336C7.54348 15.1584 7.54414 15.1683 7.54414 15.1782C7.54414 16.7342 6.27826 18 4.72237 18C3.16648 18 1.90059 16.7342 1.90059 15.1782C1.90059 15.1682 1.90126 15.1584 1.90137 15.1486H0.445076C0.199036 15.1486 -0.000488281 14.9491 -0.000488281 14.703V9.95051C-0.000543594 8.77716 0.865187 7.80228 1.99146 7.63083ZM7.60344 2.79215H4.24701C3.70652 2.79215 3.2668 3.23188 3.2668 3.77237V3.80205H7.60344V2.79215ZM7.60344 7.60404V4.69312H3.64439L2.91666 7.60404H7.60344ZM20.4055 17.109C21.4701 17.109 22.3362 16.243 22.3362 15.1783C22.3362 14.1137 21.4701 13.2476 20.4055 13.2476C19.3409 13.2476 18.4748 14.1137 18.4748 15.1783C18.4748 16.243 19.3409 17.109 20.4055 17.109ZM4.72226 17.109C5.78684 17.109 6.65296 16.243 6.65296 15.1783C6.65296 14.1137 5.78684 13.2476 4.72226 13.2476C3.65767 13.2476 2.79155 14.1137 2.79155 15.1783C2.79155 16.243 3.65767 17.109 4.72226 17.109ZM0.890528 11.406H1.3955C1.67395 11.406 1.90048 11.1795 1.90048 10.9011V10.3961H0.890585V11.406H0.890528Z" fill="#8C3232"/>
<path d="M20.4054 14.2578C20.9131 14.2578 21.3262 14.6709 21.3262 15.1787C21.3262 15.6864 20.9131 16.0995 20.4054 16.0995C19.8976 16.0995 19.4846 15.6864 19.4846 15.1787C19.4846 14.6709 19.8976 14.2578 20.4054 14.2578Z" fill="#8C3232"/>
<path d="M4.72273 14.2578C5.2305 14.2578 5.64355 14.6709 5.64355 15.1787C5.64355 15.6864 5.2305 16.0995 4.72273 16.0995C4.21497 16.0995 3.80191 15.6864 3.80191 15.1787C3.80191 14.6709 4.21497 14.2578 4.72273 14.2578Z" fill="#8C3232"/>
<path d="M9.94975 12.3567H16.6033C16.8493 12.3567 17.0488 12.5562 17.0488 12.8022C17.0488 13.0483 16.8494 13.2478 16.6033 13.2478H9.94975C9.7037 13.2478 9.50418 13.0483 9.50418 12.8022C9.50418 12.5562 9.70365 12.3567 9.94975 12.3567Z" fill="#8C3232"/>
<path d="M21.3563 10.4556H27.0593C27.3054 10.4556 27.5049 10.655 27.5049 10.9011C27.5049 11.1472 27.3054 11.3467 27.0593 11.3467H21.3563C21.1103 11.3467 20.9107 11.1472 20.9107 10.9011C20.9107 10.655 21.1103 10.4556 21.3563 10.4556Z" fill="#8C3232"/>
<path d="M20.2451 4.4078C20.0712 4.23385 19.789 4.23385 19.6151 4.40786L15.6528 8.37003L13.5916 6.30883C13.4176 6.13482 13.1355 6.13482 12.9616 6.30883C12.7876 6.48284 12.7876 6.7649 12.9616 6.93891L15.3378 9.31518C15.4248 9.40222 15.5389 9.44568 15.6528 9.44568C15.7668 9.44568 15.8809 9.40222 15.9679 9.31518L20.2451 5.03794C20.4191 4.86387 20.4191 4.58182 20.2451 4.4078Z" fill="#8C3232"/>
</svg>
