<svg width="24" height="23" viewBox="0 0 24 23" fill="none" xmlns="http://www.w3.org/2000/svg">
<path fill-rule="evenodd" clip-rule="evenodd" d="M22.5 5.97113H17.754C18.0945 5.73863 18.387 5.50763 18.591 5.30063C19.8015 4.08413 19.8015 2.10413 18.591 0.887625C17.415 -0.297375 15.366 -0.294375 14.1915 0.887625C13.5405 1.54013 11.8155 4.19663 12.054 5.97113H11.946C12.183 4.19663 10.458 1.54013 9.8085 0.887625C8.6325 -0.294375 6.5835 -0.294375 5.409 0.887625C4.2 2.10413 4.2 4.08413 5.4075 5.30063C5.613 5.50763 5.9055 5.73863 6.246 5.97113H1.5C0.6735 5.97113 0 6.64463 0 7.47113V9.72113C0 10.1351 0.336 10.4711 0.75 10.4711H10.5V7.47113H13.5V10.4711H23.25C23.664 10.4711 24 10.1351 24 9.72113V7.47113C24 6.64463 23.328 5.97113 22.5 5.97113ZM1.5 11.9711V20.9711C1.5 21.7991 2.1735 22.4711 3 22.4711H10.5V11.9711H1.5ZM10.134 5.97113C10.3485 5.97113 10.4115 5.92163 10.4115 5.92163C10.761 5.56013 9.756 2.96213 8.745 1.94513C8.4405 1.63913 8.037 1.47113 7.6095 1.47113C7.1805 1.47113 6.777 1.63913 6.4725 1.94513C5.844 2.57813 5.844 3.61013 6.4725 4.24313C7.119 4.89413 9.0975 5.97113 10.134 5.97113ZM13.8645 5.97113C13.6515 5.97113 13.5885 5.92313 13.5885 5.92163C13.239 5.56013 14.244 2.96213 15.255 1.94513C15.8595 1.33463 16.917 1.33163 17.5275 1.94513C18.1575 2.57813 18.1575 3.61013 17.5275 4.24313C16.881 4.89413 14.9025 5.97113 13.8645 5.97113ZM13.5 22.4711V11.9711H22.5V20.9711C22.5 21.7991 21.828 22.4711 21 22.4711H13.5Z" fill="white"/>
</svg>
