<svg width="26" height="26" viewBox="0 0 26 26" fill="none" xmlns="http://www.w3.org/2000/svg">
<path fill-rule="evenodd" clip-rule="evenodd" d="M9.10987 24.4028V20.4161C9.10985 19.402 9.98006 18.5781 11.0582 18.5713H15.0076C16.0909 18.5713 16.9691 19.3972 16.9691 20.4161V24.4152C16.9689 25.2762 17.6995 25.9798 18.6147 26H21.2476C23.8723 26 26 23.9989 26 21.5304V10.1892C25.986 9.21807 25.5012 8.30615 24.6835 7.71294L15.679 0.890891C14.1015 -0.296964 11.859 -0.296964 10.2815 0.890891L1.31646 7.72532C0.495722 8.31613 0.0101081 9.22957 0 10.2016V21.5304C0 23.9989 2.12772 26 4.75241 26H7.38532C8.32322 26 9.08354 25.2849 9.08354 24.4028" fill="#F3903A"/>
</svg>
