<svg width="28" height="28" viewBox="0 0 28 28" fill="none" xmlns="http://www.w3.org/2000/svg">
<path d="M10.1099 25.4028V21.4161C10.1098 20.402 10.9801 19.5781 12.0582 19.5713H16.0076C17.0909 19.5713 17.9691 20.3972 17.9691 21.4161V25.4152C17.9689 26.2762 18.6995 26.9798 19.6147 27H22.2476C24.8723 27 27 24.9989 27 22.5304V11.1892C26.986 10.2181 26.5012 9.30615 25.6835 8.71294L16.679 1.89089C15.1015 0.703036 12.859 0.703036 11.2815 1.89089L2.31646 8.72532C1.49572 9.31613 1.01011 10.2296 1 11.2016V22.5304C1 24.9989 3.12772 27 5.75241 27H8.38532C9.32322 27 10.0835 26.2849 10.0835 25.4028" stroke="#5E5E5E" stroke-width="1.3" stroke-linecap="round" stroke-linejoin="round"/>
</svg>
