<svg width="31" height="18" viewBox="0 0 31 18" fill="none" xmlns="http://www.w3.org/2000/svg">
<path d="M5.12419 16.9999C5.62508 17.0003 6.11483 16.8521 6.53149 16.5741C6.94814 16.296 7.27298 15.9007 7.46492 15.438C7.65686 14.9754 7.70727 14.4662 7.60977 13.9749C7.51228 13.4835 7.27126 13.0322 6.9172 12.6779C6.56314 12.3235 6.11196 12.0822 5.62072 11.9843C5.12947 11.8865 4.62025 11.9365 4.15745 12.1281C3.69465 12.3197 3.29907 12.6443 3.02075 13.0607C2.74243 13.4772 2.59387 13.9668 2.59387 14.4677C2.5942 15.1389 2.86083 15.7825 3.33523 16.2572C3.80963 16.732 4.45304 16.9991 5.12419 16.9999ZM5.12419 12.8593C5.44239 12.8589 5.75355 12.9529 6.01831 13.1294C6.28306 13.3059 6.48951 13.557 6.61154 13.8509C6.73356 14.1448 6.76568 14.4683 6.70382 14.7804C6.64197 15.0925 6.48892 15.3793 6.26405 15.6044C6.03917 15.8296 5.75258 15.9829 5.44051 16.0452C5.12845 16.1074 4.80495 16.0756 4.51093 15.9539C4.21691 15.8323 3.9656 15.6261 3.78877 15.3615C3.61195 15.097 3.51757 14.7859 3.51757 14.4677C3.51773 14.0415 3.68699 13.6328 3.9882 13.3312C4.28942 13.0296 4.69797 12.8599 5.12419 12.8593Z" fill="#1976D2" stroke="#1976D2" stroke-width="0.3"/>
<path d="M18.4673 16.9999C18.9682 17.0004 19.4581 16.8523 19.8748 16.5743C20.2915 16.2964 20.6165 15.9011 20.8085 15.4384C21.0005 14.9758 21.051 14.4666 20.9536 13.9752C20.8562 13.4839 20.6152 13.0324 20.2612 12.6781C19.9071 12.3237 19.456 12.0823 18.9647 11.9844C18.4734 11.8865 17.9642 11.9365 17.5013 12.1281C17.0385 12.3196 16.6429 12.6442 16.3645 13.0607C16.0862 13.4771 15.9376 13.9668 15.9376 14.4677C15.9381 15.1387 16.2047 15.7821 16.6789 16.2568C17.1532 16.7315 17.7963 16.9987 18.4673 16.9999ZM18.4673 12.8592C18.7856 12.8588 19.0968 12.9527 19.3616 13.1291C19.6264 13.3056 19.833 13.5566 19.9551 13.8505C20.0772 14.1443 20.1094 14.4678 20.0476 14.78C19.9859 15.0922 19.8329 15.379 19.608 15.6042C19.3832 15.8294 19.0966 15.9828 18.7845 16.0451C18.4724 16.1074 18.1489 16.0756 17.8548 15.954C17.5608 15.8323 17.3094 15.6261 17.1326 15.3616C16.9557 15.097 16.8613 14.7859 16.8613 14.4677C16.8616 14.0416 17.0309 13.6331 17.3319 13.3316C17.633 13.0301 18.0413 12.8602 18.4673 12.8592Z" fill="#1976D2" stroke="#1976D2" stroke-width="0.3"/>
<path d="M1.79202 14.9297H3.05502C3.17751 14.9297 3.29498 14.881 3.38159 14.7944C3.46821 14.7078 3.51686 14.5903 3.51686 14.4678C3.51686 14.3454 3.46821 14.2279 3.38159 14.1413C3.29498 14.0547 3.17751 14.006 3.05502 14.006H1.92256V11.557C1.92286 11.2258 2.00764 10.9003 2.16888 10.6111L4.66902 6.12868C4.69038 6.09042 4.72156 6.05856 4.75934 6.03637C4.79711 6.01418 4.84013 6.00246 4.88394 6.00244H8.29115V14.0078H7.19133C7.06884 14.0078 6.95137 14.0565 6.86475 14.1431C6.77814 14.2297 6.72948 14.3472 6.72948 14.4697C6.72948 14.5922 6.77814 14.7097 6.86475 14.7963C6.95137 14.8829 7.06884 14.9315 7.19133 14.9315H8.753C8.87549 14.9315 8.99296 14.8829 9.07957 14.7963C9.16619 14.7097 9.21484 14.5922 9.21484 14.4697V5.54059C9.21484 5.4181 9.16619 5.30062 9.07957 5.21401C8.99296 5.12739 8.87549 5.07874 8.753 5.07874H4.88394C4.67558 5.07863 4.47097 5.13417 4.29126 5.23962C4.11155 5.34506 3.96326 5.49659 3.86171 5.67852L1.36219 10.1616C1.12455 10.5883 0.999716 11.0685 0.999481 11.557V14.1372C0.999807 14.3473 1.08341 14.5487 1.23197 14.6972C1.38053 14.8458 1.58192 14.9294 1.79202 14.9297Z" fill="#1976D2" stroke="#1976D2" stroke-width="0.3"/>
<path d="M20.5357 14.9302H24.9639C25.0864 14.9302 25.2039 14.8816 25.2905 14.795C25.3771 14.7084 25.4258 14.5909 25.4258 14.4684V10.9164C25.4258 10.794 25.3771 10.6765 25.2905 10.5899C25.2039 10.5032 25.0864 10.4546 24.9639 10.4546C24.8414 10.4546 24.724 10.5032 24.6373 10.5899C24.5507 10.6765 24.5021 10.794 24.5021 10.9164V14.0065H20.5357C20.4132 14.0065 20.2957 14.0552 20.2091 14.1418C20.1225 14.2284 20.0738 14.3459 20.0738 14.4684C20.0738 14.5909 20.1225 14.7084 20.2091 14.795C20.2957 14.8816 20.4132 14.9302 20.5357 14.9302Z" fill="#1976D2" stroke="#1976D2" stroke-width="0.3"/>
<path d="M24.9639 9.27719C25.0864 9.27719 25.2039 9.22853 25.2905 9.14192C25.3771 9.0553 25.4258 8.93783 25.4258 8.81534V5.71417C25.4258 5.59168 25.3771 5.47421 25.2905 5.38759C25.2039 5.30098 25.0864 5.25232 24.9639 5.25232C24.8415 5.25232 24.724 5.30098 24.6374 5.38759C24.5508 5.47421 24.5021 5.59168 24.5021 5.71417V8.81719C24.5026 8.93936 24.5515 9.05636 24.638 9.14257C24.7246 9.22879 24.8418 9.27719 24.9639 9.27719Z" fill="#1976D2" stroke="#1976D2" stroke-width="0.3"/>
<path d="M8.75296 14.9301H16.3994C16.5219 14.9301 16.6393 14.8815 16.7259 14.7949C16.8126 14.7083 16.8612 14.5908 16.8612 14.4683C16.8612 14.3458 16.8126 14.2283 16.7259 14.1417C16.6393 14.0551 16.5219 14.0064 16.3994 14.0064H9.21481V1.92382H24.5021V3.82603C24.5021 3.94852 24.5507 4.06599 24.6374 4.15261C24.724 4.23922 24.8414 4.28788 24.9639 4.28788C25.0864 4.28788 25.2039 4.23922 25.2905 4.15261C25.3771 4.06599 25.4258 3.94852 25.4258 3.82603V1.83884C25.4255 1.61639 25.3369 1.40316 25.1795 1.24592C25.0222 1.08868 24.8089 1.00028 24.5864 1.00012H9.12983C8.90749 1.00045 8.69434 1.08892 8.53712 1.24614C8.3799 1.40336 8.29143 1.6165 8.29111 1.83884V14.4683C8.29111 14.5908 8.33977 14.7083 8.42638 14.7949C8.513 14.8815 8.63047 14.9301 8.75296 14.9301Z" fill="#1976D2" stroke="#1976D2" stroke-width="0.3"/>
<path d="M23.1383 11.3783H29.0001C29.1226 11.3783 29.24 11.3296 29.3266 11.243C29.4133 11.1564 29.4619 11.0389 29.4619 10.9164C29.4619 10.794 29.4133 10.6765 29.3266 10.5899C29.24 10.5032 29.1226 10.4546 29.0001 10.4546H23.1383C23.0158 10.4546 22.8983 10.5032 22.8117 10.5899C22.7251 10.6765 22.6764 10.794 22.6764 10.9164C22.6764 11.0389 22.7251 11.1564 22.8117 11.243C22.8983 11.3296 23.0158 11.3783 23.1383 11.3783Z" fill="#1976D2" stroke="#1976D2" stroke-width="0.3"/>
<path d="M18.4679 9.27771H26.6475C26.77 9.27771 26.8875 9.22905 26.9741 9.14244C27.0607 9.05582 27.1094 8.93835 27.1094 8.81586C27.1094 8.69337 27.0607 8.57589 26.9741 8.48928C26.8875 8.40266 26.77 8.354 26.6475 8.354H18.4679C18.3454 8.354 18.2279 8.40266 18.1413 8.48928C18.0547 8.57589 18.006 8.69337 18.006 8.81586C18.006 8.93835 18.0547 9.05582 18.1413 9.14244C18.2279 9.22905 18.3454 9.27771 18.4679 9.27771Z" fill="#1976D2" stroke="#1976D2" stroke-width="0.3"/>
<path d="M26.9016 6.83936H30.0958C30.2183 6.83936 30.3357 6.7907 30.4223 6.70408C30.509 6.61747 30.5576 6.49999 30.5576 6.3775C30.5576 6.25501 30.509 6.13754 30.4223 6.05092C30.3357 5.96431 30.2183 5.91565 30.0958 5.91565H26.9016C26.7791 5.91565 26.6616 5.96431 26.575 6.05092C26.4884 6.13754 26.4398 6.25501 26.4398 6.3775C26.4398 6.49999 26.4884 6.61747 26.575 6.70408C26.6616 6.7907 26.7791 6.83936 26.9016 6.83936Z" fill="#1976D2" stroke="#1976D2" stroke-width="0.3"/>
<path d="M21.7798 4.28772H27.418C27.5405 4.28772 27.658 4.23906 27.7446 4.15245C27.8312 4.06583 27.8799 3.94836 27.8799 3.82587C27.8799 3.70338 27.8312 3.5859 27.7446 3.49929C27.658 3.41267 27.5405 3.36401 27.418 3.36401H21.7798C21.6573 3.36401 21.5398 3.41267 21.4532 3.49929C21.3666 3.5859 21.3179 3.70338 21.3179 3.82587C21.3179 3.94836 21.3666 4.06583 21.4532 4.15245C21.5398 4.23906 21.6573 4.28772 21.7798 4.28772Z" fill="#1976D2" stroke="#1976D2" stroke-width="0.3"/>
</svg>
