<svg width="16" height="19" viewBox="0 0 16 19" fill="none" xmlns="http://www.w3.org/2000/svg">
<path fill-rule="evenodd" clip-rule="evenodd" d="M8.22852 0.833496C12.3984 0.833496 15.791 4.25175 15.791 8.45374C15.791 13.6192 9.87302 18.7085 8.22852 18.7085C6.58402 18.7085 0.666016 13.6192 0.666016 8.45374C0.666016 4.25175 4.0586 0.833496 8.22852 0.833496ZM8.22852 2.2085C4.81668 2.2085 2.04102 5.01075 2.04102 8.45374C2.04102 12.8345 7.19635 17.1025 8.22852 17.3298C9.26068 17.1016 14.416 12.8336 14.416 8.45374C14.416 5.01075 11.6403 2.2085 8.22852 2.2085ZM8.22943 5.41683C9.8721 5.41683 11.2086 6.75333 11.2086 8.39691C11.2086 10.0396 9.8721 11.3752 8.22943 11.3752C6.58677 11.3752 5.25027 10.0396 5.25027 8.39691C5.25027 6.75333 6.58677 5.41683 8.22943 5.41683ZM8.22943 6.79183C7.34485 6.79183 6.62527 7.51141 6.62527 8.39691C6.62527 9.2815 7.34485 10.0002 8.22943 10.0002C9.11402 10.0002 9.8336 9.2815 9.8336 8.39691C9.8336 7.51141 9.11402 6.79183 8.22943 6.79183Z" fill="#F3903A"/>
</svg>
