<svg width="21" height="22" viewBox="0 0 21 22" fill="none" xmlns="http://www.w3.org/2000/svg">
<path d="M15.75 5.25537H3.9375C3.50238 5.25537 3.08508 5.42822 2.7774 5.7359C2.46973 6.04358 2.29688 6.46088 2.29688 6.896V9.521C2.29688 9.77569 2.35618 10.0269 2.47008 10.2547C2.58399 10.4825 2.74937 10.6807 2.95312 10.8335L3.04828 10.8991L3.16313 10.9647C3.19973 10.9866 3.23816 11.0053 3.27797 11.0205L3.39281 11.0665C3.42562 11.0798 3.45971 11.0897 3.49453 11.096H3.53063L3.62578 11.1157C3.72803 11.1407 3.83239 11.1561 3.9375 11.1616H8.85938C8.9464 11.1616 9.02986 11.1271 9.09139 11.0655C9.15293 11.004 9.1875 10.9205 9.1875 10.8335V10.1772C9.1875 10.0032 9.25664 9.83628 9.37971 9.71321C9.50278 9.59014 9.6697 9.521 9.84375 9.521C10.0178 9.521 10.1847 9.59014 10.3078 9.71321C10.4309 9.83628 10.5 10.0032 10.5 10.1772V10.8335C10.5 10.9205 10.5346 11.004 10.5961 11.0655C10.6576 11.1271 10.7411 11.1616 10.8281 11.1616H15.75C15.8468 11.1612 15.9434 11.1524 16.0388 11.1354L16.1339 11.1157H16.17C16.2048 11.1093 16.2389 11.0994 16.2717 11.0862L16.3866 11.0402C16.4264 11.025 16.4648 11.0063 16.5014 10.9844L16.6163 10.9188L16.7344 10.8335L16.7836 10.7974C16.9735 10.6433 17.1266 10.4488 17.2316 10.2279C17.3366 10.0071 17.391 9.76554 17.3906 9.521V6.896C17.3906 6.46088 17.2178 6.04358 16.9101 5.7359C16.6024 5.42822 16.1851 5.25537 15.75 5.25537ZM15.75 10.5054H11.1562V10.1772C11.1562 9.82915 11.018 9.49531 10.7718 9.24917C10.5257 9.00303 10.1918 8.86475 9.84375 8.86475C9.49565 8.86475 9.16181 9.00303 8.91567 9.24917C8.66953 9.49531 8.53125 9.82915 8.53125 10.1772V10.5054H3.9375C3.90697 10.5088 3.87616 10.5088 3.84563 10.5054C3.61586 10.4848 3.40063 10.3841 3.23751 10.221C3.07438 10.0579 2.97373 9.84264 2.95312 9.61287C2.94974 9.58234 2.94974 9.55153 2.95312 9.521V6.896C2.95312 6.63492 3.05684 6.38454 3.24144 6.19994C3.42605 6.01533 3.67643 5.91162 3.9375 5.91162H15.75C16.0111 5.91162 16.2615 6.01533 16.4461 6.19994C16.6307 6.38454 16.7344 6.63492 16.7344 6.896V9.521C16.7344 9.78207 16.6307 10.0324 16.4461 10.2171C16.2615 10.4017 16.0111 10.5054 15.75 10.5054Z" fill="#F3903A"/>
<path d="M10.5001 10.8334V11.4896C10.5001 11.6637 10.431 11.8306 10.3079 11.9537C10.1848 12.0767 10.0179 12.1459 9.84387 12.1459C9.66982 12.1459 9.5029 12.0767 9.37983 11.9537C9.25676 11.8306 9.18762 11.6637 9.18762 11.4896V10.8334C9.18762 10.9204 9.15305 11.0039 9.09151 11.0654C9.02998 11.1269 8.94652 11.1615 8.85949 11.1615H8.53137V11.4896C8.53137 11.8377 8.66965 12.1716 8.91579 12.4177C9.16193 12.6638 9.49577 12.8021 9.84387 12.8021C10.192 12.8021 10.5258 12.6638 10.7719 12.4177C11.0181 12.1716 11.1564 11.8377 11.1564 11.4896V11.1615H10.8282C10.7412 11.1615 10.6578 11.1269 10.5962 11.0654C10.5347 11.0039 10.5001 10.9204 10.5001 10.8334ZM17.0626 9.19275C16.9756 9.19275 16.8921 9.22732 16.8306 9.28886C16.7691 9.35039 16.7345 9.43385 16.7345 9.52087C16.7345 9.55369 16.7345 9.5865 16.7345 9.61931C16.7379 9.64325 16.7379 9.66756 16.7345 9.6915C16.7281 9.73381 16.7183 9.77552 16.705 9.81619C16.696 9.84535 16.6851 9.87386 16.6721 9.9015C16.6615 9.92835 16.6494 9.95464 16.6361 9.98025C16.6172 10.0153 16.5964 10.0493 16.5737 10.082C16.5377 10.1346 16.4958 10.183 16.449 10.2263C16.4321 10.2455 16.4134 10.2631 16.3932 10.2788L16.3309 10.3281L16.2292 10.3871C16.2042 10.4008 16.1778 10.4118 16.1504 10.4199L16.0717 10.4495H16.0421C16.01 10.4592 15.9771 10.4658 15.9437 10.4692C15.9341 10.4724 15.9238 10.4724 15.9142 10.4692C15.8614 10.4888 15.8062 10.5009 15.7501 10.5052H10.8282C10.7412 10.5052 10.6578 10.5398 10.5962 10.6014C10.5347 10.6629 10.5001 10.7464 10.5001 10.8334V11.4896C10.5001 11.6637 10.431 11.8306 10.3079 11.9537C10.1848 12.0767 10.0179 12.1459 9.84387 12.1459C9.66982 12.1459 9.5029 12.0767 9.37983 11.9537C9.25676 11.8306 9.18762 11.6637 9.18762 11.4896V10.8334C9.18762 10.7464 9.15305 10.6629 9.09151 10.6014C9.02998 10.5398 8.94652 10.5052 8.85949 10.5052H3.93762C3.90709 10.5086 3.87627 10.5086 3.84574 10.5052C3.77784 10.4991 3.71076 10.4859 3.64559 10.4659C3.61535 10.4569 3.58576 10.446 3.55699 10.4331L3.48152 10.4003C3.30466 10.3053 3.15971 10.1604 3.0648 9.98353C3.0648 9.96056 3.04184 9.93431 3.03199 9.90806C3.01909 9.8793 3.00813 9.8497 2.99918 9.81947C2.97648 9.75241 2.96108 9.68311 2.95324 9.61275C2.94986 9.58222 2.94986 9.55141 2.95324 9.52087C2.95324 9.43385 2.91867 9.35039 2.85714 9.28886C2.7956 9.22732 2.71214 9.19275 2.62512 9.19275C2.60008 9.18933 2.57469 9.18933 2.54965 9.19275C2.47624 9.21007 2.41103 9.25216 2.36502 9.31192C2.319 9.37168 2.29498 9.44547 2.29699 9.52087V15.4271C2.29699 15.8622 2.46984 16.2795 2.77752 16.5872C3.0852 16.8949 3.5025 17.0677 3.93762 17.0677H12.6395C12.6926 17.0679 12.7449 17.0552 12.792 17.0307C12.8391 17.0062 12.8795 16.9707 12.9098 16.9271C12.9402 16.8836 12.9595 16.8333 12.9661 16.7806C12.9727 16.728 12.9665 16.6745 12.9479 16.6248C12.912 16.5331 12.8835 16.4388 12.8626 16.3426C12.8199 16.1497 12.7979 15.9528 12.797 15.7552C12.797 15.0591 13.0736 14.3914 13.5658 13.8991C14.0581 13.4068 14.7258 13.1302 15.422 13.1302C15.9424 13.1298 16.4509 13.2853 16.8821 13.5765C16.9315 13.609 16.9887 13.6276 17.0477 13.6303C17.1068 13.6329 17.1654 13.6196 17.2175 13.5917C17.2696 13.5638 17.3132 13.5224 17.3437 13.4718C17.3742 13.4212 17.3904 13.3632 17.3907 13.3042V9.52087C17.3907 9.43385 17.3562 9.35039 17.2946 9.28886C17.2331 9.22732 17.1496 9.19275 17.0626 9.19275ZM16.5179 12.6643C16.1667 12.5368 15.7957 12.4723 15.422 12.474C14.5518 12.474 13.7172 12.8197 13.1018 13.4351C12.4864 14.0504 12.1407 14.885 12.1407 15.7552C12.1407 15.8635 12.1407 15.9718 12.1407 16.0834C12.1511 16.1936 12.1675 16.3031 12.19 16.4115H3.93762C3.67654 16.4115 3.42616 16.3078 3.24156 16.1232C3.05695 15.9386 2.95324 15.6882 2.95324 15.4271V10.8334L3.0484 10.899L3.16324 10.9646C3.19985 10.9865 3.23827 11.0051 3.27809 11.0204L3.39293 11.0663C3.42574 11.0796 3.45982 11.0895 3.49465 11.0959H3.53074L3.6259 11.1156C3.72814 11.1406 3.83251 11.1559 3.93762 11.1615H8.53137V11.4896C8.53137 11.8377 8.66965 12.1716 8.91579 12.4177C9.16193 12.6638 9.49577 12.8021 9.84387 12.8021C10.192 12.8021 10.5258 12.6638 10.7719 12.4177C11.0181 12.1716 11.1564 11.8377 11.1564 11.4896V11.1615H15.7501C15.8469 11.1611 15.9436 11.1523 16.0389 11.1352L16.134 11.1156H16.1701C16.2049 11.1092 16.239 11.0993 16.2718 11.086L16.3867 11.0401C16.4265 11.0248 16.4649 11.0062 16.5015 10.9843L16.6164 10.9187L16.7345 10.8334V12.7496C16.6623 12.7168 16.5901 12.6906 16.5179 12.6643Z" fill="#F3903A"/>
<path d="M15.75 5.25537H3.9375C3.50238 5.25537 3.08508 5.42822 2.7774 5.7359C2.46973 6.04358 2.29688 6.46088 2.29688 6.896V9.521C2.29688 9.77569 2.35618 10.0269 2.47008 10.2547C2.58399 10.4825 2.74937 10.6807 2.95312 10.8335L3.04828 10.8991L3.16313 10.9647C3.19973 10.9866 3.23816 11.0053 3.27797 11.0205L3.39281 11.0665C3.42562 11.0798 3.45971 11.0897 3.49453 11.096H3.53063L3.62578 11.1157C3.72803 11.1407 3.83239 11.1561 3.9375 11.1616H8.85938C8.9464 11.1616 9.02986 11.1271 9.09139 11.0655C9.15293 11.004 9.1875 10.9205 9.1875 10.8335V10.1772C9.1875 10.0032 9.25664 9.83628 9.37971 9.71321C9.50278 9.59014 9.6697 9.521 9.84375 9.521C10.0178 9.521 10.1847 9.59014 10.3078 9.71321C10.4309 9.83628 10.5 10.0032 10.5 10.1772V10.8335C10.5 10.9205 10.5346 11.004 10.5961 11.0655C10.6576 11.1271 10.7411 11.1616 10.8281 11.1616H15.75C15.8468 11.1612 15.9434 11.1524 16.0388 11.1354L16.1339 11.1157H16.17C16.2048 11.1093 16.2389 11.0994 16.2717 11.0862L16.3866 11.0402C16.4264 11.025 16.4648 11.0063 16.5014 10.9844L16.6163 10.9188L16.7344 10.8335L16.7836 10.7974C16.9735 10.6433 17.1266 10.4488 17.2316 10.2279C17.3366 10.0071 17.391 9.76554 17.3906 9.521V6.896C17.3906 6.46088 17.2178 6.04358 16.9101 5.7359C16.6024 5.42822 16.1851 5.25537 15.75 5.25537ZM15.75 10.5054H11.1562V10.1772C11.1562 9.82915 11.018 9.49531 10.7718 9.24917C10.5257 9.00303 10.1918 8.86475 9.84375 8.86475C9.49565 8.86475 9.16181 9.00303 8.91567 9.24917C8.66953 9.49531 8.53125 9.82915 8.53125 10.1772V10.5054H3.9375C3.90697 10.5088 3.87616 10.5088 3.84563 10.5054C3.61586 10.4848 3.40063 10.3841 3.23751 10.221C3.07438 10.0579 2.97373 9.84264 2.95312 9.61287C2.94974 9.58234 2.94974 9.55153 2.95312 9.521V6.896C2.95312 6.63492 3.05684 6.38454 3.24144 6.19994C3.42605 6.01533 3.67643 5.91162 3.9375 5.91162H15.75C16.0111 5.91162 16.2615 6.01533 16.4461 6.19994C16.6307 6.38454 16.7344 6.63492 16.7344 6.896V9.521C16.7344 9.78207 16.6307 10.0324 16.4461 10.2171C16.2615 10.4017 16.0111 10.5054 15.75 10.5054Z" fill="#F3903A"/>
<path d="M10.7723 9.24871C10.5888 9.06494 10.3548 8.93977 10.1001 8.88905C9.84535 8.83832 9.58129 8.86431 9.34134 8.96374C9.10138 9.06316 8.89632 9.23155 8.75212 9.44758C8.60791 9.66361 8.53105 9.91757 8.53125 10.1773V11.4898C8.53125 11.8379 8.66953 12.1717 8.91567 12.4179C9.16181 12.664 9.49565 12.8023 9.84375 12.8023C10.1918 12.8023 10.5257 12.664 10.7718 12.4179C11.018 12.1717 11.1563 11.8379 11.1563 11.4898V10.1773C11.1564 10.0049 11.1226 9.83414 11.0567 9.67481C10.9908 9.51548 10.8942 9.37069 10.7723 9.24871ZM10.5 11.4898C10.5 11.6639 10.4309 11.8308 10.3078 11.9538C10.1847 12.0769 10.0178 12.1461 9.84375 12.1461C9.6697 12.1461 9.50278 12.0769 9.37971 11.9538C9.25664 11.8308 9.1875 11.6639 9.1875 11.4898V10.1773C9.1875 10.0033 9.25664 9.83634 9.37971 9.71326C9.50278 9.59019 9.6697 9.52105 9.84375 9.52105C10.0178 9.52105 10.1847 9.59019 10.3078 9.71326C10.4309 9.83634 10.5 10.0033 10.5 10.1773V11.4898Z" fill="#F3903A"/>
<path opacity="0.5" d="M10.5 10.1772V11.4897C10.5 11.6638 10.4309 11.8307 10.3078 11.9538C10.1847 12.0769 10.0178 12.146 9.84375 12.146C9.6697 12.146 9.50278 12.0769 9.37971 11.9538C9.25664 11.8307 9.1875 11.6638 9.1875 11.4897V10.1772C9.1875 10.0032 9.25664 9.83628 9.37971 9.71321C9.50278 9.59014 9.6697 9.521 9.84375 9.521C10.0178 9.521 10.1847 9.59014 10.3078 9.71321C10.4309 9.83628 10.5 10.0032 10.5 10.1772Z" fill="#F3903A"/>
<path d="M12.7969 4.59912V5.5835C12.7969 5.67052 12.7623 5.75398 12.7008 5.81552C12.6392 5.87705 12.5558 5.91162 12.4688 5.91162C12.3817 5.91162 12.2983 5.87705 12.2367 5.81552C12.1752 5.75398 12.1406 5.67052 12.1406 5.5835V4.59912C12.1406 4.42507 12.0715 4.25815 11.9484 4.13508C11.8253 4.01201 11.6584 3.94287 11.4844 3.94287H8.20312C8.02908 3.94287 7.86216 4.01201 7.73909 4.13508C7.61602 4.25815 7.54688 4.42507 7.54688 4.59912V5.5835C7.54688 5.67052 7.51231 5.75398 7.45077 5.81552C7.38923 5.87705 7.30577 5.91162 7.21875 5.91162C7.13173 5.91162 7.04827 5.87705 6.98673 5.81552C6.92519 5.75398 6.89062 5.67052 6.89062 5.5835V4.59912C6.89062 4.25102 7.02891 3.91718 7.27505 3.67104C7.52119 3.4249 7.85503 3.28662 8.20312 3.28662H11.4844C11.8325 3.28662 12.1663 3.4249 12.4125 3.67104C12.6586 3.91718 12.7969 4.25102 12.7969 4.59912Z" fill="#F3903A"/>
<path d="M15.5859 17.0679H14.7656C14.6786 17.0679 14.5951 17.0333 14.5336 16.9718C14.4721 16.9102 14.4375 16.8268 14.4375 16.7397C14.4375 16.6527 14.4721 16.5693 14.5336 16.5077C14.5951 16.4462 14.6786 16.4116 14.7656 16.4116H15.5859C15.6294 16.4116 15.6712 16.3943 15.7019 16.3636C15.7327 16.3328 15.75 16.2911 15.75 16.2476C15.75 16.204 15.7327 16.1623 15.7019 16.1315C15.6712 16.1008 15.6294 16.0835 15.5859 16.0835H15.2578C15.0403 16.0835 14.8316 15.9971 14.6778 15.8432C14.5239 15.6894 14.4375 15.4807 14.4375 15.2632C14.4375 15.0456 14.5239 14.837 14.6778 14.6831C14.8316 14.5293 15.0403 14.4429 15.2578 14.4429H16.0781C16.1651 14.4429 16.2486 14.4774 16.3101 14.539C16.3717 14.6005 16.4062 14.684 16.4062 14.771C16.4062 14.858 16.3717 14.9415 16.3101 15.003C16.2486 15.0646 16.1651 15.0991 16.0781 15.0991H15.2578C15.2143 15.0991 15.1726 15.1164 15.1418 15.1472C15.111 15.1779 15.0938 15.2197 15.0938 15.2632C15.0938 15.3067 15.111 15.3484 15.1418 15.3792C15.1726 15.41 15.2143 15.4272 15.2578 15.4272H15.5859C15.8035 15.4272 16.0121 15.5137 16.166 15.6675C16.3198 15.8213 16.4062 16.03 16.4062 16.2476C16.4062 16.4651 16.3198 16.6738 16.166 16.8276C16.0121 16.9814 15.8035 17.0679 15.5859 17.0679Z" fill="#8F8F8F"/>
<path d="M15.4219 15.0991C15.3349 15.0991 15.2514 15.0646 15.1899 15.003C15.1283 14.9415 15.0938 14.858 15.0938 14.771V14.4429C15.0938 14.3558 15.1283 14.2724 15.1899 14.2109C15.2514 14.1493 15.3349 14.1147 15.4219 14.1147C15.5089 14.1147 15.5924 14.1493 15.6539 14.2109C15.7154 14.2724 15.75 14.3558 15.75 14.4429V14.771C15.75 14.858 15.7154 14.9415 15.6539 15.003C15.5924 15.0646 15.5089 15.0991 15.4219 15.0991ZM15.4219 17.396C15.3349 17.396 15.2514 17.3614 15.1899 17.2999C15.1283 17.2384 15.0938 17.1549 15.0938 17.0679V16.7397C15.0938 16.6527 15.1283 16.5693 15.1899 16.5077C15.2514 16.4462 15.3349 16.4116 15.4219 16.4116C15.5089 16.4116 15.5924 16.4462 15.6539 16.5077C15.7154 16.5693 15.75 16.6527 15.75 16.7397V17.0679C15.75 17.1549 15.7154 17.2384 15.6539 17.2999C15.5924 17.3614 15.5089 17.396 15.4219 17.396Z" fill="#8F8F8F"/>
<path d="M17.3906 13.1304C17.3447 13.0943 17.2955 13.0615 17.2463 13.0287C17.0855 12.9187 16.914 12.8252 16.7344 12.7498C16.6622 12.717 16.59 12.6907 16.5178 12.6645C16.1666 12.5369 15.7955 12.4725 15.4219 12.4742C14.5516 12.4742 13.717 12.8199 13.1017 13.4352C12.4863 14.0506 12.1406 14.8852 12.1406 15.7554C12.1406 15.8637 12.1406 15.972 12.1406 16.0835C12.151 16.1937 12.1674 16.3033 12.1898 16.4117C12.1898 16.4379 12.1898 16.4609 12.1898 16.4871C12.2172 16.6099 12.2533 16.7305 12.2981 16.8481C12.3244 16.9235 12.3506 16.9957 12.3834 17.0679C12.522 17.3883 12.7115 17.6841 12.9445 17.944C13.2552 18.264 13.6277 18.5173 14.0395 18.6885C14.4513 18.8597 14.8937 18.9451 15.3397 18.9396C15.7856 18.934 16.2257 18.8377 16.6331 18.6563C17.0406 18.475 17.4068 18.2125 17.7094 17.8849C18.0119 17.5573 18.2446 17.1715 18.393 16.7509C18.5415 16.3304 18.6027 15.8841 18.5729 15.4391C18.543 14.9941 18.4228 14.5599 18.2196 14.163C18.0163 13.766 17.7342 13.4147 17.3906 13.1304ZM15.4219 18.3804C15.0507 18.3824 14.6832 18.3056 14.3439 18.1552C14.0045 18.0047 13.7009 17.784 13.4531 17.5076C13.2233 17.2508 13.047 16.9507 12.9347 16.6249C12.8988 16.5333 12.8702 16.4389 12.8494 16.3427C12.8111 16.1494 12.7935 15.9525 12.7969 15.7554C12.7969 15.0592 13.0734 14.3915 13.5657 13.8992C14.058 13.407 14.7257 13.1304 15.4219 13.1304C15.9422 13.13 16.4508 13.2854 16.882 13.5767C17.3487 13.8902 17.7023 14.3454 17.8909 14.875C18.0794 15.4047 18.093 15.9809 17.9294 16.5188C17.7659 17.0567 17.434 17.528 16.9826 17.8631C16.5312 18.1982 15.9841 18.3796 15.4219 18.3804Z" fill="#8F8F8F"/>
</svg>
