<svg width="20" height="20" viewBox="0 0 20 20" fill="none" xmlns="http://www.w3.org/2000/svg">
<g clip-path="url(#clip0_569_13344)">
<path d="M10 14.375C10.6181 14.375 11.2223 14.1917 11.7362 13.8483C12.2501 13.505 12.6506 13.0169 12.8871 12.4459C13.1236 11.8749 13.1855 11.2465 13.065 10.6403C12.9444 10.0342 12.6467 9.47733 12.2097 9.04029C11.7727 8.60325 11.2158 8.30563 10.6097 8.18505C10.0035 8.06447 9.37513 8.12635 8.80411 8.36288C8.2331 8.5994 7.74504 8.99994 7.40166 9.51384C7.05828 10.0277 6.875 10.6319 6.875 11.25C6.87591 12.0785 7.20544 12.8729 7.7913 13.4587C8.37715 14.0446 9.17148 14.3741 10 14.375ZM10 8.75C10.4945 8.75 10.9778 8.89662 11.3889 9.17133C11.8 9.44603 12.1205 9.83648 12.3097 10.2933C12.4989 10.7501 12.5484 11.2528 12.452 11.7377C12.3555 12.2227 12.1174 12.6681 11.7678 13.0178C11.4181 13.3674 10.9727 13.6055 10.4877 13.702C10.0028 13.7984 9.50011 13.7489 9.04329 13.5597C8.58648 13.3705 8.19603 13.05 7.92133 12.6389C7.64662 12.2278 7.5 11.7445 7.5 11.25C7.50074 10.5872 7.76438 9.95174 8.23306 9.48306C8.70173 9.01438 9.33719 8.75075 10 8.75Z" fill="#F3903A"/>
<path d="M10 12.1875C9.91712 12.1875 9.83763 12.1546 9.77903 12.096C9.72042 12.0374 9.6875 11.9579 9.6875 11.875C9.6875 11.7921 9.65458 11.7126 9.59597 11.654C9.53737 11.5954 9.45788 11.5625 9.375 11.5625C9.29212 11.5625 9.21263 11.5954 9.15403 11.654C9.09542 11.7126 9.0625 11.7921 9.0625 11.875C9.0633 12.0682 9.12378 12.2564 9.23565 12.414C9.34753 12.5715 9.50534 12.6906 9.6875 12.755V13.125C9.6875 13.2079 9.72042 13.2874 9.77903 13.346C9.83763 13.4046 9.91712 13.4375 10 13.4375C10.0829 13.4375 10.1624 13.4046 10.221 13.346C10.2796 13.2874 10.3125 13.2079 10.3125 13.125V12.755C10.5208 12.6816 10.6965 12.5369 10.8083 12.3464C10.9202 12.1559 10.961 11.932 10.9236 11.7143C10.8861 11.4966 10.7729 11.2992 10.6038 11.157C10.4348 11.0149 10.2209 10.9371 10 10.9375C9.93819 10.9375 9.87777 10.9192 9.82638 10.8848C9.77499 10.8505 9.73494 10.8017 9.71129 10.7446C9.68764 10.6875 9.68145 10.6247 9.6935 10.564C9.70556 10.5034 9.73532 10.4477 9.77903 10.404C9.82273 10.3603 9.87841 10.3306 9.93903 10.3185C9.99965 10.3064 10.0625 10.3126 10.1196 10.3363C10.1767 10.3599 10.2255 10.4 10.2598 10.4514C10.2942 10.5028 10.3125 10.5632 10.3125 10.625C10.3125 10.7079 10.3454 10.7874 10.404 10.846C10.4626 10.9046 10.5421 10.9375 10.625 10.9375C10.7079 10.9375 10.7874 10.9046 10.846 10.846C10.9046 10.7874 10.9375 10.7079 10.9375 10.625C10.9367 10.4318 10.8762 10.2436 10.7643 10.086C10.6525 9.92851 10.4947 9.8094 10.3125 9.745V9.375C10.3125 9.29212 10.2796 9.21263 10.221 9.15403C10.1624 9.09542 10.0829 9.0625 10 9.0625C9.91712 9.0625 9.83763 9.09542 9.77903 9.15403C9.72042 9.21263 9.6875 9.29212 9.6875 9.375V9.745C9.47916 9.81838 9.30352 9.96313 9.19168 10.1536C9.07983 10.3441 9.03901 10.568 9.07644 10.7857C9.11387 11.0034 9.22714 11.2008 9.39617 11.343C9.56521 11.4852 9.77912 11.5629 10 11.5625C10.0829 11.5625 10.1624 11.5954 10.221 11.654C10.2796 11.7126 10.3125 11.7921 10.3125 11.875C10.3125 11.9579 10.2796 12.0374 10.221 12.096C10.1624 12.1546 10.0829 12.1875 10 12.1875Z" fill="#F3903A"/>
<path d="M18.5056 11.25H16.4806C16.0053 9.6994 15.1071 8.31203 13.8869 7.24375L12.1506 5.72438C12.2853 5.61702 12.3874 5.47436 12.4457 5.31233C12.504 5.15029 12.5161 4.97524 12.4808 4.80672C12.4454 4.63819 12.3638 4.48281 12.2453 4.35791C12.1267 4.23301 11.9758 4.1435 11.8094 4.09938L13.3853 1.73563C13.4229 1.67929 13.4412 1.61226 13.4375 1.54463C13.4337 1.47699 13.408 1.41242 13.3644 1.36063C13.3566 1.35188 13.3466 1.34656 13.3381 1.33844L13.3406 1.33594C12.8593 0.88244 12.2238 0.628377 11.5625 0.625C11.0407 0.625967 10.5316 0.785759 10.1028 1.08313C9.1325 0.65875 8.125 0.233437 6.6875 1.3125C6.62357 1.36043 6.58044 1.43103 6.56695 1.50979C6.55347 1.58854 6.57066 1.66947 6.615 1.73594L8.19094 4.09969C8.0407 4.13927 7.90282 4.21596 7.78995 4.32273C7.67709 4.4295 7.59286 4.56291 7.54501 4.71073C7.49716 4.85854 7.48722 5.016 7.51611 5.16866C7.54499 5.32131 7.61177 5.46426 7.71031 5.58438L6.23125 6.965L6.65812 7.42156L8.24812 5.9375H11.445L13.4762 7.71406C14.5596 8.66296 15.3705 9.88351 15.8253 11.25H14.6194C14.3889 11.2502 14.1679 11.3419 14.0049 11.5049C13.8419 11.6679 13.7502 11.8889 13.75 12.1194V12.8806C13.7509 13.085 13.8245 13.2824 13.9575 13.4375C13.8245 13.5926 13.7509 13.79 13.75 13.9944V14.7556C13.7513 14.8472 13.7671 14.9381 13.7969 15.0247C13.6063 15.0692 13.4363 15.1767 13.3143 15.3298C13.1924 15.4829 13.1257 15.6727 13.125 15.8684V16.6297C13.1257 16.8254 13.1924 17.0152 13.3143 17.1683C13.4363 17.3214 13.6063 17.4289 13.7969 17.4734C13.7671 17.5601 13.7513 17.6509 13.75 17.7425V18.5037C13.7514 18.5404 13.7551 18.5769 13.7609 18.6131C13.4527 18.7029 13.1335 18.749 12.8125 18.75H12.7731C12.798 18.6709 12.8113 18.5886 12.8125 18.5056V17.7444C12.8116 17.54 12.738 17.3426 12.605 17.1875C12.738 17.0324 12.8116 16.835 12.8125 16.6306V15.8694C12.8123 15.6389 12.7206 15.4179 12.5576 15.2549C12.3946 15.0919 12.1736 15.0002 11.9431 15H8.05687C7.82638 15.0002 7.60539 15.0919 7.44241 15.2549C7.27942 15.4179 7.18775 15.6389 7.1875 15.8694V16.6306C7.18841 16.835 7.26195 17.0324 7.395 17.1875C7.26195 17.3426 7.18841 17.54 7.1875 17.7444V18.5056C7.18872 18.5886 7.20198 18.6709 7.22687 18.75H7.1875C6.8666 18.7496 6.54734 18.7041 6.23906 18.615C6.24492 18.5788 6.24857 18.5423 6.25 18.5056V17.7444C6.24874 17.6528 6.23292 17.5619 6.20312 17.4753C6.39372 17.4308 6.56373 17.3233 6.68566 17.1702C6.80758 17.0171 6.87429 16.8273 6.875 16.6316V15.8694C6.87429 15.6736 6.80758 15.4839 6.68566 15.3308C6.56373 15.1777 6.39372 15.0701 6.20312 15.0256C6.23292 14.939 6.24874 14.8482 6.25 14.7566V13.9944C6.24909 13.79 6.17555 13.5926 6.0425 13.4375C6.17555 13.2824 6.24909 13.085 6.25 12.8806V12.1194C6.24975 11.8889 6.15808 11.6679 5.99509 11.5049C5.83211 11.3419 5.61112 11.2502 5.38063 11.25H4.12125C4.51511 9.98176 5.21383 8.82938 6.15625 7.89375L5.71875 7.44969C4.65621 8.50329 3.88155 9.81172 3.46875 11.25H1.49437C1.26388 11.2502 1.04289 11.3419 0.879908 11.5049C0.716922 11.6679 0.625248 11.8889 0.625 12.1194V12.8806C0.625905 13.085 0.699453 13.2824 0.8325 13.4375C0.699453 13.5926 0.625905 13.79 0.625 13.9944V14.7556C0.625707 14.9514 0.692418 15.1411 0.814343 15.2942C0.936267 15.4473 1.10628 15.5549 1.29688 15.5994C1.26708 15.686 1.25126 15.7768 1.25 15.8684V16.6297C1.25126 16.7213 1.26708 16.8121 1.29688 16.8988C1.10596 16.9433 0.93572 17.0511 0.813762 17.2046C0.691803 17.3581 0.625286 17.5483 0.625 17.7444V18.5056C0.625248 18.7361 0.716922 18.9571 0.879908 19.1201C1.04289 19.2831 1.26388 19.3748 1.49437 19.375H5.38063C5.58179 19.3742 5.7763 19.3028 5.93031 19.1734C6.33613 19.3065 6.76043 19.3745 7.1875 19.375H12.8125C13.2396 19.3745 13.6639 19.3065 14.0697 19.1734C14.2237 19.3028 14.4182 19.3742 14.6194 19.375H18.5056C18.7361 19.3748 18.9571 19.2831 19.1201 19.1201C19.2831 18.9571 19.3748 18.7361 19.375 18.5056V17.7444C19.3743 17.5486 19.3076 17.3589 19.1857 17.2058C19.0637 17.0527 18.8937 16.9451 18.7031 16.9006C18.7329 16.814 18.7487 16.7232 18.75 16.6316V15.8694C18.7487 15.7778 18.7329 15.6869 18.7031 15.6003C18.8937 15.5558 19.0637 15.4483 19.1857 15.2952C19.3076 15.1421 19.3743 14.9523 19.375 14.7566V13.9944C19.3741 13.79 19.3005 13.5926 19.1675 13.4375C19.3005 13.2824 19.3741 13.085 19.375 12.8806V12.1194C19.3748 11.8889 19.2831 11.6679 19.1201 11.5049C18.9571 11.3419 18.7361 11.2502 18.5056 11.25ZM12.4513 1.46875C11.9225 1.60459 11.3649 1.57603 10.8528 1.38688C11.0786 1.2967 11.3194 1.25025 11.5625 1.25C11.8715 1.25427 12.1755 1.32909 12.4513 1.46875ZM9.87844 1.66812C10.5813 1.97594 11.3572 2.31656 12.3731 2.12812L11.0828 4.0625H8.91719L7.30469 1.64375C8.32781 0.988125 9.01937 1.29062 9.87844 1.66719V1.66812ZM8.4375 5.3125C8.35462 5.3125 8.27513 5.27958 8.21653 5.22097C8.15792 5.16237 8.125 5.08288 8.125 5C8.125 4.91712 8.15792 4.83763 8.21653 4.77903C8.27513 4.72042 8.35462 4.6875 8.4375 4.6875H11.5625C11.6454 4.6875 11.7249 4.72042 11.7835 4.77903C11.8421 4.83763 11.875 4.91712 11.875 5C11.875 5.08288 11.8421 5.16237 11.7835 5.22097C11.7249 5.27958 11.6454 5.3125 11.5625 5.3125H8.4375ZM6.25 16.6306C6.24992 16.6954 6.22414 16.7575 6.17833 16.8033C6.13252 16.8491 6.07041 16.8749 6.00563 16.875H2.11937C2.05459 16.8749 1.99248 16.8491 1.94667 16.8033C1.90086 16.7575 1.87508 16.6954 1.875 16.6306V15.8694C1.87508 15.8046 1.90086 15.7425 1.94667 15.6967C1.99248 15.6509 2.05459 15.6251 2.11937 15.625H2.5V16.25H3.125V15.625H3.75V16.25H4.375V15.625H5V16.25H5.625V15.625H6.00563C6.07041 15.6251 6.13252 15.6509 6.17833 15.6967C6.22414 15.7425 6.24992 15.8046 6.25 15.8694V16.6306ZM1.25 12.1194C1.25008 12.0546 1.27586 11.9925 1.32167 11.9467C1.36748 11.9009 1.42959 11.8751 1.49437 11.875H1.875V12.5H2.5V11.875H3.125V12.5H3.75V11.875H4.375V12.5H5V11.875H5.38063C5.44541 11.8751 5.50752 11.9009 5.55333 11.9467C5.59914 11.9925 5.62492 12.0546 5.625 12.1194V12.8806C5.62492 12.9454 5.59914 13.0075 5.55333 13.0533C5.50752 13.0991 5.44541 13.1249 5.38063 13.125H1.49437C1.42959 13.1249 1.36748 13.0991 1.32167 13.0533C1.27586 13.0075 1.25008 12.9454 1.25 12.8806V12.1194ZM1.25 13.9944C1.25008 13.9296 1.27586 13.8675 1.32167 13.8217C1.36748 13.7759 1.42959 13.7501 1.49437 13.75H1.875V14.375H2.5V13.75H3.125V14.375H3.75V13.75H4.375V14.375H5V13.75H5.38063C5.44541 13.7501 5.50752 13.7759 5.55333 13.8217C5.59914 13.8675 5.62492 13.9296 5.625 13.9944V14.7556C5.62492 14.8204 5.59914 14.8825 5.55333 14.9283C5.50752 14.9741 5.44541 14.9999 5.38063 15H1.49437C1.42959 14.9999 1.36748 14.9741 1.32167 14.9283C1.27586 14.8825 1.25008 14.8204 1.25 14.7556V13.9944ZM5.625 18.5056C5.62492 18.5704 5.59914 18.6325 5.55333 18.6783C5.50752 18.7241 5.44541 18.7499 5.38063 18.75H1.49437C1.42959 18.7499 1.36748 18.7241 1.32167 18.6783C1.27586 18.6325 1.25008 18.5704 1.25 18.5056V17.7444C1.25008 17.6796 1.27586 17.6175 1.32167 17.5717C1.36748 17.5259 1.42959 17.5001 1.49437 17.5H1.875V18.125H2.5V17.5H3.125V18.125H3.75V17.5H4.375V18.125H5V17.5H5.38063C5.44541 17.5001 5.50752 17.5259 5.55333 17.5717C5.59914 17.6175 5.62492 17.6796 5.625 17.7444V18.5056ZM7.8125 15.8694C7.81258 15.8046 7.83836 15.7425 7.88417 15.6967C7.92998 15.6509 7.99209 15.6251 8.05687 15.625H8.4375V16.25H9.0625V15.625H9.6875V16.25H10.3125V15.625H10.9375V16.25H11.5625V15.625H11.9431C12.0079 15.6251 12.07 15.6509 12.1158 15.6967C12.1616 15.7425 12.1874 15.8046 12.1875 15.8694V16.6306C12.1874 16.6954 12.1616 16.7575 12.1158 16.8033C12.07 16.8491 12.0079 16.8749 11.9431 16.875H8.05687C7.99209 16.8749 7.92998 16.8491 7.88417 16.8033C7.83836 16.7575 7.81258 16.6954 7.8125 16.6306V15.8694ZM8.05687 18.75C7.99209 18.7499 7.92998 18.7241 7.88417 18.6783C7.83836 18.6325 7.81258 18.5704 7.8125 18.5056V17.7444C7.81258 17.6796 7.83836 17.6175 7.88417 17.5717C7.92998 17.5259 7.99209 17.5001 8.05687 17.5H8.4375V18.125H9.0625V17.5H9.6875V18.125H10.3125V17.5H10.9375V18.125H11.5625V17.5H11.9431C12.0079 17.5001 12.07 17.5259 12.1158 17.5717C12.1616 17.6175 12.1874 17.6796 12.1875 17.7444V18.5056C12.1874 18.5704 12.1616 18.6325 12.1158 18.6783C12.07 18.7241 12.0079 18.7499 11.9431 18.75H8.05687ZM14.375 12.1194C14.3751 12.0546 14.4009 11.9925 14.4467 11.9467C14.4925 11.9009 14.5546 11.8751 14.6194 11.875H15V12.5H15.625V11.875H16.25V12.5H16.875V11.875H17.5V12.5H18.125V11.875H18.5056C18.5704 11.8751 18.6325 11.9009 18.6783 11.9467C18.7241 11.9925 18.7499 12.0546 18.75 12.1194V12.8806C18.7499 12.9454 18.7241 13.0075 18.6783 13.0533C18.6325 13.0991 18.5704 13.1249 18.5056 13.125H14.6194C14.5546 13.1249 14.4925 13.0991 14.4467 13.0533C14.4009 13.0075 14.3751 12.9454 14.375 12.8806V12.1194ZM13.75 15.8694C13.7501 15.8046 13.7759 15.7425 13.8217 15.6967C13.8675 15.6509 13.9296 15.6251 13.9944 15.625H14.375V16.25H15V15.625H15.625V16.25H16.25V15.625H16.875V16.25H17.5V15.625H17.8806C17.9454 15.6251 18.0075 15.6509 18.0533 15.6967C18.0991 15.7425 18.1249 15.8046 18.125 15.8694V16.6306C18.1249 16.6954 18.0991 16.7575 18.0533 16.8033C18.0075 16.8491 17.9454 16.8749 17.8806 16.875H13.9944C13.9296 16.8749 13.8675 16.8491 13.8217 16.8033C13.7759 16.7575 13.7501 16.6954 13.75 16.6306V15.8694ZM18.75 18.5056C18.7499 18.5704 18.7241 18.6325 18.6783 18.6783C18.6325 18.7241 18.5704 18.7499 18.5056 18.75H14.6194C14.5546 18.7499 14.4925 18.7241 14.4467 18.6783C14.4009 18.6325 14.3751 18.5704 14.375 18.5056V17.7444C14.3751 17.6796 14.4009 17.6175 14.4467 17.5717C14.4925 17.5259 14.5546 17.5001 14.6194 17.5H15V18.125H15.625V17.5H16.25V18.125H16.875V17.5H17.5V18.125H18.125V17.5H18.5056C18.5704 17.5001 18.6325 17.5259 18.6783 17.5717C18.7241 17.6175 18.7499 17.6796 18.75 17.7444V18.5056ZM18.75 14.7556C18.7499 14.8204 18.7241 14.8825 18.6783 14.9283C18.6325 14.9741 18.5704 14.9999 18.5056 15H14.6194C14.5546 14.9999 14.4925 14.9741 14.4467 14.9283C14.4009 14.8825 14.3751 14.8204 14.375 14.7556V13.9944C14.3751 13.9296 14.4009 13.8675 14.4467 13.8217C14.4925 13.7759 14.5546 13.7501 14.6194 13.75H15V14.375H15.625V13.75H16.25V14.375H16.875V13.75H17.5V14.375H18.125V13.75H18.5056C18.5704 13.7501 18.6325 13.7759 18.6783 13.8217C18.7241 13.8675 18.7499 13.9296 18.75 13.9944V14.7556Z" fill="#F3903A"/>
</g>
<defs>
<clipPath id="clip0_569_13344">
<rect width="20" height="20" fill="white"/>
</clipPath>
</defs>
</svg>
