<svg width="58" height="58" viewBox="0 0 58 58" fill="none" xmlns="http://www.w3.org/2000/svg">
<path d="M58 29C58 45.0163 45.0163 58 29 58C12.9837 58 0 45.0163 0 29C0 12.9837 12.9837 0 29 0C45.0163 0 58 12.9837 58 29Z" fill="#FDEEE1"/>
<path d="M42.6602 26.5387H38.8888C38.7647 26.5387 38.6457 26.4895 38.5579 26.402C38.4702 26.3144 38.4209 26.1957 38.4209 26.072V23.7383C38.4209 23.6145 38.4702 23.4958 38.5579 23.4083C38.6457 23.3208 38.7647 23.2716 38.8888 23.2716H40.9898C41.064 23.2719 41.1371 23.2899 41.203 23.324C41.2689 23.3581 41.3257 23.4073 41.3688 23.4676L43.0393 25.8013C43.089 25.8709 43.1186 25.9529 43.1248 26.0381C43.131 26.1234 43.1136 26.2088 43.0745 26.2849C43.0354 26.361 42.9761 26.4249 42.903 26.4696C42.83 26.5144 42.746 26.5383 42.6602 26.5387Z" fill="#FFC599"/>
<path d="M22.745 29.5537H23.2129M13.8545 29.5537H20.4054H13.8545Z" stroke="#FFC599" stroke-width="1.4" stroke-linecap="round" stroke-linejoin="round"/>
<path d="M45.1961 26.5012L41.9675 22.2074C41.8803 22.0914 41.7673 21.9973 41.6374 21.9325C41.5074 21.8677 41.3641 21.834 41.2188 21.834H35.6038C35.3556 21.834 35.1176 21.9323 34.9421 22.1074C34.7666 22.2824 34.668 22.5199 34.668 22.7674V36.7692H50.1093C50.6057 36.7692 51.0818 36.5725 51.4328 36.2224C51.7838 35.8723 51.981 35.3974 51.981 34.9023V29.3016C51.981 28.8064 51.7838 28.3316 51.4328 27.9815C51.0818 27.6314 50.6057 27.4347 50.1093 27.4347H47.0678C46.7046 27.4347 46.3464 27.3503 46.0215 27.1883C45.6967 27.0263 45.4141 26.7911 45.1961 26.5012V26.5012Z" stroke="#F3903A" stroke-width="1.4" stroke-linecap="round" stroke-linejoin="round"/>
<path d="M43.3246 41.0071C45.6504 41.0071 47.5358 39.1265 47.5358 36.8066C47.5358 34.4867 45.6504 32.6061 43.3246 32.6061C40.9987 32.6061 39.1133 34.4867 39.1133 36.8066C39.1133 39.1265 40.9987 41.0071 43.3246 41.0071Z" fill="#FDEEE1" stroke="#F3903A" stroke-width="1.4" stroke-linecap="round" stroke-linejoin="round"/>
<path d="M37.2504 29.5537H39.122H37.2504ZM33.1561 41.0072H49.7344H33.1561ZM16.1472 41.0072H29.8947H16.1472ZM13.8544 41.0072H14.2381H13.8544ZM41.4897 27.4721H37.7183C37.5942 27.4721 37.4752 27.423 37.3874 27.3354C37.2997 27.2479 37.2504 27.1292 37.2504 27.0054V24.6718C37.2504 24.548 37.2997 24.4293 37.3874 24.3418C37.4752 24.2543 37.5942 24.2051 37.7183 24.2051H39.8192C39.8935 24.2054 39.9666 24.2234 40.0325 24.2575C40.0984 24.2915 40.1552 24.3408 40.1982 24.4011L41.8687 26.7347C41.9184 26.8044 41.948 26.8863 41.9542 26.9716C41.9604 27.0569 41.943 27.1423 41.9039 27.2183C41.8648 27.2944 41.8055 27.3584 41.7325 27.4031C41.6594 27.4479 41.5754 27.4718 41.4897 27.4721V27.4721ZM11.0469 31.4393H13.3865H11.0469ZM12.4506 32.6061H13.3865H12.4506Z" stroke="#F3903A" stroke-width="1.4" stroke-linecap="round" stroke-linejoin="round"/>
<g opacity="0.2">
<path opacity="0.2" d="M37.5261 17.1668H35.1865M36.3563 16V18.3336V16Z" stroke="#F3903A" stroke-width="0.877854" stroke-linecap="round" stroke-linejoin="round"/>
</g>
<g opacity="0.2">
<path opacity="0.2" d="M9.3396 26.73H7M8.1698 25.5632V27.8969V25.5632Z" stroke="#F3903A" stroke-width="0.877854" stroke-linecap="round" stroke-linejoin="round"/>
</g>
<path opacity="0.5" d="M47.7792 24.4384C48.4252 24.4384 48.949 23.916 48.949 23.2715C48.949 22.6271 48.4252 22.1047 47.7792 22.1047C47.1331 22.1047 46.6094 22.6271 46.6094 23.2715C46.6094 23.916 47.1331 24.4384 47.7792 24.4384Z" stroke="#FFC599" stroke-width="1.4" stroke-linecap="round" stroke-linejoin="round"/>
<path d="M13.6113 21.8341V35.8358C13.6113 36.0834 13.7099 36.3208 13.8854 36.4959C14.0609 36.671 14.299 36.7693 14.5472 36.7693H32.3281V18.1003C32.3281 17.8528 32.2295 17.6153 32.054 17.4403C31.8785 17.2652 31.6405 17.1669 31.3923 17.1669H18.2905C17.0495 17.1669 15.8594 17.6586 14.9818 18.5339C14.1043 19.4092 13.6113 20.5963 13.6113 21.8341V21.8341Z" stroke="#F3903A" stroke-width="1.4" stroke-linecap="round" stroke-linejoin="round"/>
<path d="M22.9701 41.0071C25.2959 41.0071 27.1813 39.1265 27.1813 36.8066C27.1813 34.4867 25.2959 32.6061 22.9701 32.6061C20.6442 32.6061 18.7588 34.4867 18.7588 36.8066C18.7588 39.1265 20.6442 41.0071 22.9701 41.0071Z" fill="#FDEEE1" stroke="#F3903A" stroke-width="1.4" stroke-linecap="round" stroke-linejoin="round"/>
</svg>
