<svg width="27" height="28" viewBox="0 0 27 28" fill="none" xmlns="http://www.w3.org/2000/svg">
<path d="M4.69166 1.55936C3.10656 3.14446 1.99506 5.11463 1.44824 7.25M22.2227 1.55936C23.8078 3.14446 24.9193 5.11463 25.4661 7.25" stroke="#1B2A44" stroke-width="1.6" stroke-linecap="round" stroke-linejoin="round"/>
<path d="M8.39622 5.22117C9.74981 3.86758 11.5857 3.10715 13.4999 3.10715C15.4142 3.10715 17.25 3.86758 18.6036 5.22117C19.9572 6.57475 20.7176 8.41061 20.7176 10.3249C20.7176 12.4189 21.1873 13.9448 21.8158 15.0448C22.0983 15.5391 22.654 15.7689 23.1984 15.9356C25.3392 16.5915 25.1978 19.2626 23.9194 20.2079C23.9194 20.2079 22.1382 21.75 13.4999 21.75C4.86169 21.75 3.08041 20.2079 3.08041 20.2079C1.802 19.2626 1.66063 16.5915 3.80144 15.9356C4.3458 15.7689 4.90158 15.5391 5.18402 15.0448C5.81252 13.9448 6.2822 12.4189 6.2822 10.3249C6.2822 8.41061 7.04264 6.57475 8.39622 5.22117Z" stroke="#2C3E50" stroke-linecap="round" stroke-linejoin="round"/>
<path d="M10.9429 24.6459C11.4666 25.6224 12.4972 26.2865 13.6829 26.2865C14.8685 26.2865 15.8991 25.6224 16.4229 24.6459" stroke="#1B2A44" stroke-width="1.6" stroke-linecap="round" stroke-linejoin="round"/>
</svg>
