<svg width="58" height="58" viewBox="0 0 58 58" fill="none" xmlns="http://www.w3.org/2000/svg">
<path d="M58 29C58 45.0163 45.0163 58 29 58C12.9837 58 0 45.0163 0 29C0 12.9837 12.9837 0 29 0C45.0163 0 58 12.9837 58 29Z" fill="#FDEEE1"/>
<path d="M44.4214 26.1052H35.1582V20.3157H41.3217C41.5531 20.3157 41.7792 20.385 41.9708 20.5148C42.1624 20.6445 42.3108 20.8287 42.3967 21.0435L44.4214 26.1052Z" stroke="#FF8900" stroke-width="2" stroke-linecap="round" stroke-linejoin="round"/>
<path d="M12 29.5786H35.158" stroke="#FF8900" stroke-width="2" stroke-linecap="round" stroke-linejoin="round"/>
<path d="M36.8936 39.9999C38.8121 39.9999 40.3673 38.4447 40.3673 36.5262C40.3673 34.6077 38.8121 33.0525 36.8936 33.0525C34.9751 33.0525 33.4199 34.6077 33.4199 36.5262C33.4199 38.4447 34.9751 39.9999 36.8936 39.9999Z" stroke="#FF8900" stroke-width="2" stroke-miterlimit="10"/>
<path d="M19.5264 39.9999C21.4449 39.9999 23.0001 38.4447 23.0001 36.5262C23.0001 34.6077 21.4449 33.0525 19.5264 33.0525C17.608 33.0525 16.0527 34.6077 16.0527 36.5262C16.0527 38.4447 17.608 39.9999 19.5264 39.9999Z" stroke="#FF8900" stroke-width="2" stroke-miterlimit="10"/>
<path d="M33.4201 36.5266H22.999" stroke="#FF8900" stroke-width="2" stroke-linecap="round" stroke-linejoin="round"/>
<path d="M16.0526 36.5264H13.1579C12.8508 36.5264 12.5563 36.4044 12.3391 36.1872C12.122 35.9701 12 35.6756 12 35.3685V19.1579C12 18.8508 12.122 18.5563 12.3391 18.3391C12.5563 18.122 12.8508 18 13.1579 18H35.158C35.158 18 35.158 26.25 35.158 31.7501C35.158 37.2501 35.158 26.1053 35.158 26.1053H44.4211V35.3685C44.4211 35.6756 44.2992 35.9701 44.082 36.1872C43.8649 36.4044 43.5703 36.5264 43.2633 36.5264H40.3685" stroke="#FF8900" stroke-width="2" stroke-linecap="round" stroke-linejoin="round"/>
</svg>
