<svg width="21" height="21" viewBox="0 0 21 21" fill="none" xmlns="http://www.w3.org/2000/svg">
<path d="M8.76409 3.9375C9.30066 3.79786 9.85071 3.71646 10.4047 3.69469V4.07859C10.4047 4.16562 10.4393 4.24908 10.5008 4.31061C10.5624 4.37215 10.6458 4.40672 10.7328 4.40672C10.8199 4.40672 10.9033 4.37215 10.9649 4.31061C11.0264 4.24908 11.061 4.16562 11.061 4.07859V3.67828C12.2061 3.72655 13.3264 4.02681 14.3422 4.55766L14.1453 4.88578C14.1061 4.96077 14.0974 5.04802 14.121 5.1293C14.1445 5.21058 14.1986 5.2796 14.2719 5.32196C14.3452 5.36431 14.432 5.37671 14.5142 5.35658C14.5964 5.33644 14.6676 5.28533 14.713 5.21391L14.9099 4.88578C15.8826 5.50159 16.709 6.32244 17.3314 7.29094L16.9738 7.49766C16.9024 7.54306 16.8512 7.6143 16.8311 7.6965C16.811 7.7787 16.8234 7.8655 16.8657 7.93877C16.9081 8.01205 16.9771 8.06612 17.0584 8.0897C17.1397 8.11328 17.2269 8.10454 17.3019 8.06531L17.6628 7.85531C18.2094 8.87398 18.5221 10.0016 18.5783 11.1562H18.1419C18.0549 11.1562 17.9714 11.1908 17.9099 11.2524C17.8484 11.3139 17.8138 11.3974 17.8138 11.4844C17.8138 11.5714 17.8484 11.6549 17.9099 11.7164C17.9714 11.7779 18.0549 11.8125 18.1419 11.8125H18.5783C18.5344 12.9702 18.2329 14.1035 17.6957 15.1298L17.3052 14.9034C17.2678 14.8797 17.2261 14.8638 17.1824 14.8566C17.1387 14.8494 17.0941 14.8511 17.0511 14.8616C17.0081 14.8722 16.9677 14.8913 16.9323 14.9178C16.8969 14.9444 16.8672 14.9778 16.8451 15.0161C16.8229 15.0545 16.8088 15.0969 16.8034 15.1408C16.7981 15.1847 16.8017 15.2293 16.814 15.2718C16.8264 15.3143 16.8472 15.3538 16.8752 15.3881C16.9032 15.4223 16.9379 15.4506 16.9771 15.4711L17.3675 15.6942C16.7452 16.6732 15.9151 17.5033 14.9361 18.1256L14.7064 17.7286C14.661 17.6572 14.5898 17.6061 14.5076 17.5859C14.4254 17.5658 14.3386 17.5782 14.2653 17.6205C14.192 17.6629 14.138 17.7319 14.1144 17.8132C14.0908 17.8945 14.0996 17.9817 14.1388 18.0567L14.3685 18.4538C13.342 18.9999 12.2062 19.3094 11.0446 19.3594V18.9C11.0446 18.813 11.01 18.7295 10.9485 18.668C10.8869 18.6064 10.8035 18.5719 10.7164 18.5719C10.6294 18.5719 10.546 18.6064 10.4844 18.668C10.4229 18.7295 10.3883 18.813 10.3883 18.9V19.3594C9.83981 19.3365 9.29532 19.2551 8.76409 19.1166C8.68217 19.1002 8.59708 19.1157 8.5262 19.1599C8.45531 19.2041 8.40396 19.2737 8.38261 19.3545C8.36127 19.4353 8.37154 19.5212 8.41133 19.5946C8.45112 19.6681 8.51744 19.7236 8.59675 19.7498C10.3827 20.2186 12.2728 20.0929 13.981 19.3918C15.6892 18.6907 17.1226 17.4523 18.0643 15.864C19.006 14.2757 19.4048 12.4239 19.2004 10.5888C18.9959 8.75367 18.1993 7.03506 16.9311 5.69297L17.6202 5.00391L17.8925 5.27625C17.954 5.33736 18.0372 5.37167 18.1239 5.37167C18.2105 5.37167 18.2937 5.33736 18.3552 5.27625L19.3396 4.29187C19.4007 4.2304 19.435 4.14723 19.435 4.06055C19.435 3.97386 19.4007 3.8907 19.3396 3.82922L18.2994 2.77922C18.2379 2.71811 18.1548 2.6838 18.0681 2.6838C17.9814 2.6838 17.8982 2.71811 17.8368 2.77922L16.8524 3.76359C16.7913 3.82507 16.757 3.90824 16.757 3.99492C16.757 4.08161 16.7913 4.16477 16.8524 4.22625L17.1608 4.53469L16.4685 5.22703C15.1956 4.06828 13.6002 3.32438 11.8944 3.09422V2.76609H12.7672C12.8542 2.76609 12.9377 2.73152 12.9992 2.66999C13.0608 2.60845 13.0953 2.52499 13.0953 2.43797V1.3125C13.0953 1.22548 13.0608 1.14202 12.9992 1.08048C12.9377 1.01895 12.8542 0.984375 12.7672 0.984375H8.92816C8.84113 0.984375 8.75767 1.01895 8.69614 1.08048C8.6346 1.14202 8.60003 1.22548 8.60003 1.3125V2.45109C8.60003 2.53812 8.6346 2.62158 8.69614 2.68311C8.75767 2.74465 8.84113 2.77922 8.92816 2.77922H9.80097V3.06797C9.39485 3.10928 8.99235 3.18056 8.59675 3.28125C8.50973 3.30344 8.43508 3.35929 8.38924 3.43652C8.34339 3.51375 8.33011 3.60602 8.3523 3.69305C8.37449 3.78007 8.43034 3.85472 8.50757 3.90056C8.5848 3.9464 8.67707 3.95969 8.76409 3.9375ZM18.0664 3.49125L18.6505 4.07531L18.1255 4.59375L17.5414 4.00969L18.0664 3.49125ZM9.25628 1.64062H12.4358V2.12297H9.25628V1.64062ZM10.4572 2.77922H11.2349V3.02859C11.0708 3.02859 10.9068 3.02859 10.7394 3.02859H10.4572V2.77922Z" fill="#E0B547"/>
<path d="M6.26062 6.25732H8.05875C8.14577 6.25732 8.22923 6.22275 8.29077 6.16122C8.3523 6.09968 8.38687 6.01622 8.38687 5.9292C8.38687 5.84218 8.3523 5.75872 8.29077 5.69718C8.22923 5.63564 8.14577 5.60107 8.05875 5.60107H6.26062C6.1736 5.60107 6.09014 5.63564 6.02861 5.69718C5.96707 5.75872 5.9325 5.84218 5.9325 5.9292C5.9325 6.01622 5.96707 6.09968 6.02861 6.16122C6.09014 6.22275 6.1736 6.25732 6.26062 6.25732ZM4.84969 8.49186H7.875C7.96202 8.49186 8.04548 8.45729 8.10702 8.39575C8.16856 8.33421 8.20312 8.25075 8.20312 8.16373C8.20312 8.07671 8.16856 7.99325 8.10702 7.93171C8.04548 7.87018 7.96202 7.83561 7.875 7.83561H4.84969C4.76266 7.83561 4.6792 7.87018 4.61767 7.93171C4.55613 7.99325 4.52156 8.07671 4.52156 8.16373C4.52156 8.25075 4.55613 8.33421 4.61767 8.39575C4.6792 8.45729 4.76266 8.49186 4.84969 8.49186ZM3.46828 10.7264H7.97016C8.05718 10.7264 8.14064 10.6918 8.20218 10.6303C8.26371 10.5687 8.29828 10.4853 8.29828 10.3983C8.29828 10.3112 8.26371 10.2278 8.20218 10.1662C8.14064 10.1047 8.05718 10.0701 7.97016 10.0701H3.46828C3.38126 10.0701 3.2978 10.1047 3.23626 10.1662C3.17473 10.2278 3.14016 10.3112 3.14016 10.3983C3.14016 10.4853 3.17473 10.5687 3.23626 10.6303C3.2978 10.6918 3.38126 10.7264 3.46828 10.7264ZM1.88672 12.9576H8.06203C8.14906 12.9576 8.23252 12.9231 8.29405 12.8615C8.35559 12.8 8.39016 12.7165 8.39016 12.6295C8.39016 12.5425 8.35559 12.459 8.29405 12.3975C8.23252 12.336 8.14906 12.3014 8.06203 12.3014H1.88672C1.79969 12.3014 1.71623 12.336 1.6547 12.3975C1.59316 12.459 1.55859 12.5425 1.55859 12.6295C1.55859 12.7165 1.59316 12.8 1.6547 12.8615C1.71623 12.9231 1.79969 12.9576 1.88672 12.9576ZM8.06531 14.864C8.06531 14.777 8.03074 14.6936 7.96921 14.632C7.90767 14.5705 7.82421 14.5359 7.73719 14.5359H3.58969C3.50266 14.5359 3.4192 14.5705 3.35767 14.632C3.29613 14.6936 3.26156 14.777 3.26156 14.864C3.26156 14.9511 3.29613 15.0345 3.35767 15.0961C3.4192 15.1576 3.50266 15.1922 3.58969 15.1922H7.73719C7.82421 15.1922 7.90767 15.1576 7.96921 15.0961C8.03074 15.0345 8.06531 14.9511 8.06531 14.864ZM6.26062 17.4267H8.05875C8.14577 17.4267 8.22923 17.3921 8.29077 17.3306C8.3523 17.2691 8.38687 17.1856 8.38687 17.0986C8.38687 17.0115 8.3523 16.9281 8.29077 16.8666C8.22923 16.805 8.14577 16.7704 8.05875 16.7704H6.26062C6.1736 16.7704 6.09014 16.805 6.02861 16.8666C5.96707 16.9281 5.9325 17.0115 5.9325 17.0986C5.9325 17.1856 5.96707 17.2691 6.02861 17.3306C6.09014 17.3921 6.1736 17.4267 6.26062 17.4267ZM10.7264 12.6394C10.9779 12.6394 11.2228 12.5589 11.4253 12.4097L11.4581 12.3801L14.8247 9.12514C14.8804 9.07191 14.9157 9.00076 14.9242 8.92416C14.9327 8.84756 14.914 8.7704 14.8713 8.70621C14.8287 8.64202 14.7648 8.59489 14.6909 8.5731C14.6169 8.55131 14.5377 8.55623 14.467 8.58701L10.4278 10.3261L10.0997 10.4704C10.0764 10.4798 10.0544 10.4919 10.0341 10.5065C9.83343 10.6541 9.68458 10.8613 9.60877 11.0986C9.53296 11.3358 9.53408 11.5909 9.61197 11.8275C9.68985 12.0641 9.84052 12.27 10.0424 12.4158C10.2444 12.5616 10.4872 12.6398 10.7362 12.6394H10.7264ZM10.2047 11.3794C10.2222 11.2514 10.2865 11.1345 10.3852 11.0512L13.0791 9.89295L11.0184 11.8879C10.9338 11.9454 10.8342 11.977 10.7319 11.9786C10.6296 11.9803 10.5291 11.952 10.4426 11.8973C10.3562 11.8425 10.2876 11.7637 10.2453 11.6706C10.203 11.5774 10.1889 11.4739 10.2047 11.3728V11.3794Z" fill="#E0B547"/>
</svg>
