<svg width="46" height="32" viewBox="0 0 46 32" fill="none" xmlns="http://www.w3.org/2000/svg">
<path d="M29.4646 16.8206V6.3269H33.297C34.0822 6.32713 34.8592 6.48644 35.5812 6.7952V13.7815C35.5819 14.0347 35.6828 14.2774 35.8619 14.4564C36.041 14.6355 36.2836 14.7364 36.5369 14.7372H44.087C44.4804 15.5301 44.6833 16.4038 44.6795 17.2889V26.1866H40.8854C40.858 25.1123 40.412 24.0912 39.6425 23.3411C38.873 22.591 37.8409 22.1711 36.7662 22.1711C35.6916 22.1711 34.6595 22.591 33.89 23.3411C33.1205 24.0912 32.6745 25.1123 32.6471 26.1866H29.4837V16.8206H29.4646Z" fill="#ED664C"/>
<path d="M44.087 14.7371H36.5369C36.2836 14.7364 36.041 14.6355 35.8619 14.4564C35.6828 14.2773 35.5819 14.0347 35.5812 13.7814V6.79517C36.1744 7.05316 36.7203 7.40848 37.1963 7.84645L42.8446 13.0742C43.3571 13.5477 43.7782 14.1114 44.087 14.7371Z" fill="#ED664C"/>
<path d="M40.8853 26.1866V26.2917C40.8853 27.3842 40.4514 28.4319 39.6789 29.2044C38.9064 29.9769 37.8587 30.4108 36.7662 30.4108C35.6738 30.4108 34.626 29.9769 33.8536 29.2044C33.0811 28.4319 32.6471 27.3842 32.6471 26.2917V26.1866C32.6745 25.1123 33.1205 24.0912 33.89 23.3411C34.6595 22.591 35.6916 22.1711 36.7662 22.1711C37.8408 22.1711 38.873 22.591 39.6425 23.3411C40.412 24.0912 40.858 25.1123 40.8853 26.1866ZM38.5152 26.2917C38.5152 25.9439 38.412 25.6039 38.2188 25.3148C38.0256 25.0256 37.7509 24.8002 37.4296 24.6671C37.1083 24.534 36.7547 24.4992 36.4136 24.567C36.0725 24.6349 35.7591 24.8023 35.5132 25.0483C35.2673 25.2942 35.0998 25.6075 35.0319 25.9487C34.9641 26.2898 34.9989 26.6434 35.132 26.9647C35.2651 27.286 35.4905 27.5606 35.7797 27.7539C36.0689 27.9471 36.4089 28.0502 36.7567 28.0502C36.9878 28.0508 37.2167 28.0058 37.4303 27.9176C37.644 27.8295 37.8381 27.6999 38.0015 27.5365C38.1649 27.3731 38.2944 27.179 38.3825 26.9654C38.4707 26.7518 38.5158 26.5228 38.5152 26.2917Z" fill="#FDC75B"/>
<path d="M36.7566 24.5332C37.1044 24.5332 37.4444 24.6363 37.7336 24.8296C38.0227 25.0228 38.2481 25.2974 38.3812 25.6188C38.5143 25.9401 38.5491 26.2937 38.4813 26.6348C38.4134 26.9759 38.246 27.2892 38 27.5352C37.7541 27.7811 37.4408 27.9486 37.0996 28.0164C36.7585 28.0843 36.4049 28.0495 36.0836 27.9164C35.7623 27.7833 35.4876 27.5579 35.2944 27.2687C35.1012 26.9795 34.9981 26.6395 34.9981 26.2917C34.9974 26.0606 35.0425 25.8317 35.1307 25.618C35.2188 25.4044 35.3483 25.2103 35.5118 25.0469C35.6752 24.8835 35.8693 24.754 36.0829 24.6658C36.2965 24.5777 36.5255 24.5326 36.7566 24.5332Z" fill="#FDC75B"/>
<path d="M29.4646 16.8206V26.1865H13.0646C13.0372 25.1123 12.5912 24.0912 11.8217 23.341C11.0522 22.5909 10.0201 22.1711 8.94544 22.1711C7.87081 22.1711 6.8387 22.5909 6.0692 23.341C5.2997 24.0912 4.85371 25.1123 4.82632 26.1865H0.955688V16.8206H29.4646Z" fill="#ED664C"/>
<path d="M29.4646 15.7406V16.8302H0.955689V4.78818C0.95555 4.28612 1.05434 3.78895 1.2464 3.32508C1.43847 2.8612 1.72006 2.43972 2.07507 2.08471C2.43008 1.7297 2.85156 1.44811 3.31543 1.25605C3.7793 1.06398 4.27647 0.965194 4.77854 0.965332H25.6417C26.1438 0.965194 26.641 1.06398 27.1048 1.25605C27.5687 1.44811 27.9902 1.7297 28.3452 2.08471C28.7002 2.43972 28.9818 2.8612 29.1739 3.32508C29.3659 3.78895 29.4647 4.28612 29.4646 4.78818V15.7406ZM4.82632 26.1866C4.85371 25.1123 5.2997 24.0912 6.0692 23.3411C6.8387 22.591 7.87081 22.1711 8.94544 22.1711C10.0201 22.1711 11.0522 22.591 11.8217 23.3411C12.5912 24.0912 13.0372 25.1123 13.0646 26.1866V26.2917C13.0646 27.3854 12.6301 28.4344 11.8567 29.2077C11.0833 29.9811 10.0344 30.4156 8.94066 30.4156C7.84694 30.4156 6.79801 29.9811 6.02463 29.2077C5.25125 28.4344 4.81676 27.3854 4.81676 26.2917C4.82468 26.2573 4.82789 26.2219 4.82632 26.1866ZM10.7039 26.2917C10.7039 25.9439 10.6008 25.6039 10.4076 25.3147C10.2144 25.0256 9.93972 24.8002 9.61839 24.6671C9.29707 24.534 8.94349 24.4991 8.60237 24.567C8.26125 24.6348 7.94792 24.8023 7.70199 25.0483C7.45605 25.2942 7.28857 25.6075 7.22072 25.9486C7.15287 26.2898 7.18769 26.6433 7.32079 26.9647C7.45389 27.286 7.67928 27.5606 7.96846 27.7539C8.25765 27.9471 8.59764 28.0502 8.94544 28.0502C9.17654 28.0508 9.40548 28.0058 9.61911 27.9176C9.83273 27.8294 10.0268 27.6999 10.1902 27.5365C10.3537 27.3731 10.4832 27.179 10.5713 26.9654C10.6595 26.7518 10.7046 26.5228 10.7039 26.2917Z" fill="#FDC75B"/>
<path d="M8.94553 24.5332C9.29332 24.5332 9.63331 24.6363 9.9225 24.8296C10.2117 25.0228 10.4371 25.2974 10.5702 25.6188C10.7033 25.9401 10.7381 26.2937 10.6702 26.6348C10.6024 26.9759 10.4349 27.2892 10.189 27.5352C9.94305 27.7811 9.62971 27.9486 9.28859 28.0164C8.94748 28.0843 8.5939 28.0495 8.27257 27.9164C7.95125 27.7833 7.67661 27.5579 7.48338 27.2687C7.29015 26.9795 7.18702 26.6395 7.18702 26.2917C7.18641 26.0606 7.23148 25.8317 7.31964 25.618C7.4078 25.4044 7.53731 25.2103 7.70072 25.0469C7.86414 24.8835 8.05823 24.754 8.27186 24.6658C8.48548 24.5777 8.71442 24.5326 8.94553 24.5332Z" fill="#FDC75B"/>
<path d="M43.4945 12.3765L37.8462 7.14873C37.2912 6.63637 36.655 6.21974 35.9634 5.91586C35.125 5.55138 34.2208 5.36272 33.3066 5.36155H30.4203V4.77856C30.4199 3.51135 29.9163 2.29617 29.0202 1.40011C28.1241 0.504056 26.909 0.000455951 25.6418 0H4.77856C3.51135 0.000455951 2.29617 0.504056 1.40011 1.40011C0.504056 2.29617 0.000455951 3.51135 0 4.77856V26.177C0.000731236 26.4302 0.101657 26.6729 0.280729 26.8519C0.459802 27.031 0.702466 27.132 0.955712 27.1327H3.93753C4.1373 28.3164 4.7499 29.3911 5.66665 30.166C6.5834 30.941 7.74503 31.3663 8.94547 31.3663C10.1459 31.3663 11.3075 30.941 12.2243 30.166C13.141 29.3911 13.7536 28.3164 13.9534 27.1327H31.7488C31.9485 28.3164 32.5611 29.3911 33.4779 30.166C34.3946 30.941 35.5563 31.3663 36.7567 31.3663C37.9571 31.3663 39.1188 30.941 40.0355 30.166C40.9523 29.3911 41.5648 28.3164 41.7646 27.1327H44.6795C44.9328 27.132 45.1754 27.031 45.3545 26.8519C45.5336 26.6729 45.6345 26.4302 45.6353 26.177V17.2793C45.6349 16.248 45.3961 15.2308 44.9376 14.307C44.5793 13.5803 44.0901 12.9258 43.4945 12.3765ZM42.1947 13.7814H36.5369V8.54407L36.5464 8.55363L42.1947 13.7814ZM4.77856 1.92098H25.6418C26.4015 1.9232 27.1295 2.22599 27.6667 2.7632C28.2039 3.30041 28.5067 4.02839 28.5089 4.78812V15.8744H1.91142V4.78812C1.91364 4.02839 2.21643 3.30041 2.75364 2.7632C3.29085 2.22599 4.01883 1.9232 4.77856 1.92098ZM8.94547 29.4646C8.10678 29.4636 7.30273 29.13 6.70969 28.537C6.11665 27.9439 5.78304 27.1399 5.78206 26.3012V26.2152C5.80862 25.3917 6.15278 24.6104 6.74245 24.035C7.33213 23.4596 8.12158 23.1347 8.94547 23.1282C9.77278 23.1233 10.5687 23.4445 11.1608 24.0223C11.753 24.6002 12.0936 25.388 12.1089 26.2152V26.2917C12.1101 26.7079 12.0292 27.1203 11.8708 27.5052C11.7124 27.8901 11.4796 28.2399 11.1857 28.5347C10.8918 28.8295 10.5427 29.0633 10.1583 29.2229C9.77383 29.3825 9.3617 29.4646 8.94547 29.4646ZM12.5007 22.6599C11.8501 22.0269 11.0419 21.5796 10.16 21.3645C9.27806 21.1494 8.35464 21.1743 7.48563 21.4367C6.61661 21.6991 5.83368 22.1893 5.21815 22.8565C4.60262 23.5237 4.17694 24.3435 3.98532 25.2308H1.91142V17.7763H28.5089V25.2308H13.9152C13.7047 24.2542 13.213 23.3605 12.5007 22.6599ZM36.7567 29.4646C35.918 29.4636 35.1139 29.13 34.5209 28.537C33.9279 27.9439 33.5943 27.1399 33.5933 26.3012V26.2152C33.6102 25.3885 33.9513 24.6016 34.5431 24.0241C35.1348 23.4467 35.9299 23.1249 36.7567 23.1282C37.5811 23.1331 38.3714 23.4575 38.9614 24.0332C39.5515 24.609 39.8951 25.3912 39.9201 26.2152V26.2917C39.9214 26.7079 39.8405 27.1203 39.682 27.5052C39.5236 27.8901 39.2908 28.2399 38.9969 28.5347C38.7031 28.8295 38.3539 29.0633 37.9695 29.2229C37.5851 29.3825 37.1729 29.4646 36.7567 29.4646ZM43.7334 25.2308H41.7359C41.4905 24.0951 40.8635 23.0777 39.9593 22.3479C39.0551 21.6182 37.9282 21.2202 36.7662 21.2202C35.6043 21.2202 34.4774 21.6182 33.5732 22.3479C32.6689 23.0777 32.0419 24.0951 31.7965 25.2308H30.4299V7.28253H33.3161C33.7626 7.28373 34.2066 7.34808 34.635 7.47367V13.7814C34.6365 14.2879 34.8384 14.7732 35.1965 15.1313C35.5546 15.4895 36.0399 15.6913 36.5464 15.6928H43.4658C43.6488 16.205 43.7426 16.7449 43.7429 17.2888V25.2308H43.7334Z" fill="#083863"/>
<path d="M8.94555 23.5774C8.40872 23.5774 7.88396 23.7366 7.43761 24.0348C6.99125 24.3331 6.64337 24.757 6.43793 25.2529C6.2325 25.7489 6.17875 26.2946 6.28348 26.8211C6.38821 27.3476 6.64671 27.8313 7.0263 28.2109C7.40589 28.5905 7.88952 28.849 8.41603 28.9537C8.94254 29.0584 9.48827 29.0047 9.98423 28.7992C10.4802 28.5938 10.9041 28.2459 11.2023 27.7996C11.5006 27.3532 11.6598 26.8284 11.6598 26.2916C11.6586 25.5721 11.3723 24.8824 10.8635 24.3736C10.3548 23.8649 9.66505 23.5785 8.94555 23.5774V23.5774ZM8.94555 27.0944C8.78677 27.0944 8.63155 27.0473 8.49954 26.9591C8.36752 26.8709 8.26462 26.7455 8.20386 26.5988C8.1431 26.4521 8.1272 26.2907 8.15817 26.135C8.18915 25.9793 8.26561 25.8362 8.37788 25.724C8.49016 25.6117 8.6332 25.5352 8.78893 25.5042C8.94466 25.4733 9.10607 25.4892 9.25276 25.5499C9.39946 25.6107 9.52484 25.7136 9.61305 25.8456C9.70126 25.9776 9.74834 26.1328 9.74834 26.2916C9.74933 26.3973 9.72923 26.5022 9.68924 26.6C9.64924 26.6978 9.59014 26.7867 9.5154 26.8615C9.44066 26.9362 9.35177 26.9953 9.25392 27.0353C9.15608 27.0753 9.05124 27.0954 8.94555 27.0944V27.0944ZM36.7568 23.5774C36.2199 23.5774 35.6952 23.7366 35.2488 24.0348C34.8025 24.3331 34.4546 24.757 34.2491 25.2529C34.0437 25.7489 33.99 26.2946 34.0947 26.8211C34.1994 27.3476 34.4579 27.8313 34.8375 28.2109C35.2171 28.5905 35.7007 28.849 36.2272 28.9537C36.7538 29.0584 37.2995 29.0047 37.7954 28.7992C38.2914 28.5938 38.7153 28.2459 39.0136 27.7996C39.3118 27.3532 39.471 26.8284 39.471 26.2916C39.4698 25.5721 39.1835 24.8824 38.6747 24.3736C38.166 23.8649 37.4763 23.5785 36.7568 23.5774V23.5774ZM36.7568 27.0944C36.598 27.0944 36.4428 27.0473 36.3108 26.9591C36.1787 26.8709 36.0758 26.7455 36.0151 26.5988C35.9543 26.4521 35.9384 26.2907 35.9694 26.135C36.0004 25.9793 36.0768 25.8362 36.1891 25.724C36.3014 25.6117 36.4444 25.5352 36.6001 25.5042C36.7559 25.4733 36.9173 25.4892 37.064 25.5499C37.2107 25.6107 37.3361 25.7136 37.4243 25.8456C37.5125 25.9776 37.5596 26.1328 37.5596 26.2916C37.5605 26.3973 37.5404 26.5022 37.5005 26.6C37.4605 26.6978 37.4014 26.7867 37.3266 26.8615C37.2519 26.9362 37.163 26.9953 37.0651 27.0353C36.9673 27.0753 36.8625 27.0954 36.7568 27.0944V27.0944ZM13.1985 11.5163C13.287 11.6066 13.3925 11.6785 13.509 11.7277C13.6255 11.7769 13.7506 11.8025 13.877 11.803V11.803C14.1304 11.8012 14.3734 11.7019 14.5556 11.5259L19.1525 6.92889C19.241 6.84041 19.3112 6.73536 19.3591 6.61976C19.407 6.50415 19.4316 6.38024 19.4316 6.25511C19.4316 6.12998 19.407 6.00607 19.3591 5.89046C19.3112 5.77486 19.241 5.66981 19.1525 5.58133C19.0641 5.49285 18.959 5.42266 18.8434 5.37478C18.7278 5.32689 18.6039 5.30225 18.4788 5.30225C18.3536 5.30225 18.2297 5.32689 18.1141 5.37478C17.9985 5.42266 17.8935 5.49285 17.805 5.58133L13.8866 9.49975L11.9847 7.56921C11.8073 7.38925 11.5656 7.28714 11.3129 7.28535C11.0602 7.28356 10.8171 7.38223 10.6372 7.55966C10.4572 7.73709 10.3551 7.97874 10.3533 8.23146C10.3515 8.48417 10.4502 8.72725 10.6276 8.90721L13.1985 11.5163Z" fill="#083863"/>
</svg>
