<svg width="38" height="38" viewBox="0 0 38 38" fill="none" xmlns="http://www.w3.org/2000/svg">
<g clip-path="url(#clip0_230_3119)">
<path d="M32.9499 25.3547L29.7846 34.1065C29.197 35.7283 27.6574 36.8096 25.9298 36.8096H21.3463C20.7273 36.8096 20.124 36.6137 19.6265 36.2454L17.8479 34.937C17.3504 34.5687 16.7471 34.3728 16.1281 34.3728H13.7031V24.2617L15.4347 24.2578C16.1477 24.2578 16.7862 23.8739 17.1936 23.2863C17.6637 22.6007 18.2239 22.0875 18.8547 21.7154C19.4776 21.3471 19.8497 20.6733 19.8497 19.9486V16.6147C19.8497 15.6354 20.7272 14.8636 21.687 15.0321C21.828 15.0596 22.8858 15.2554 23.779 16.9792C24.2687 17.9233 24.4802 18.9889 24.4802 20.0544V20.5206C24.4802 20.975 24.3392 21.4137 24.0806 21.7859L23.9357 21.9897H30.5915C32.331 21.9895 33.5455 23.7172 32.9499 25.3547Z" fill="#FDDC8D"/>
<path opacity="0.15" d="M32.9498 25.3547L29.7846 34.1065C29.1969 35.7283 27.6574 36.8096 25.9297 36.8096H23.8848C25.6124 36.8096 27.1519 35.7284 27.7396 34.1065L30.905 25.3548C31.5004 23.7173 30.286 21.9896 28.5466 21.9896H30.5915C32.3309 21.9895 33.5454 23.7172 32.9498 25.3547Z" fill="black"/>
<path d="M13.7043 24.4475V34.1841C13.7043 35.3344 12.7717 36.267 11.6213 36.267H0.587158V22.3645H11.6213C12.7717 22.3645 13.7043 23.2971 13.7043 24.4475Z" fill="#7BDD9D"/>
<path opacity="0.5" d="M2.56939 22.3657H0.587158V36.2651H2.56939V22.3657Z" fill="white"/>
<path opacity="0.15" d="M13.7031 24.4459V34.1849C13.7031 35.3328 12.7707 36.2651 11.6229 36.2651H9.77771C10.9294 36.2651 11.8618 35.3327 11.8618 34.1849V24.4459C11.8618 23.2981 10.9294 22.3657 9.77771 22.3657H11.6229C12.7707 22.3657 13.7031 23.2981 13.7031 24.4459Z" fill="black"/>
<path d="M22.0532 1.69593L22.8903 4.27206C22.9882 4.57339 23.269 4.77749 23.5859 4.77749H26.2946C27.0032 4.77749 27.2978 5.68414 26.7246 6.10066L24.5332 7.6928C24.2768 7.87901 24.1696 8.20921 24.2675 8.51054L25.1045 11.0867C25.3235 11.7605 24.5522 12.3209 23.979 11.9044L21.7876 10.3123C21.5313 10.126 21.1841 10.126 20.9278 10.3123L18.7364 11.9044C18.1632 12.3209 17.3919 11.7605 17.6109 11.0867L18.4479 8.51054C18.5458 8.20921 18.4386 7.87901 18.1822 7.6928L15.9908 6.10066C15.4176 5.68422 15.7122 4.77749 16.4208 4.77749H19.1295C19.4463 4.77749 19.7272 4.57346 19.8251 4.27206L20.6622 1.69593C20.881 1.02209 21.8343 1.02209 22.0532 1.69593ZM9.81665 9.36613L10.4383 11.2795C10.5036 11.4804 10.6908 11.6164 10.902 11.6164H12.9138C13.3861 11.6164 13.5826 12.2209 13.2004 12.4985L11.5728 13.6811C11.4019 13.8052 11.3304 14.0253 11.3957 14.2262L12.0173 16.1396C12.1633 16.5888 11.6491 16.9623 11.267 16.6847L9.63934 15.5022C9.46842 15.378 9.237 15.378 9.06615 15.5022L7.43854 16.6847C7.05638 16.9623 6.5422 16.5888 6.68818 16.1396L7.30984 14.2262C7.37515 14.0253 7.30361 13.8052 7.13268 13.6811L5.50529 12.4985C5.12313 12.2208 5.31952 11.6164 5.79192 11.6164H7.80369C8.01492 11.6164 8.20217 11.4803 8.26741 11.2794L8.88907 9.36606C9.03513 8.91689 9.67066 8.91689 9.81665 9.36613ZM33.8261 9.36613L34.4478 11.2795C34.5131 11.4804 34.7003 11.6164 34.9115 11.6164H36.9233C37.3956 11.6164 37.592 12.2209 37.2099 12.4985L35.5823 13.6811C35.4114 13.8052 35.3399 14.0253 35.4051 14.2262L36.0268 16.1396C36.1728 16.5888 35.6586 16.9623 35.2764 16.6847L33.6488 15.5022C33.4779 15.378 33.2465 15.378 33.0756 15.5022L31.448 16.6847C31.0658 16.9623 30.5517 16.5888 30.6976 16.1396L31.3193 14.2262C31.3846 14.0253 31.3131 13.8052 31.1421 13.6811L29.5145 12.4985C29.1324 12.2209 29.3288 11.6164 29.8012 11.6164H31.8129C32.0242 11.6164 32.2114 11.4804 32.2766 11.2795L32.8983 9.36613C33.0446 8.91689 33.6801 8.91689 33.8261 9.36613Z" fill="#EFEFEF"/>
<path opacity="0.15" d="M23.587 4.77595H22.4391C22.1218 4.77595 21.8436 4.57222 21.7457 4.2706L20.9074 1.69677C20.8799 1.60666 20.8369 1.53222 20.7859 1.46565C21.119 1.03473 21.8632 1.11311 22.0552 1.69677L22.8897 4.2706C22.9876 4.57222 23.2697 4.77595 23.587 4.77595ZM24.2686 8.5093L25.103 11.0871C25.3224 11.7609 24.5507 12.3211 23.9787 11.9058L23.8181 11.7884C23.9747 11.6121 24.0492 11.3574 23.9591 11.0871L23.1207 8.50938C23.0227 8.20775 23.1324 7.87867 23.3871 7.69453L25.577 6.10009C26.1528 5.68483 25.8551 4.77595 25.1499 4.77595H26.2939C27.0029 4.77595 27.2968 5.68483 26.7248 6.10009L24.5349 7.69453C24.2764 7.87859 24.1707 8.20768 24.2686 8.5093ZM10.902 11.6159H9.75414C9.54648 11.6159 9.35848 11.4788 9.29191 11.279L8.77869 9.70415L8.88838 9.3672C9.03333 8.91669 9.67191 8.91669 9.81686 9.3672L10.4398 11.2789C10.5024 11.4788 10.6905 11.6159 10.902 11.6159ZM11.5719 13.6804C11.4034 13.8058 11.329 14.0252 11.3956 14.225L12.0185 16.1406C12.1634 16.5872 11.6502 16.9633 11.2664 16.6852L10.8785 16.4031C10.902 16.3207 10.902 16.2307 10.8706 16.1406L10.2478 14.225C10.1851 14.0252 10.2556 13.8058 10.428 13.6804L12.0537 12.4974C12.4377 12.2192 12.2418 11.6159 11.7678 11.6159H12.9156C13.3857 11.6159 13.5816 12.2193 13.2016 12.4974L11.5719 13.6804ZM34.9125 11.6159H33.7646C33.5531 11.6159 33.365 11.4788 33.3024 11.279L32.7892 9.70415L32.8989 9.3672C33.0438 8.91669 33.6785 8.91669 33.8274 9.3672L34.4463 11.2789C34.5129 11.4788 34.701 11.6159 34.9125 11.6159ZM35.5824 13.6804C35.4101 13.8058 35.3395 14.0252 35.4061 14.225L36.0251 16.1406C36.174 16.5872 35.6568 16.9633 35.2768 16.6852L34.889 16.4031C34.9125 16.3207 34.9125 16.2307 34.8812 16.1406L34.2583 14.225C34.1956 14.0252 34.2661 13.8058 34.4345 13.6804L36.0642 12.4974C36.4442 12.2192 36.2484 11.6159 35.7783 11.6159H36.9222C37.3962 11.6159 37.5921 12.2193 37.2082 12.4974L35.5824 13.6804Z" fill="black"/>
<path d="M30.5914 21.5977H24.6323C24.7871 21.2617 24.872 20.8977 24.872 20.5215C24.8401 20.1688 25.0749 18.6228 24.1271 16.7972C23.2091 15.0296 22.0808 14.7053 21.7567 14.6479C20.562 14.4374 19.4592 15.3848 19.4592 16.6136V19.9489C19.4592 20.539 19.1516 21.0868 18.6566 21.3787C17.9554 21.7925 17.3545 22.3588 16.8706 23.0622C16.5183 23.5742 15.9943 23.8679 15.4327 23.8679L14.0249 23.8681C13.7631 22.7826 12.7862 21.9727 11.6213 21.9727H0.587161C0.370813 21.9727 0.195435 22.148 0.195435 22.3644V36.267C0.195435 36.4834 0.370813 36.6588 0.587161 36.6588H11.6213C12.7856 36.6588 13.7621 35.8496 14.0245 34.7646H16.128C16.6699 34.7646 17.184 34.9332 17.6156 35.2526L19.3934 36.5603C19.96 36.9795 20.6353 37.2013 21.3463 37.2013H25.9297C27.8139 37.2013 29.5111 36.0113 30.1529 34.2398L33.3181 25.4887C34.0067 23.5943 32.6069 21.5977 30.5914 21.5977ZM11.6213 35.8752H0.978888V22.7562H11.6213C12.5537 22.7562 13.3126 23.5148 13.3126 24.4473V34.1839C13.3126 35.1164 12.5537 35.8752 11.6213 35.8752ZM32.5814 25.2214L29.4159 33.9729C28.8862 35.4353 27.4851 36.4178 25.9296 36.4178H21.3462C20.8043 36.4178 20.2902 36.2492 19.8586 35.9298L18.0807 34.6221C17.5142 34.2029 16.8389 33.9811 16.1279 33.9811H14.0961V24.6516L15.4326 24.6514C16.2438 24.6514 17.0228 24.2233 17.5159 23.5064C17.9408 22.8891 18.444 22.414 19.0546 22.0536C19.7875 21.6215 20.2427 20.815 20.2427 19.9489V16.6136C20.2427 15.883 20.8942 15.2907 21.6204 15.4196C21.7876 15.449 22.6598 15.6717 23.4317 17.1584C24.2411 18.7169 24.0649 20.2517 24.0886 20.5215C24.0886 21.4349 23.5164 21.7742 22.4429 23.4241C22.1338 23.862 21.9705 24.3767 21.9705 24.9127V26.7364C21.9705 27.7278 21.164 28.5343 20.1726 28.5343C19.9562 28.5343 19.7809 28.7096 19.7809 28.926C19.7809 29.1423 19.9562 29.3177 20.1726 29.3177C21.596 29.3177 22.754 28.1597 22.754 26.7363V24.9126C22.754 24.5394 22.8679 24.1807 23.083 23.8758L24.1377 22.3812H30.5915C32.0624 22.3812 33.0846 23.8384 32.5814 25.2214ZM15.7605 6.41751L17.9519 8.00958C18.0712 8.09642 18.121 8.24886 18.0752 8.38928L17.2382 10.9655C17.085 11.4369 17.2451 11.9297 17.646 12.2211C18.0473 12.5127 18.5654 12.5124 18.9667 12.2213L21.1581 10.6293C21.2774 10.5421 21.438 10.5424 21.5573 10.6293L23.7487 12.2213C24.1497 12.5127 24.668 12.5127 25.0693 12.2211C25.4703 11.9298 25.6303 11.4369 25.4772 10.9655L24.6401 8.38943C24.5946 8.24901 24.6441 8.09642 24.7637 8.0095L26.9551 6.41744C27.356 6.12613 27.5161 5.63317 27.3629 5.16166C27.2097 4.69029 26.7904 4.38562 26.2948 4.38562H23.5861C23.4384 4.38562 23.3086 4.29129 23.2631 4.15095L22.426 1.57474C22.2728 1.10337 21.8537 0.798854 21.3581 0.798706C21.3579 0.798706 21.3579 0.798706 21.3579 0.798706C20.8622 0.798706 20.4428 1.10345 20.2896 1.57474L19.4525 4.15095C19.407 4.29137 19.2771 4.38562 19.1296 4.38562H16.4208C15.9251 4.38562 15.5059 4.69037 15.3527 5.16166C15.1993 5.63324 15.3596 6.1262 15.7605 6.41751ZM16.0975 5.40391C16.1155 5.34884 16.1917 5.16923 16.4206 5.16923H19.1294C19.6174 5.16923 20.0466 4.85743 20.1975 4.3932L21.0346 1.81699C21.1054 1.5993 21.2997 1.58231 21.3576 1.58231C21.4156 1.58253 21.61 1.5993 21.6806 1.81699L22.5176 4.3932C22.6686 4.85743 23.0978 5.16923 23.5859 5.16923H26.2945C26.5235 5.16923 26.5996 5.34884 26.6176 5.40391C26.6354 5.45898 26.6794 5.64913 26.4943 5.78361L24.3029 7.37568C23.908 7.66238 23.7442 8.167 23.8947 8.63146L24.7317 11.2077C24.8025 11.4254 24.6552 11.5533 24.6085 11.5874C24.5612 11.6214 24.3942 11.7222 24.2091 11.5874L22.0177 9.9953C21.623 9.70837 21.0922 9.70837 20.6973 9.9953L18.5059 11.5874C18.3208 11.7222 18.1534 11.6216 18.1066 11.5874C18.0599 11.5533 17.9126 11.4254 17.9834 11.2077L18.8204 8.63146C18.9711 8.16737 18.8072 7.66275 18.4124 7.37568L16.221 5.78361C16.0357 5.6489 16.0797 5.45898 16.0975 5.40391ZM5.27496 12.8154L6.90258 13.9979C6.93628 14.0224 6.95023 14.0655 6.93739 14.105L6.31573 16.0182C6.1958 16.3876 6.3213 16.7734 6.63539 17.0016C6.94734 17.2281 7.35227 17.2313 7.66889 17.0014L9.29636 15.8189C9.33005 15.7942 9.37518 15.7942 9.40925 15.8189L11.0367 17.0014C11.3506 17.2293 11.7565 17.2296 12.0704 17.0016C12.3845 16.7734 12.51 16.3874 12.3901 16.0182L11.7684 14.1052C11.7556 14.0654 11.7696 14.0223 11.8032 13.9978L13.4309 12.8153C13.7447 12.5871 13.8702 12.2011 13.7503 11.8319C13.6304 11.4629 13.3021 11.2244 12.914 11.2244H10.9021C10.8604 11.2244 10.8239 11.1978 10.811 11.1582L10.1894 9.24473C10.0694 8.87571 9.74115 8.63717 9.35306 8.63717C8.96475 8.63717 8.63648 8.87571 8.51654 9.24473L7.89489 11.1582C7.88205 11.1978 7.84553 11.2244 7.80382 11.2244H5.79182C5.40373 11.2244 5.07546 11.4629 4.95553 11.8319C4.83559 12.2012 4.96109 12.5872 5.27496 12.8154ZM5.70076 12.0742C5.72221 12.008 5.77461 12.008 5.79182 12.008H7.80375C8.1859 12.008 8.52204 11.7639 8.64004 11.4004L9.2617 9.48698C9.28983 9.39895 9.41548 9.39858 9.44398 9.48698L10.0656 11.4004C10.1836 11.7639 10.5198 12.008 10.9019 12.008H12.914C12.9312 12.008 12.9836 12.008 13.0051 12.0742C13.0194 12.1182 13.0077 12.1543 12.9703 12.1815L11.3426 13.364C11.0337 13.5886 10.9053 13.9836 11.0232 14.3472L11.6449 16.2604C11.6592 16.3044 11.6475 16.3403 11.6101 16.3677C11.5534 16.4083 11.5112 16.3777 11.4974 16.3675L9.86977 15.185C9.56102 14.9607 9.14555 14.9604 8.83605 15.185L7.20844 16.3677C7.19411 16.3774 7.1524 16.4083 7.096 16.3677C7.05852 16.3406 7.04686 16.3044 7.06119 16.2604L7.68284 14.347C7.8007 13.9835 7.6723 13.5885 7.36341 13.3639L5.73557 12.1815C5.69809 12.1543 5.68643 12.1182 5.70076 12.0742ZM37.7596 11.832C37.6397 11.463 37.3114 11.2244 36.9233 11.2244H34.9115C34.8698 11.2244 34.8331 11.1976 34.8203 11.1582L34.1987 9.2448C34.0787 8.87579 33.7505 8.63725 33.3624 8.63725C32.9743 8.63725 32.646 8.87579 32.5261 9.2448L31.9042 11.1582C31.8914 11.1979 31.8548 11.2244 31.8131 11.2244H29.8014C29.4133 11.2244 29.085 11.463 28.9651 11.832C28.8451 12.201 28.9704 12.587 29.2844 12.8154L30.9122 13.9979C30.9459 14.0224 30.9596 14.0655 30.9469 14.105L30.3252 16.0182C30.2053 16.3874 30.3308 16.7734 30.6449 17.0016C30.9576 17.229 31.3632 17.2304 31.6786 17.0014L33.3062 15.8189C33.3399 15.7944 33.385 15.7944 33.4186 15.8189L35.0463 17.0014C35.36 17.2293 35.7659 17.2296 36.08 17.0016C36.3941 16.7734 36.5196 16.3874 36.3996 16.0182L35.7778 14.1048C35.7649 14.0654 35.7789 14.0223 35.8128 13.9978L37.4403 12.8153C37.7541 12.5872 37.8796 12.2012 37.7596 11.832ZM36.9796 12.1815L35.3523 13.364C35.0428 13.5886 34.9144 13.9838 35.0327 14.3472L35.6543 16.2604C35.6687 16.3044 35.657 16.3403 35.6195 16.3677C35.5631 16.4083 35.5204 16.3777 35.5069 16.3675L33.8792 15.185C33.5701 14.9604 33.1546 14.9604 32.8455 15.185L31.2179 16.3675C31.2041 16.3777 31.1619 16.4083 31.1052 16.3677C31.0678 16.3403 31.0561 16.3044 31.0704 16.2604L31.6921 14.347C31.8101 13.9834 31.6815 13.5883 31.3726 13.3639L29.745 12.1816C29.7077 12.1543 29.6959 12.1181 29.7102 12.0742C29.7318 12.008 29.7842 12.008 29.8014 12.008H31.8132C32.1954 12.008 32.5315 11.7639 32.6495 11.4004L33.2714 9.48698C33.2767 9.4705 33.2928 9.42077 33.3625 9.42077C33.4321 9.42077 33.4482 9.4705 33.4535 9.48698L34.0754 11.4006C34.1936 11.7639 34.5297 12.008 34.9117 12.008H36.9235C36.9407 12.008 36.9931 12.008 37.0145 12.0742C37.0287 12.1182 37.0171 12.1543 36.9796 12.1815Z" fill="black"/>
</g>
<defs>
<clipPath id="clip0_230_3119">
<rect width="38" height="38" fill="white"/>
</clipPath>
</defs>
</svg>
