<svg width="44" height="38" viewBox="0 0 44 38" fill="none" xmlns="http://www.w3.org/2000/svg">
<path d="M43.7 34.2H0V38H43.7V34.2Z" fill="#7C7D7D"/>
<path d="M43.7 34.2V36.1H3.80002C3.29611 36.1 2.81284 35.8998 2.45652 35.5435C2.1002 35.1871 1.90002 34.7039 1.90002 34.2H43.7Z" fill="#919191"/>
<path d="M16.15 22.8H4.75V34.2H16.15V22.8Z" fill="#A87E6B"/>
<path d="M16.15 22.8V32.3H12.35C10.8383 32.3 9.38847 31.6995 8.31952 30.6306C7.25056 29.5616 6.65002 28.1118 6.65002 26.6V22.8H16.15Z" fill="#BE927C"/>
<path d="M21.85 11.4H10.45V22.8H21.85V11.4Z" fill="#A87E6B"/>
<path d="M21.85 11.4V20.9H18.05C16.5382 20.9 15.0884 20.2995 14.0195 19.2305C12.9505 18.1616 12.35 16.7118 12.35 15.2V11.4H21.85Z" fill="#BE927C"/>
<path d="M33.25 11.4H21.85V22.8H33.25V11.4Z" fill="#A87E6B"/>
<path d="M33.25 11.4V20.9H29.45C27.9383 20.9 26.4884 20.2995 25.4195 19.2305C24.3505 18.1616 23.75 16.7118 23.75 15.2V11.4H33.25Z" fill="#BE927C"/>
<path d="M27.55 0H16.15V11.4H27.55V0Z" fill="#A87E6B"/>
<path d="M27.55 0V9.5H23.75C22.2383 9.5 20.7885 8.89947 19.7195 7.83051C18.6506 6.76155 18.05 5.31173 18.05 3.8V0H27.55Z" fill="#BE927C"/>
<path d="M27.55 22.8H16.15V34.2H27.55V22.8Z" fill="#A87E6B"/>
<path d="M27.55 22.8V32.3H23.75C22.2383 32.3 20.7885 31.6995 19.7195 30.6306C18.6506 29.5616 18.05 28.1118 18.05 26.6V22.8H27.55Z" fill="#BE927C"/>
<path d="M38.95 22.8H27.55V34.2H38.95V22.8Z" fill="#A87E6B"/>
<path d="M38.95 22.8V32.3H35.15C33.6382 32.3 32.1884 31.6995 31.1194 30.6306C30.0505 29.5616 29.45 28.1118 29.45 26.6V22.8H38.95Z" fill="#BE927C"/>
<path d="M12.35 22.8H8.55005V26.6H12.35V22.8Z" fill="#F6CCAF"/>
<path d="M23.75 22.8H19.95V26.6H23.75V22.8Z" fill="#F6CCAF"/>
<path d="M35.15 22.8H31.35V26.6H35.15V22.8Z" fill="#F6CCAF"/>
<path d="M18.05 11.4H14.25V15.2H18.05V11.4Z" fill="#F6CCAF"/>
<path d="M18.05 11.4V14.25C17.2941 14.25 16.5692 13.9498 16.0347 13.4153C15.5002 12.8808 15.2 12.1559 15.2 11.4H18.05Z" fill="#FFDEC7"/>
<path d="M29.45 11.4H25.65V15.2H29.45V11.4Z" fill="#F6CCAF"/>
<path d="M23.75 0H19.95V3.8H23.75V0Z" fill="#F6CCAF"/>
<path d="M23.75 0V2.85C22.9941 2.85 22.2692 2.54973 21.7347 2.01525C21.2003 1.48078 20.9 0.755867 20.9 0H23.75ZM29.45 11.4V14.25C28.6941 14.25 27.9692 13.9497 27.4347 13.4153C26.9003 12.8808 26.6 12.1559 26.6 11.4H29.45ZM12.35 22.8V25.65C11.5941 25.65 10.8692 25.3497 10.3347 24.8153C9.80027 24.2808 9.5 23.5559 9.5 22.8H12.35ZM23.75 22.8V25.65C22.9941 25.65 22.2692 25.3497 21.7347 24.8153C21.2003 24.2808 20.9 23.5559 20.9 22.8H23.75ZM35.15 22.8V25.65C34.3941 25.65 33.6692 25.3497 33.1347 24.8153C32.6003 24.2808 32.3 23.5559 32.3 22.8H35.15Z" fill="#FFDEC7"/>
<path d="M22.8 8.55002H20.9C20.6481 8.55002 20.4065 8.44994 20.2283 8.27178C20.0501 8.09362 19.95 7.85198 19.95 7.60002C19.95 7.34807 20.0501 7.10643 20.2283 6.92827C20.4065 6.75011 20.6481 6.65002 20.9 6.65002H22.8C23.052 6.65002 23.2936 6.75011 23.4718 6.92827C23.65 7.10643 23.75 7.34807 23.75 7.60002C23.75 7.85198 23.65 8.09362 23.4718 8.27178C23.2936 8.44994 23.052 8.55002 22.8 8.55002ZM17.1 19.95H15.2C14.9481 19.95 14.7065 19.8499 14.5283 19.6718C14.3501 19.4936 14.25 19.252 14.25 19C14.25 18.7481 14.3501 18.5064 14.5283 18.3283C14.7065 18.1501 14.9481 18.05 15.2 18.05H17.1C17.352 18.05 17.5936 18.1501 17.7718 18.3283C17.95 18.5064 18.05 18.7481 18.05 19C18.05 19.252 17.95 19.4936 17.7718 19.6718C17.5936 19.8499 17.352 19.95 17.1 19.95ZM28.5 19.95H26.6C26.3481 19.95 26.1065 19.8499 25.9283 19.6718C25.7501 19.4936 25.65 19.252 25.65 19C25.65 18.7481 25.7501 18.5064 25.9283 18.3283C26.1065 18.1501 26.3481 18.05 26.6 18.05H28.5C28.752 18.05 28.9936 18.1501 29.1718 18.3283C29.35 18.5064 29.45 18.7481 29.45 19C29.45 19.252 29.35 19.4936 29.1718 19.6718C28.9936 19.8499 28.752 19.95 28.5 19.95ZM11.4 31.35H9.50005C9.24809 31.35 9.00646 31.2499 8.8283 31.0718C8.65014 30.8936 8.55005 30.652 8.55005 30.4C8.55005 30.1481 8.65014 29.9064 8.8283 29.7283C9.00646 29.5501 9.24809 29.45 9.50005 29.45H11.4C11.652 29.45 11.8936 29.5501 12.0718 29.7283C12.25 29.9064 12.35 30.1481 12.35 30.4C12.35 30.652 12.25 30.8936 12.0718 31.0718C11.8936 31.2499 11.652 31.35 11.4 31.35ZM22.8 31.35H20.9C20.6481 31.35 20.4065 31.2499 20.2283 31.0718C20.0501 30.8936 19.95 30.652 19.95 30.4C19.95 30.1481 20.0501 29.9064 20.2283 29.7283C20.4065 29.5501 20.6481 29.45 20.9 29.45H22.8C23.052 29.45 23.2936 29.5501 23.4718 29.7283C23.65 29.9064 23.75 30.1481 23.75 30.4C23.75 30.652 23.65 30.8936 23.4718 31.0718C23.2936 31.2499 23.052 31.35 22.8 31.35ZM34.2 31.35H32.3C32.0481 31.35 31.8065 31.2499 31.6283 31.0718C31.4501 30.8936 31.35 30.652 31.35 30.4C31.35 30.1481 31.4501 29.9064 31.6283 29.7283C31.8065 29.5501 32.0481 29.45 32.3 29.45H34.2C34.452 29.45 34.6936 29.5501 34.8718 29.7283C35.05 29.9064 35.15 30.1481 35.15 30.4C35.15 30.652 35.05 30.8936 34.8718 31.0718C34.6936 31.2499 34.452 31.35 34.2 31.35Z" fill="#C6C3D8"/>
</svg>
