<svg width="34" height="34" viewBox="0 0 34 34" fill="none" xmlns="http://www.w3.org/2000/svg">
<path d="M24.5 24.4998H18.5625C18.2425 24.4998 17.91 24.3417 17.5575 24.1742C17.2475 24.0267 16.9275 23.8748 16.6875 23.8748H15.4375C15.265 23.8748 15.125 23.7348 15.125 23.5623C15.125 23.3898 15.265 23.2498 15.4375 23.2498H16.6875C17.0681 23.2498 17.4531 23.4329 17.8256 23.6098C18.1 23.7398 18.3831 23.8748 18.5625 23.8748H24.5C24.8444 23.8748 25.125 23.5948 25.125 23.2498C25.125 22.9048 24.8444 22.6248 24.5 22.6248C24.3275 22.6248 24.1875 22.4848 24.1875 22.3123C24.1875 22.1398 24.3275 21.9998 24.5 21.9998H24.8125C25.1569 21.9998 25.4375 21.7198 25.4375 21.3748C25.4375 21.0298 25.1569 20.7498 24.8125 20.7498C24.64 20.7498 24.5 20.6098 24.5 20.4373C24.5 20.2648 24.64 20.1248 24.8125 20.1248H25.125C25.4694 20.1248 25.75 19.8448 25.75 19.4998C25.75 19.1548 25.4694 18.8748 25.125 18.8748H24.8125C24.64 18.8748 24.5 18.7348 24.5 18.5623C24.5 18.3898 24.64 18.2498 24.8125 18.2498C25.1569 18.2498 25.4375 17.9698 25.4375 17.6248C25.4375 17.2798 25.1569 16.9998 24.8125 16.9998H18.8725C18.7763 16.9998 18.6856 16.9554 18.6262 16.8798C18.5669 16.8042 18.5462 16.7054 18.5694 16.6117C18.5719 16.5992 18.8725 15.3773 18.8725 13.9161C18.8725 12.2904 18.2231 12.0442 17.6244 12.0067V14.1873C17.6244 14.2354 17.6131 14.2836 17.5912 14.3273L16.2944 16.9204C16.2169 17.0742 16.03 17.1379 15.875 17.0604C15.7206 16.9829 15.6581 16.7954 15.735 16.6411L17 14.1136V11.6873C17 11.5148 17.14 11.3748 17.3125 11.3748C17.9662 11.3748 19.4981 11.3748 19.4981 13.9154C19.4981 14.9648 19.355 15.8804 19.2594 16.3748H24.8125C25.5019 16.3748 26.0625 16.9354 26.0625 17.6248C26.0625 17.9304 25.9519 18.2111 25.7688 18.4286C26.1319 18.6479 26.375 19.0454 26.375 19.4998C26.375 19.9542 26.1319 20.3517 25.7688 20.5711C25.9519 20.7886 26.0625 21.0692 26.0625 21.3748C26.0625 21.8292 25.8194 22.2267 25.4563 22.4461C25.6394 22.6636 25.75 22.9442 25.75 23.2498C25.75 23.9392 25.1894 24.4998 24.5 24.4998Z" fill="#EF651E"/>
<path d="M15.4694 24.4998H13.25V23.8748H15.125V18.2498H13.25V17.6248H15.4694C15.6425 17.6248 15.75 17.7542 15.75 17.9261V24.1761C15.75 24.3498 15.6425 24.4998 15.4694 24.4998Z" fill="#EF651E"/>
<path d="M7.96948 25.7498C7.79698 25.7498 7.65698 25.6098 7.65698 25.4373C7.65698 25.2648 7.79698 25.1248 7.96948 25.1248H13.2501V18.2498H7.96948C7.79698 18.2498 7.65698 18.1098 7.65698 17.9373C7.65698 17.7648 7.79698 17.6248 7.96948 17.6248H13.5945C13.7676 17.6248 13.8751 17.7542 13.8751 17.9261V25.4261C13.8751 25.5998 13.7676 25.7498 13.5945 25.7498H7.96948ZM25.1251 20.7498H22.0001C21.3107 20.7498 20.7501 20.1892 20.7501 19.4998C20.7501 18.8104 21.3107 18.2498 22.0001 18.2498H25.1251C25.8145 18.2498 26.3751 18.8104 26.3751 19.4998C26.3751 20.1892 25.8145 20.7498 25.1251 20.7498ZM22.0001 18.8748C21.6557 18.8748 21.3751 19.1548 21.3751 19.4998C21.3751 19.8448 21.6557 20.1248 22.0001 20.1248H25.1251C25.4695 20.1248 25.7501 19.8448 25.7501 19.4998C25.7501 19.1548 25.4695 18.8748 25.1251 18.8748H22.0001ZM24.5001 24.4998H22.6251C21.9357 24.4998 21.3751 23.9392 21.3751 23.2498C21.3751 22.5604 21.9357 21.9998 22.6251 21.9998H24.5001C25.1895 21.9998 25.7501 22.5604 25.7501 23.2498C25.7501 23.9392 25.1895 24.4998 24.5001 24.4998ZM22.6251 22.6248C22.2807 22.6248 22.0001 22.9048 22.0001 23.2498C22.0001 23.5948 22.2807 23.8748 22.6251 23.8748H24.5001C24.8445 23.8748 25.1251 23.5948 25.1251 23.2498C25.1251 22.9048 24.8445 22.6248 24.5001 22.6248H22.6251Z" fill="#EF651E"/>
<path d="M24.8124 22.6248H22.3124C21.6231 22.6248 21.0624 22.0642 21.0624 21.3748C21.0624 20.6854 21.6231 20.1248 22.3124 20.1248H24.8124C25.5018 20.1248 26.0624 20.6854 26.0624 21.3748C26.0624 22.0642 25.5018 22.6248 24.8124 22.6248ZM22.3124 20.7498C21.9681 20.7498 21.6874 21.0298 21.6874 21.3748C21.6874 21.7198 21.9681 21.9998 22.3124 21.9998H24.8124C25.1568 21.9998 25.4374 21.7198 25.4374 21.3748C25.4374 21.0298 25.1568 20.7498 24.8124 20.7498H22.3124ZM24.8124 18.8748H22.3124C21.6231 18.8748 21.0624 18.3142 21.0624 17.6248C21.0624 16.9354 21.6231 16.3748 22.3124 16.3748H24.8124C25.5018 16.3748 26.0624 16.9354 26.0624 17.6248C26.0624 18.3142 25.5018 18.8748 24.8124 18.8748ZM22.3124 16.9998C21.9681 16.9998 21.6874 17.2798 21.6874 17.6248C21.6874 17.9698 21.9681 18.2498 22.3124 18.2498H24.8124C25.1568 18.2498 25.4374 17.9698 25.4374 17.6248C25.4374 17.2798 25.1568 16.9998 24.8124 16.9998H22.3124ZM18.0049 21.4086C17.8631 21.4086 17.7343 21.3117 17.7012 21.1667C17.6618 20.9986 17.7662 20.8311 17.9343 20.7911C18.6593 20.6217 19.1862 19.9998 19.3443 19.1279C19.5043 18.2442 19.2299 17.3423 18.6918 16.9829C18.5481 16.8873 18.5093 16.6929 18.6049 16.5498C18.6999 16.4061 18.8937 16.3673 19.0381 16.4629C19.7981 16.9698 20.1681 18.0854 19.9593 19.2392C19.7556 20.3642 19.0518 21.1717 18.0768 21.3998C18.0524 21.4061 18.0287 21.4086 18.0049 21.4086Z" fill="#EF651E"/>
<path d="M19.5905 10.6617C19.6874 10.6617 19.7824 10.6173 19.8437 10.5329L20.5787 9.52169C20.6805 9.38169 20.6493 9.18669 20.5099 9.08544C20.3699 8.98419 20.1743 9.01419 20.0737 9.15419L19.3387 10.1654C19.2368 10.3054 19.268 10.5004 19.4074 10.6017C19.4624 10.6423 19.5262 10.6617 19.5905 10.6617ZM20.3149 11.8523C20.358 11.9848 20.4805 12.0686 20.6124 12.0686C20.6443 12.0686 20.6768 12.0636 20.7087 12.0536L21.8974 11.6673C22.0618 11.6142 22.1518 11.4379 22.098 11.2736C22.0443 11.1086 21.8674 11.0192 21.7043 11.0729L20.5155 11.4592C20.3518 11.5117 20.2618 11.6879 20.3149 11.8523ZM15.5599 13.3973C15.5068 13.2323 15.3299 13.1429 15.1662 13.1967L13.9774 13.5829C13.813 13.6361 13.723 13.8123 13.7768 13.9767C13.8199 14.1092 13.9424 14.1929 14.0743 14.1929C14.1062 14.1929 14.1387 14.1879 14.1705 14.1779L15.3593 13.7917C15.523 13.7379 15.613 13.5617 15.5599 13.3973ZM21.8974 13.5829L20.7087 13.1967C20.5443 13.1429 20.3687 13.2329 20.3149 13.3973C20.2618 13.5617 20.3518 13.7379 20.5155 13.7911L21.7043 14.1773C21.7362 14.1879 21.7687 14.1923 21.8005 14.1923C21.9324 14.1923 22.0549 14.1086 22.098 13.9761C22.1518 13.8123 22.0618 13.6361 21.8974 13.5829ZM13.9774 11.6667L15.1662 12.0529C15.198 12.0636 15.2305 12.0679 15.2624 12.0679C15.3943 12.0679 15.5168 11.9842 15.5599 11.8517C15.613 11.6873 15.523 11.5111 15.3593 11.4579L14.1705 11.0717C14.0068 11.0186 13.8305 11.1079 13.7768 11.2723C13.723 11.4373 13.813 11.6136 13.9774 11.6667ZM15.8018 9.15419C15.7005 9.01357 15.5049 8.98419 15.3655 9.08544C15.2262 9.18669 15.1949 9.38232 15.2968 9.52169L16.0318 10.5329C16.093 10.6173 16.188 10.6617 16.2849 10.6617C16.3487 10.6617 16.413 10.6423 16.468 10.6017C16.6074 10.5004 16.6387 10.3048 16.5368 10.1654L15.8018 9.15419ZM17.9374 8.24982C17.7649 8.24982 17.6249 8.38982 17.6249 8.56232V9.81232C17.6249 9.98482 17.7649 10.1248 17.9374 10.1248C18.1099 10.1248 18.2499 9.98482 18.2499 9.81232V8.56232C18.2499 8.38982 18.1099 8.24982 17.9374 8.24982Z" fill="#EF651E"/>
<path d="M17 -0.000183105C13.6377 -0.000183105 10.3509 0.996849 7.55531 2.86483C4.75968 4.73282 2.58075 7.38785 1.29406 10.4942C0.007366 13.6005 -0.329291 17.0187 0.326658 20.3163C0.982607 23.614 2.6017 26.6431 4.97919 29.0206C7.35668 31.3981 10.3858 33.0172 13.6835 33.6732C16.9811 34.3291 20.3993 33.9925 23.5056 32.7058C26.612 31.4191 29.267 29.2401 31.135 26.4445C33.003 23.6489 34 20.3621 34 16.9998C34 12.4911 32.2089 8.16712 29.0208 4.979C25.8327 1.79088 21.5087 -0.000183105 17 -0.000183105V-0.000183105ZM17 32.8665C13.8619 32.8665 10.7942 31.9359 8.18496 30.1925C5.5757 28.449 3.54203 25.971 2.34112 23.0717C1.14021 20.1725 0.825996 16.9822 1.43821 13.9044C2.05043 10.8266 3.56159 7.99938 5.78058 5.78039C7.99957 3.5614 10.8267 2.05024 13.9046 1.43802C16.9824 0.825805 20.1727 1.14002 23.0719 2.34093C25.9712 3.54184 28.4492 5.57551 30.1927 8.18477C31.9361 10.794 32.8667 13.8617 32.8667 16.9998C32.8667 21.2079 31.195 25.2437 28.2194 28.2192C25.2439 31.1948 21.2081 32.8665 17 32.8665Z" fill="#EF651E"/>
</svg>
