<svg width="32" height="32" viewBox="0 0 32 32" fill="none" xmlns="http://www.w3.org/2000/svg">
<path d="M16.0003 0.0624084C12.8481 0.0624084 9.76676 0.997127 7.14585 2.74836C4.52494 4.4996 2.48219 6.98869 1.27592 9.90089C0.0696498 12.8131 -0.245966 16.0176 0.368986 19.1092C0.983938 22.2007 2.50184 25.0405 4.73074 27.2694C6.95964 29.4983 9.79943 31.0162 12.891 31.6312C15.9826 32.2461 19.1871 31.9305 22.0993 30.7242C25.0115 29.518 27.5006 27.4752 29.2518 24.8543C31.003 22.2334 31.9378 19.152 31.9378 15.9999C31.9378 11.773 30.2586 7.71926 27.2698 4.73039C24.2809 1.74153 20.2271 0.0624084 16.0003 0.0624084ZM16.0003 30.8749C13.0583 30.8749 10.1823 30.0025 7.73614 28.368C5.28996 26.7335 3.3834 24.4104 2.25754 21.6923C1.13169 18.9743 0.837115 15.9834 1.41107 13.0979C1.98503 10.2125 3.40173 7.562 5.48204 5.48169C7.56234 3.40139 10.2128 1.98468 13.0983 1.41073C15.9838 0.836772 18.9746 1.13135 21.6927 2.2572C24.4107 3.38305 26.7339 5.28962 28.3684 7.7358C30.0029 10.182 30.8753 13.0579 30.8753 15.9999C30.8753 19.945 29.3081 23.7285 26.5185 26.5181C23.7289 29.3077 19.9453 30.8749 16.0003 30.8749Z" fill="#1B2A44"/>
<path d="M23.204 8.79616C23.1045 8.69722 22.9699 8.64168 22.8295 8.64168C22.6892 8.64168 22.5545 8.69722 22.455 8.79616L16.0003 15.2508L9.55091 8.79616C9.44928 8.70913 9.31855 8.66365 9.18485 8.66881C9.05115 8.67398 8.92432 8.72941 8.8297 8.82402C8.73509 8.91863 8.67967 9.04546 8.6745 9.17916C8.66934 9.31287 8.71481 9.44359 8.80185 9.54522L15.2512 15.9999L8.79654 22.4493C8.74092 22.4969 8.69576 22.5555 8.66387 22.6214C8.63198 22.6873 8.61406 22.7591 8.61124 22.8323C8.60841 22.9055 8.62074 22.9784 8.64745 23.0466C8.67415 23.1148 8.71467 23.1767 8.76644 23.2284C8.81821 23.2802 8.88013 23.3207 8.9483 23.3474C9.01647 23.3741 9.08943 23.3865 9.16259 23.3836C9.23576 23.3808 9.30755 23.3629 9.37346 23.331C9.43937 23.2991 9.49797 23.254 9.5456 23.1983L16.0003 16.749L22.4497 23.2037C22.5513 23.2907 22.682 23.3362 22.8157 23.331C22.9494 23.3258 23.0763 23.2704 23.1709 23.1758C23.2655 23.0812 23.3209 22.9544 23.3261 22.8207C23.3312 22.687 23.2858 22.5562 23.1987 22.4546L16.7493 15.9999L23.204 9.55054C23.2538 9.50115 23.2934 9.44239 23.3203 9.37765C23.3473 9.31292 23.3612 9.24348 23.3612 9.17335C23.3612 9.10322 23.3473 9.03378 23.3203 8.96904C23.2934 8.9043 23.2538 8.84555 23.204 8.79616Z" fill="#1B2A44"/>
</svg>
