<svg width="16" height="16" viewBox="0 0 16 16" fill="none" xmlns="http://www.w3.org/2000/svg">
<path d="M13.3921 12.375L15.8921 1.375C15.929 1.19468 15.8613 1.00871 15.7178 0.896057C15.5683 0.778745 15.3618 0.760589 15.1921 0.849995L1.19209 7.85C1.17534 7.85894 0.950466 7.98381 0.928466 8.23831C0.914654 8.398 0.985373 8.55497 1.11206 8.65834C1.15819 8.69597 1.2119 8.72316 1.26803 8.743L4.96709 10.05L7.16709 14.95C7.24209 15.125 7.41709 15.225 7.59209 15.25H7.61709C7.79209 15.25 7.96709 15.15 8.04209 15L9.99209 11.725L12.6921 12.7C12.7243 12.7121 12.9182 12.7811 13.1241 12.6784C13.3133 12.5841 13.3791 12.4115 13.3921 12.375ZM11.9171 3.55L5.36709 9.125L2.66709 8.175L11.9171 3.55ZM10.8171 5.8L7.26709 9.925C7.19209 10.025 7.14209 10.125 7.14209 10.25V12.425L5.99209 9.9L10.8171 5.8ZM8.14209 12.925V11.05L9.04209 11.375L8.14209 12.925ZM12.5421 11.575L8.44209 10.075L14.4671 3.075L12.5421 11.575Z" fill="#5AC8FA"/>
</svg>
