<svg width="19" height="14" viewBox="0 0 19 14" fill="none" xmlns="http://www.w3.org/2000/svg">
<path d="M6.55099 14C6.43506 14.0004 6.3202 13.9754 6.21299 13.9263C6.10578 13.8772 6.00834 13.8051 5.92625 13.7141L0.509264 7.69505C0.343573 7.51077 0.250488 7.26083 0.250488 7.00022C0.250488 6.73961 0.343573 6.48967 0.509264 6.30539C0.674956 6.12111 0.899682 6.01758 1.134 6.01758C1.36833 6.01758 1.59305 6.12111 1.75875 6.30539L6.55099 11.6281L16.7422 0.287808C16.8243 0.196562 16.9217 0.124181 17.0289 0.074799C17.1361 0.0254167 17.2509 0 17.367 0C17.483 0 17.5979 0.0254167 17.7051 0.074799C17.8123 0.124181 17.9097 0.196562 17.9917 0.287808C18.0738 0.379055 18.1388 0.48738 18.1832 0.606599C18.2276 0.725819 18.2505 0.853597 18.2505 0.982639C18.2505 1.11168 18.2276 1.23946 18.1832 1.35868C18.1388 1.4779 18.0738 1.58622 17.9917 1.67747L7.17059 13.7112C7.08851 13.8023 6.99107 13.8744 6.88386 13.9235C6.77665 13.9725 6.66178 13.9976 6.54585 13.9971L6.55099 14Z" fill="#65B07F"/>
</svg>
