<svg width="58" height="24" viewBox="0 0 58 24" fill="none" xmlns="http://www.w3.org/2000/svg">
<path d="M49.3139 5.87605C48.972 5.64089 48.5668 5.51493 48.1518 5.5148H43.4954V0.703003C43.4954 0.526883 43.4255 0.357975 43.3009 0.233439C43.1764 0.108903 43.0075 0.0389404 42.8314 0.0389404H17.508C17.3319 0.0389404 17.163 0.108903 17.0384 0.233439C16.9139 0.357975 16.8439 0.526883 16.8439 0.703003V10.6985C16.7736 10.8063 16.7362 10.9323 16.7362 11.061C16.7362 11.1898 16.7736 11.3158 16.8439 11.4236V20.2344C16.8439 20.3216 16.8611 20.408 16.8945 20.4885C16.9279 20.5691 16.9768 20.6423 17.0384 20.704C17.1001 20.7656 17.1733 20.8145 17.2539 20.8479C17.3344 20.8813 17.4208 20.8985 17.508 20.8985H22.6877C22.8761 21.7622 23.3542 22.5356 24.0428 23.0901C24.7313 23.6447 25.5888 23.947 26.4728 23.947C27.3569 23.947 28.2144 23.6447 28.9029 23.0901C29.5915 22.5356 30.0696 21.7622 30.258 20.8985H44.2697C44.4581 21.7622 44.9363 22.5356 45.6248 23.0901C46.3133 23.6447 47.1708 23.947 48.0549 23.947C48.939 23.947 49.7964 23.6447 50.485 23.0901C51.1735 22.5356 51.6516 21.7622 51.84 20.8985H55.507C56.0457 20.8961 56.562 20.6822 56.9445 20.3029C57.3271 19.9235 57.5453 19.4091 57.5523 18.8704V15.5753C57.5533 15.1694 57.4325 14.7725 57.2057 14.4358C54.572 10.5125 51.9901 7.71417 49.3139 5.87605ZM42.1673 1.36707V10.3983H18.1721V1.36707H42.1673ZM18.1734 11.7264H42.1673V19.5703H30.3164C30.3164 19.5557 30.3164 19.5425 30.3164 19.5278C30.3164 19.5132 30.3085 19.4747 30.3045 19.4482C30.3005 19.4216 30.2925 19.3778 30.2859 19.3419C30.2793 19.306 30.2753 19.2901 30.27 19.2649C30.2646 19.2396 30.254 19.1945 30.2461 19.1586C30.2381 19.1228 30.2341 19.1095 30.2275 19.0843C30.2208 19.059 30.2075 19.0125 30.1969 18.978L30.1757 18.9089C30.1637 18.8718 30.1518 18.8359 30.1385 18.7987L30.1159 18.7363C30.1013 18.6964 30.0853 18.6553 30.0681 18.6154L30.0482 18.5663C30.0251 18.5132 30.0012 18.4605 29.9764 18.4082V18.4016C29.9499 18.3458 29.9215 18.2909 29.8914 18.2369L29.8795 18.217C29.8543 18.1705 29.8277 18.1253 29.8011 18.0842L29.7732 18.0403C29.7507 18.0045 29.7281 17.9673 29.7042 17.9314L29.6696 17.8823L29.6006 17.784L29.5621 17.7336L29.4904 17.6419L29.4479 17.5914L29.3735 17.5051L29.3283 17.456L29.25 17.3736L29.2035 17.3271L29.1185 17.2461L29.072 17.2036L28.979 17.1239L28.9352 17.0868L28.8303 17.0044L28.7931 16.9765C28.7488 16.9438 28.7045 16.9119 28.6603 16.8809L28.6483 16.8729C28.5474 16.8047 28.4429 16.741 28.3349 16.6817L28.299 16.6631L28.1742 16.5993L28.1237 16.5754L28.0095 16.5236L27.9511 16.4997L27.8395 16.4559L27.7771 16.4333L27.6668 16.3961L27.6004 16.3762L27.4889 16.3443L27.4225 16.3271L27.3069 16.3005L27.2405 16.2859L27.121 16.2646L27.0439 16.25L26.9111 16.2341L26.8527 16.2275L26.7013 16.2155H26.6628C26.5977 16.2155 26.53 16.2155 26.4689 16.2155C26.4078 16.2155 26.3361 16.2155 26.275 16.2155H26.2364L26.085 16.2275L26.0266 16.2341L25.8938 16.25L25.8287 16.2607L25.7092 16.2819L25.6428 16.2965L25.5272 16.3231L25.4608 16.3403L25.3493 16.3722L25.2829 16.3921L25.1726 16.4293L25.1102 16.4519L25 16.4957L24.9415 16.5196L24.8273 16.5714L24.7768 16.5953L24.652 16.6591L24.6161 16.6777C24.509 16.7361 24.4045 16.7999 24.3027 16.8689L24.2907 16.8769C24.2456 16.9079 24.2013 16.9398 24.1579 16.9725L24.1207 17.0004L24.0158 17.0828L23.972 17.12L23.879 17.1996L23.8325 17.2421L23.7475 17.3232L23.7011 17.3696L23.6227 17.452L23.5775 17.5011L23.5032 17.5875L23.4607 17.6379L23.3889 17.7296L23.3504 17.78L23.2814 17.8783L23.2468 17.9275C23.2229 17.9633 23.2004 17.9992 23.1778 18.0364L23.1499 18.0802C23.1233 18.124 23.0968 18.1692 23.0715 18.213L23.0596 18.2343C23.0304 18.2883 23.002 18.3432 22.9746 18.3989V18.4056C22.9498 18.4578 22.9259 18.5105 22.9029 18.5636L22.8829 18.6128C22.867 18.6526 22.8511 18.6925 22.8351 18.7336L22.8125 18.7961C22.7993 18.8332 22.7873 18.8691 22.7753 18.9063L22.7541 18.9753C22.7435 19.0112 22.7328 19.0457 22.7236 19.0816C22.7143 19.1175 22.7116 19.1307 22.705 19.156C22.6983 19.1812 22.6877 19.2264 22.6811 19.2622C22.6744 19.2981 22.6704 19.314 22.6651 19.3393C22.6598 19.3645 22.6518 19.4096 22.6465 19.4455C22.6412 19.4814 22.6386 19.4986 22.6346 19.5252C22.6306 19.5518 22.6346 19.5531 22.6346 19.5677H18.1721L18.1734 11.7264ZM26.4755 22.633C25.972 22.633 25.4797 22.4837 25.061 22.2039C24.6423 21.9242 24.316 21.5265 24.1233 21.0613C23.9306 20.5961 23.8802 20.0842 23.9784 19.5903C24.0767 19.0964 24.3191 18.6428 24.6752 18.2867C25.0313 17.9306 25.4849 17.6881 25.9788 17.5899C26.4727 17.4917 26.9846 17.5421 27.4498 17.7348C27.915 17.9275 28.3127 18.2538 28.5924 18.6725C28.8722 19.0912 29.0215 19.5834 29.0215 20.087C29.0208 20.762 28.7524 21.4092 28.275 21.8865C27.7977 22.3638 27.1505 22.6323 26.4755 22.633V22.633ZM48.0575 22.633C47.5534 22.6359 47.0597 22.489 46.6391 22.211C46.2185 21.933 45.8899 21.5364 45.6949 21.0715C45.5 20.6065 45.4475 20.0941 45.5441 19.5993C45.6406 19.1045 45.882 18.6494 46.2374 18.2919C46.5929 17.9344 47.0466 17.6904 47.5408 17.591C48.0351 17.4916 48.5478 17.5411 49.0138 17.7334C49.4799 17.9257 49.8784 18.252 50.1588 18.671C50.4392 19.09 50.5889 19.5828 50.5889 20.087C50.5889 20.1282 50.5889 20.168 50.5889 20.2092C50.5862 20.2441 50.5862 20.2792 50.5889 20.3141C50.5317 20.9465 50.2404 21.5348 49.7722 21.9637C49.304 22.3926 48.6925 22.6313 48.0575 22.633ZM56.2282 18.8678C56.225 19.0561 56.1482 19.2358 56.0141 19.3681C55.88 19.5005 55.6994 19.575 55.511 19.5757H51.8958C51.7747 18.6745 51.341 17.8445 50.6703 17.2306C49.9995 16.6167 49.1345 16.2579 48.2262 16.2168H48.2156C48.1625 16.2168 48.1093 16.2168 48.0562 16.2168H48.0416C47.1045 16.2178 46.1994 16.5579 45.4936 17.1744C44.7878 17.7908 44.329 18.6419 44.202 19.5703H43.4954V6.84292H48.1518C48.2993 6.84452 48.4429 6.89083 48.5636 6.97574C51.0976 8.71558 53.5653 11.3997 56.1073 15.1822C56.1863 15.3 56.228 15.4388 56.2268 15.5807L56.2282 18.8678ZM12.833 12.5446H3.40332C3.2272 12.5446 3.05829 12.6145 2.93376 12.7391C2.80922 12.8636 2.73926 13.0325 2.73926 13.2086C2.73926 13.3847 2.80922 13.5537 2.93376 13.6782C3.05829 13.8027 3.2272 13.8727 3.40332 13.8727H12.833C13.0091 13.8727 13.178 13.8027 13.3026 13.6782C13.4271 13.5537 13.4971 13.3847 13.4971 13.2086C13.4971 13.0325 13.4271 12.8636 13.3026 12.7391C13.178 12.6145 13.0091 12.5446 12.833 12.5446ZM12.833 18.9315H3.40332C3.2272 18.9315 3.05829 19.0015 2.93376 19.126C2.80922 19.2506 2.73926 19.4195 2.73926 19.5956C2.73926 19.7717 2.80922 19.9406 2.93376 20.0651C3.05829 20.1897 3.2272 20.2596 3.40332 20.2596H12.833C13.0091 20.2596 13.178 20.1897 13.3026 20.0651C13.4271 19.9406 13.4971 19.7717 13.4971 19.5956C13.4971 19.4195 13.4271 19.2506 13.3026 19.126C13.178 19.0015 13.0091 18.9315 12.833 18.9315V18.9315ZM10.1768 16.7242C10.1768 16.5481 10.1068 16.3791 9.98226 16.2546C9.85772 16.1301 9.68882 16.0601 9.51269 16.0601H1.0127C0.836575 16.0601 0.667668 16.1301 0.543132 16.2546C0.418596 16.3791 0.348633 16.5481 0.348633 16.7242C0.348633 16.9003 0.418596 17.0692 0.543132 17.1937C0.667668 17.3183 0.836575 17.3882 1.0127 17.3882H9.51269C9.68882 17.3882 9.85772 17.3183 9.98226 17.1937C10.1068 17.0692 10.1768 16.9003 10.1768 16.7242Z" fill="#5E5E5E"/>
</svg>
