<svg width="17" height="16" viewBox="0 0 17 16" fill="none" xmlns="http://www.w3.org/2000/svg">
<path d="M14.7173 11.8963C14.4404 11.6902 14.0489 11.7478 13.8428 12.0247C13.7295 12.177 13.6083 12.3264 13.4824 12.4687C13.2538 12.7273 13.2781 13.1223 13.5367 13.351C13.6556 13.4561 13.8033 13.5077 13.9504 13.5077C14.1233 13.5077 14.2954 13.4364 14.4189 13.2967C14.568 13.1281 14.7115 12.9512 14.8457 12.7707C15.0518 12.4938 14.9943 12.1023 14.7173 11.8963Z" fill="#FF8900"/>
<path d="M15.7625 8.96517C15.4255 8.89177 15.0923 9.10567 15.0189 9.44292C14.9785 9.62845 14.9297 9.81433 14.8737 9.99545C14.7718 10.3253 14.9566 10.6752 15.2864 10.7771C15.3478 10.7961 15.4099 10.8051 15.4711 10.8051C15.7379 10.8051 15.9851 10.6328 16.068 10.3644C16.1344 10.1495 16.1924 9.92889 16.2403 9.7088C16.3137 9.37155 16.0998 9.03861 15.7625 8.96517Z" fill="#FF8900"/>
<path d="M11.7089 13.8979C11.5429 13.9906 11.3711 14.0771 11.1982 14.1552C10.8836 14.2973 10.7438 14.6675 10.8859 14.9821C10.9902 15.2132 11.2177 15.35 11.4558 15.35C11.5418 15.35 11.6292 15.3321 11.7127 15.2944C11.9178 15.2018 12.1215 15.0992 12.3182 14.9893C12.6196 14.8211 12.7276 14.4403 12.5592 14.1389C12.391 13.8376 12.0103 13.7297 11.7089 13.8979Z" fill="#FF8900"/>
<path d="M7.76713 3V7.74113L5.47528 10.0329C5.23122 10.277 5.23122 10.6728 5.47528 10.9168C5.59735 11.0389 5.75725 11.0999 5.91725 11.0999C6.07719 11.0999 6.23716 11.0388 6.35922 10.9168L8.8341 8.44194C8.95128 8.32475 9.01713 8.16575 9.01713 8V3C9.01713 2.65481 8.73731 2.375 8.39213 2.375C8.04694 2.375 7.76713 2.65481 7.76713 3Z" fill="#FF8900"/>
<path d="M15.7671 1.34375C15.4219 1.34375 15.1421 1.62356 15.1421 1.96875V3.70425C13.6873 1.42275 11.1468 0 8.39209 0C6.25521 0 4.24625 0.832156 2.73521 2.34313C1.22425 3.85416 0.39209 5.86312 0.39209 8C0.39209 10.1369 1.22425 12.1458 2.73521 13.6569C4.24625 15.1678 6.25521 16 8.39209 16C8.39737 16 8.40246 15.9993 8.40771 15.9992C8.41296 15.9993 8.41806 16 8.42334 16C8.64859 16 8.87606 15.9905 9.0995 15.9718C9.44346 15.943 9.69896 15.6408 9.67018 15.2968C9.64134 14.9529 9.33956 14.6973 8.99518 14.7262C8.80631 14.742 8.61393 14.75 8.42334 14.75C8.41806 14.75 8.41296 14.7507 8.40771 14.7508C8.40246 14.7507 8.39737 14.75 8.39209 14.75C4.67012 14.75 1.64209 11.722 1.64209 8C1.64209 4.27803 4.67012 1.25 8.39209 1.25C10.7908 1.25 12.997 2.52853 14.2026 4.5625H12.4841C12.1389 4.5625 11.8591 4.84231 11.8591 5.1875C11.8591 5.53269 12.1389 5.8125 12.4841 5.8125H14.3921C14.7727 5.8125 15.1288 5.70553 15.432 5.52022C15.4515 5.50909 15.4702 5.49712 15.4881 5.48422C16.0321 5.12637 16.3921 4.51084 16.3921 3.8125V1.96875C16.3921 1.62356 16.1123 1.34375 15.7671 1.34375Z" fill="#FF8900"/>
</svg>
