<svg width="34" height="38" viewBox="0 0 34 38" fill="none" xmlns="http://www.w3.org/2000/svg">
<path d="M15.64 24.15L14.68 8.85H18.43L17.5 24.15H15.64ZM14.77 30V26.43H18.34V30H14.77Z" fill="#A30F0F"/>
<path d="M17 2C13.6377 2 10.3509 2.99703 7.55531 4.86502C4.75968 6.733 2.58075 9.38804 1.29406 12.4944C0.007366 15.6007 -0.329291 19.0189 0.326658 22.3165C0.982607 25.6142 2.6017 28.6433 4.97919 31.0208C7.35668 33.3983 10.3858 35.0174 13.6835 35.6733C16.9811 36.3293 20.3993 35.9926 23.5056 34.7059C26.612 33.4193 29.267 31.2403 31.135 28.4447C33.003 25.6491 34 22.3623 34 19C34 14.4913 32.2089 10.1673 29.0208 6.97918C25.8327 3.79107 21.5087 2 17 2ZM17 34.8667C13.8619 34.8667 10.7942 33.9361 8.18496 32.1926C5.5757 30.4492 3.54203 27.9712 2.34112 25.0719C1.14021 22.1727 0.825996 18.9824 1.43821 15.9046C2.05043 12.8267 3.56159 9.99956 5.78058 7.78057C7.99957 5.56158 10.8267 4.05043 13.9046 3.43821C16.9824 2.82599 20.1727 3.1402 23.0719 4.34111C25.9712 5.54202 28.4492 7.57569 30.1927 10.1849C31.9361 12.7942 32.8667 15.8619 32.8667 19C32.8667 23.2081 31.195 27.2438 28.2194 30.2194C25.2439 33.195 21.2081 34.8667 17 34.8667Z" fill="#A30F0F"/>
</svg>
