<svg width="45" height="29" viewBox="0 0 45 29" fill="none" xmlns="http://www.w3.org/2000/svg">
<mask id="path-1-inside-1_1651_3529" fill="white">
<path d="M1.8791 2.71617C1.88877 1.26308 3.19746 -0.016275 4.65205 0.00302928C11.8318 -0.00223554 19.0119 -0.0031129 26.1923 0.00039698C26.5738 -0.00665263 26.9528 0.0636844 27.3063 0.207148C27.6598 0.350611 27.9804 0.564215 28.2488 0.835023C28.5171 1.10583 28.7277 1.42821 28.8676 1.78263C29.0075 2.13704 29.0739 2.51613 29.0628 2.89692C29.061 8.1635 29.0602 13.4304 29.0602 18.6975C29.0856 19.2398 28.5776 19.7049 28.0406 19.6557C19.1646 19.6566 10.2882 19.6569 1.41152 19.6566C1.0793 19.6505 0.711914 19.6996 0.423633 19.4978C0.310938 19.4206 0.215228 19.3213 0.142379 19.2058C0.0695307 19.0904 0.0210796 18.9613 0 18.8265L0 18.594C0.0420074 18.3684 0.16142 18.1645 0.337704 18.0174C0.513988 17.8702 0.736126 17.7889 0.965918 17.7876C1.75781 17.7709 2.55059 17.799 3.34248 17.7762C3.46736 17.7678 3.58928 17.7345 3.70105 17.6783C3.81282 17.6221 3.91216 17.544 3.9932 17.4488C4.07424 17.3536 4.13533 17.2431 4.17286 17.1239C4.2104 17.0047 4.22361 16.8792 4.21172 16.7548C4.17744 16.2775 3.71777 15.9142 3.25195 15.9151C2.46094 15.8993 1.66904 15.9273 0.878027 15.9037C0.425391 15.8905 0.0500977 15.5027 0 15.0622V14.8744C0.0237782 14.707 0.0915135 14.5488 0.196328 14.4159C0.301142 14.2831 0.439302 14.1803 0.596777 14.118C1.00635 13.9759 1.4502 14.0636 1.87471 14.039C1.8791 10.265 1.86943 6.49016 1.8791 2.71617Z"/>
</mask>
<path d="M4.65205 0.00302928L4.63878 1.00304L4.65278 1.00303L4.65205 0.00302928ZM26.1923 0.00039698L26.1918 1.0004L26.2013 1.0004L26.2108 1.00023L26.1923 0.00039698ZM29.0628 2.89692L28.0632 2.86771L28.0628 2.88215L28.0628 2.89659L29.0628 2.89692ZM29.0602 18.6975H28.0602V18.721L28.0613 18.7445L29.0602 18.6975ZM28.0406 19.6557L28.1317 18.6599L28.0862 18.6557L28.0405 18.6557L28.0406 19.6557ZM1.41152 19.6566L1.39304 20.6564L1.40226 20.6566H1.41149L1.41152 19.6566ZM0.423633 19.4978L0.997166 18.6785L0.988636 18.6727L0.423633 19.4978ZM0 18.8265H-1V18.9042L-0.987993 18.981L0 18.8265ZM0 18.594L-0.983096 18.4109L-1 18.5017V18.594H0ZM0.965918 17.7876L0.971821 18.7876L0.979395 18.7875L0.986966 18.7874L0.965918 17.7876ZM3.34248 17.7762L3.37128 18.7758L3.39035 18.7752L3.40938 18.7739L3.34248 17.7762ZM4.21172 16.7548L3.21429 16.8264L3.21513 16.8382L3.21626 16.85L4.21172 16.7548ZM3.25195 15.9151L3.23199 16.9149L3.24291 16.9151L3.25384 16.9151L3.25195 15.9151ZM0.878027 15.9037L0.907965 14.9041L0.907094 14.9041L0.878027 15.9037ZM0 15.0622H-1V15.1188L-0.993595 15.1752L0 15.0622ZM0 14.8744L-0.990066 14.7338L-1 14.8037V14.8744H0ZM0.596777 14.118L0.268893 13.1733L0.248757 13.1803L0.228938 13.1881L0.596777 14.118ZM1.87471 14.039L1.93249 15.0374L2.87361 14.9829L2.87471 14.0402L1.87471 14.039ZM2.87908 2.72282C2.88504 1.82663 3.73697 0.990973 4.63878 1.00294L4.66532 -0.996883C2.65795 -1.02352 0.892497 0.699522 0.879124 2.70951L2.87908 2.72282ZM4.65278 1.00303C11.8322 0.997764 19.0118 0.996887 26.1918 1.0004L26.1928 -0.999603C19.012 -1.00311 11.8315 -1.00224 4.65132 -0.99697L4.65278 1.00303ZM26.2108 1.00023C26.4572 0.995673 26.702 1.04111 26.9302 1.13374L27.6823 -0.719447C27.2036 -0.913741 26.6904 -1.00898 26.1738 -0.999432L26.2108 1.00023ZM26.9302 1.13374C27.1584 1.22638 27.3654 1.36425 27.5385 1.53893L28.9591 0.131114C28.5954 -0.23582 28.1611 -0.525153 27.6823 -0.719447L26.9302 1.13374ZM27.5385 1.53893C27.7116 1.71361 27.8473 1.92146 27.9375 2.14984L29.7977 1.41541C29.608 0.934959 29.3227 0.498053 28.9591 0.131114L27.5385 1.53893ZM27.9375 2.14984C28.0276 2.37822 28.0704 2.62244 28.0632 2.86771L30.0624 2.92613C30.0775 2.40982 29.9874 1.89587 29.7977 1.41541L27.9375 2.14984ZM28.0628 2.89659C28.061 8.16327 28.0602 13.4303 28.0602 18.6975H30.0602C30.0602 13.4305 30.061 8.16372 30.0628 2.89726L28.0628 2.89659ZM28.0613 18.7445C28.0599 18.7155 28.0662 18.6928 28.0719 18.68C28.0769 18.6686 28.0808 18.6656 28.0796 18.6668C28.0784 18.6679 28.0789 18.6666 28.0848 18.6645C28.0916 18.662 28.108 18.6577 28.1317 18.6599L27.9495 20.6516C29.0642 20.7536 30.1143 19.8258 30.0591 18.6506L28.0613 18.7445ZM28.0405 18.6557C19.1645 18.6566 10.2882 18.6569 1.41156 18.6566L1.41149 20.6566C10.2882 20.6569 19.1646 20.6566 28.0407 20.6557L28.0405 18.6557ZM1.43001 18.6568C1.33018 18.6549 1.21489 18.6572 1.15066 18.6576C1.07198 18.6581 1.02141 18.657 0.981766 18.6538C0.903814 18.6475 0.938532 18.6375 0.997135 18.6786L-0.14987 20.317C0.197015 20.5598 0.559565 20.6262 0.820432 20.6473C1.01749 20.6633 1.34983 20.6556 1.39304 20.6564L1.43001 18.6568ZM0.988636 18.6727L0.988052 18.6721L-0.703293 19.7395C-0.557672 19.9703 -0.366427 20.1687 -0.14137 20.3229L0.988636 18.6727ZM0.988052 18.6721L0.987993 18.672L-0.987993 18.981C-0.945827 19.2507 -0.84892 19.5088 -0.703293 19.7395L0.988052 18.6721ZM1 18.8265V18.594H-1V18.8265H1ZM0.983096 18.7771C0.982462 18.7805 0.980718 18.7832 0.978575 18.785L-0.303166 17.2497C-0.657877 17.5458 -0.898447 17.9564 -0.983096 18.4109L0.983096 18.7771ZM0.978575 18.785C0.976467 18.7868 0.974069 18.7876 0.971821 18.7876L0.960014 16.7876C0.498183 16.7903 0.0515099 16.9536 -0.303166 17.2497L0.978575 18.785ZM0.986966 18.7874C1.36697 18.7794 1.74859 18.7821 2.14894 18.7842C2.54416 18.7862 2.95615 18.7877 3.37128 18.7758L3.31368 16.7766C2.93692 16.7874 2.55657 16.7863 2.15946 16.7842C1.76748 16.7821 1.35676 16.7791 0.944869 16.7878L0.986966 18.7874ZM3.40938 18.7739C3.6674 18.7566 3.9194 18.6879 4.15048 18.5716L3.25162 16.785C3.25916 16.7812 3.26731 16.779 3.27558 16.7784L3.40938 18.7739ZM4.15048 18.5716C4.38155 18.4554 4.58704 18.294 4.75474 18.0969L3.23165 16.8007C3.23728 16.7941 3.24409 16.7888 3.25162 16.785L4.15048 18.5716ZM4.75474 18.0969C4.92245 17.8999 5.04896 17.6711 5.1267 17.4242L3.21903 16.8236C3.2217 16.8151 3.22602 16.8073 3.23165 16.8007L4.75474 18.0969ZM5.1267 17.4242C5.20444 17.1773 5.23181 16.9173 5.20718 16.6596L3.21626 16.85C3.2154 16.841 3.21635 16.8321 3.21903 16.8236L5.1267 17.4242ZM5.20915 16.6832C5.13145 15.6012 4.15606 14.9134 3.25007 14.9151L3.25384 16.9151C3.24057 16.9151 3.23609 16.9127 3.23899 16.9138C3.24202 16.9149 3.24544 16.9171 3.24711 16.9185C3.24871 16.9198 3.24284 16.9155 3.23494 16.901C3.22633 16.8852 3.21666 16.8594 3.21429 16.8264L5.20915 16.6832ZM3.27192 14.9153C2.86094 14.9071 2.45077 14.9103 2.05972 14.9123C1.66349 14.9144 1.28383 14.9154 0.907965 14.9041L0.84809 16.9032C1.26324 16.9156 1.67503 16.9144 2.07026 16.9123C2.47067 16.9102 2.85195 16.9073 3.23199 16.9149L3.27192 14.9153ZM0.907094 14.9041C0.933941 14.9049 0.955433 14.9113 0.969306 14.9176C0.982275 14.9234 0.987664 14.9286 0.988304 14.9293C0.988873 14.9298 0.988703 14.9296 0.988934 14.9301C0.989251 14.9307 0.992172 14.9367 0.993595 14.9492L-0.993595 15.1752C-0.893865 16.0521 -0.157073 16.874 0.848961 16.9032L0.907094 14.9041ZM1 15.0622V14.8744H-1V15.0622H1ZM0.990066 15.015C0.988989 15.0226 0.985939 15.0296 0.981394 15.0353L-0.588739 13.7965C-0.802912 14.068 -0.941433 14.3913 -0.990066 14.7338L0.990066 15.015ZM0.981394 15.0353C0.976858 15.0411 0.971028 15.0454 0.964617 15.0479L0.228938 13.1881C-0.0924253 13.3152 -0.374575 13.5251 -0.588739 13.7965L0.981394 15.0353ZM0.924662 15.0627C0.967653 15.0478 1.0453 15.0335 1.22504 15.0344C1.34148 15.035 1.68566 15.0516 1.93249 15.0374L1.81693 13.0407C1.63925 13.051 1.54924 13.036 1.23523 13.0344C0.984538 13.0332 0.635472 13.0461 0.268893 13.1733L0.924662 15.0627ZM2.87471 14.0402C2.87911 10.259 2.86943 6.49398 2.8791 2.71873L0.879105 2.7136C0.86944 6.48635 0.879094 10.271 0.874708 14.0379L2.87471 14.0402Z" fill="#5E5E5E" mask="url(#path-1-inside-1_1651_3529)"/>
<path d="M36.9105 5.61625V6.11625C36.9806 6.11625 37.049 6.11596 37.1158 6.11567C37.5837 6.11363 37.9748 6.11193 38.3517 6.21518L38.3516 6.21527L38.3605 6.21752C38.8315 6.33736 39.2698 6.56073 39.6432 6.87125C40.0163 7.1816 40.3153 7.57115 40.5184 8.01145C41.7194 10.6428 42.918 13.2747 44.1143 15.9072C44.3299 16.3905 44.4603 16.9073 44.5 17.4348V21.7314C44.4485 22.1606 44.2867 22.5693 44.0301 22.9179C43.8147 23.2013 43.5368 23.4315 43.2178 23.5904C42.8979 23.7499 42.5454 23.8334 42.1878 23.8344L42.187 23.8344C41.636 23.8369 41.0863 23.8363 40.535 23.8358C40.4431 23.8357 40.3512 23.8356 40.2592 23.8355C40.0473 22.6424 39.4594 21.5433 38.5754 20.7019L38.5739 20.7005C38.0336 20.1906 37.398 19.792 36.7035 19.5277C36.0089 19.2633 35.2689 19.1383 34.5259 19.1597C33.7829 19.1812 33.0514 19.3487 32.3733 19.6527C32.0445 19.8001 31.7313 19.9782 31.4379 20.1842C31.4393 15.6487 31.4398 11.113 31.4393 6.57702H31.4393L31.4392 6.56815C31.4381 6.50904 31.449 6.4503 31.4712 6.39542C31.4933 6.34055 31.5263 6.29063 31.5683 6.24866C31.6103 6.20669 31.6603 6.17354 31.7154 6.15122C31.7706 6.1289 31.8297 6.11787 31.8893 6.11882L31.8893 6.11892L31.8991 6.11888C32.9327 6.11508 33.9647 6.11565 34.9982 6.11622C35.635 6.11657 36.2724 6.11692 36.9111 6.11625L36.9105 5.61625ZM36.9105 5.61625C36.2737 5.61692 35.637 5.61657 35.0003 5.61622C33.9658 5.61565 32.9315 5.61508 31.8973 5.61889L44.5702 15.7019C43.3734 13.0683 42.1743 10.4353 40.9729 7.80291C40.7386 7.29459 40.3935 6.84495 39.9629 6.48682C39.5322 6.12869 39.0269 5.87114 38.4838 5.73296C38.0359 5.61025 37.5707 5.61289 37.1096 5.6155C37.0431 5.61588 36.9768 5.61625 36.9105 5.61625ZM41.6422 13.5206L41.6422 13.5206L41.6392 13.5136C41.2682 12.6765 40.8866 11.8432 40.5064 11.0131C40.3905 10.7602 40.2748 10.5076 40.1596 10.2552C39.9753 9.85041 39.6809 9.5055 39.3101 9.25963C38.9393 9.01373 38.5069 8.87673 38.062 8.86413L38.062 8.86403L38.0519 8.86395C37.3986 8.85868 36.7344 8.85943 36.0729 8.86018C35.5295 8.86079 34.9879 8.8614 34.4557 8.85867L34.4557 8.85858L34.4464 8.85871C34.4296 8.85893 34.4105 8.85892 34.3893 8.8589C34.2257 8.85876 33.9397 8.85853 33.6779 8.96791C33.4016 9.08163 33.1671 9.27792 33.0067 9.53004C32.8483 9.77899 32.7698 10.0703 32.7816 10.3649C32.7818 10.769 32.7815 11.1737 32.7813 11.5788C32.7807 12.3948 32.7801 13.2121 32.7841 14.0283C32.7621 14.8486 33.4928 15.5167 34.2851 15.4745C34.7461 15.4747 35.2072 15.475 35.6684 15.4754C37.2218 15.4765 38.7762 15.4776 40.3303 15.4736C40.8328 15.4779 41.2502 15.1979 41.4921 14.8416C41.7349 14.484 41.8414 13.9893 41.6422 13.5206Z" stroke="#5E5E5E"/>
<path d="M3.6124 23.5691L3.61244 23.569L3.60418 23.5646C3.2342 23.3665 2.92471 23.0724 2.70825 22.7136C2.57957 22.5002 2.48659 22.2687 2.43185 22.028C3.41721 22.0275 4.40282 22.0275 5.3887 22.0278C5.07238 22.5889 4.85306 23.2008 4.74139 23.8377C4.31799 23.8235 3.93613 23.7503 3.6124 23.5691Z" stroke="#5E5E5E"/>
<path d="M15.2357 22.028C19.5049 22.0265 23.7741 22.0263 28.0433 22.0274L28.0597 22.0274L28.076 22.0264C28.162 22.0208 28.2479 22.0392 28.324 22.0796C28.4001 22.1199 28.4633 22.1806 28.5066 22.2546L28.5066 22.2547L28.5094 22.2593C28.5334 22.2994 28.5529 22.3601 28.5605 22.4739C28.5643 22.531 28.5647 22.5931 28.5641 22.6683C28.564 22.682 28.5639 22.6965 28.5637 22.7115C28.5632 22.7689 28.5625 22.835 28.5637 22.8993C28.5615 22.9795 28.5627 23.0601 28.5637 23.1289C28.5638 23.1382 28.5639 23.1472 28.564 23.1561C28.5652 23.2396 28.5654 23.3078 28.5618 23.3713C28.5546 23.4975 28.5335 23.5641 28.5056 23.609L28.5056 23.609L28.5029 23.6134C28.4581 23.6872 28.3937 23.7472 28.3166 23.7868L28.5453 24.2315L28.3166 23.7868C28.2396 23.8264 28.153 23.844 28.0665 23.8376L28.048 23.8362L28.0295 23.8362C23.9806 23.8354 19.9317 23.8351 15.8828 23.8353C15.7699 23.1997 15.5507 22.5888 15.2357 22.028Z" stroke="#5E5E5E"/>
<path d="M9.70812 22.0951C10.3265 21.9575 10.9733 22.0348 11.5416 22.3141C12.11 22.5935 12.5656 23.0582 12.8332 23.6312C13.1008 24.2041 13.1644 24.851 13.0135 25.4649C12.8626 26.0788 12.5062 26.623 12.0031 27.0073C11.4999 27.3916 10.8803 27.593 10.2468 27.5779C9.61327 27.5628 9.004 27.3322 8.51984 26.9243C8.0357 26.5165 7.70571 25.956 7.58429 25.3356C7.46292 24.7155 7.55723 24.0725 7.85171 23.513C8.04022 23.157 8.30372 22.846 8.62416 22.6012C8.94462 22.3564 9.3144 22.1837 9.70812 22.0951Z" stroke="#5E5E5E"/>
<path d="M37.4223 24.3131L37.4222 24.3132L37.4242 24.3232C37.6758 25.5761 36.9003 26.9496 35.6962 27.3886L35.6962 27.3885L35.688 27.3917C35.3321 27.5285 34.9518 27.5907 34.5707 27.5746C34.1896 27.5584 33.816 27.4641 33.473 27.2976C33.13 27.1311 32.8251 26.8959 32.5772 26.6068C32.3292 26.3177 32.1435 25.9808 32.0316 25.6171C31.9197 25.2534 31.884 24.8706 31.9266 24.4925C31.9692 24.1144 32.0893 23.7491 32.2794 23.4193C32.4696 23.0894 32.7256 22.8021 33.0318 22.5752C33.338 22.3483 33.6877 22.1867 34.0592 22.1005C34.4262 22.0155 34.8067 22.006 35.1776 22.0724C35.5485 22.1388 35.902 22.2798 36.2166 22.4868C36.5311 22.6939 36.8002 22.9625 37.0075 23.2765C37.2147 23.5904 37.3559 23.9431 37.4223 24.3131Z" stroke="#5E5E5E"/>
</svg>
