<svg width="45" height="29" viewBox="0 0 45 29" fill="none" xmlns="http://www.w3.org/2000/svg">
<g clip-path="url(#clip0_1651_1385)">
<path d="M1.8791 2.71617C1.88877 1.26308 3.19746 -0.016275 4.65205 0.00302928C11.8318 -0.00223554 19.0119 -0.0031129 26.1923 0.00039698C26.5738 -0.00665263 26.9528 0.0636844 27.3063 0.207148C27.6598 0.350611 27.9804 0.564215 28.2488 0.835023C28.5171 1.10583 28.7277 1.42821 28.8676 1.78263C29.0075 2.13704 29.0739 2.51613 29.0628 2.89692C29.061 8.1635 29.0602 13.4304 29.0602 18.6975C29.0856 19.2398 28.5776 19.7049 28.0406 19.6557C19.1646 19.6566 10.2882 19.6569 1.41152 19.6566C1.0793 19.6505 0.711914 19.6996 0.423633 19.4978C0.310938 19.4206 0.215228 19.3213 0.142379 19.2058C0.0695307 19.0904 0.0210796 18.9613 0 18.8265L0 18.594C0.0420074 18.3684 0.16142 18.1645 0.337704 18.0174C0.513988 17.8702 0.736126 17.7889 0.965918 17.7876C1.75781 17.7709 2.55059 17.799 3.34248 17.7762C3.46736 17.7678 3.58928 17.7345 3.70105 17.6783C3.81282 17.6221 3.91216 17.544 3.9932 17.4488C4.07424 17.3536 4.13533 17.2431 4.17286 17.1239C4.2104 17.0047 4.22361 16.8792 4.21172 16.7548C4.17744 16.2775 3.71777 15.9142 3.25195 15.9151C2.46094 15.8993 1.66904 15.9273 0.878027 15.9037C0.425391 15.8905 0.0500977 15.5027 0 15.0622V14.8744C0.0237782 14.707 0.0915135 14.5488 0.196328 14.4159C0.301142 14.2831 0.439302 14.1803 0.596777 14.118C1.00635 13.9759 1.4502 14.0636 1.87471 14.039C1.8791 10.265 1.86943 6.49016 1.8791 2.71617Z" fill="#F3903A"/>
<path d="M30.9393 6.57708C30.937 6.45078 30.9602 6.32531 31.0075 6.20816C31.0549 6.091 31.1253 5.98455 31.2147 5.89514C31.3041 5.80574 31.4106 5.7352 31.5279 5.68774C31.6451 5.64028 31.7708 5.61687 31.8973 5.61889C33.5681 5.61274 35.2389 5.61801 36.9105 5.61625C37.4361 5.61625 37.9714 5.59256 38.4838 5.73296C39.0269 5.87114 39.5322 6.12869 39.9629 6.48682C40.3935 6.84495 40.7386 7.29459 40.9729 7.80291C42.1743 10.4353 43.3734 13.0683 44.5702 15.7019C44.8123 16.2441 44.9577 16.8243 45 17.4165V21.7599C44.9423 22.2874 44.7458 22.7903 44.4305 23.2174C44.1683 23.5634 43.8296 23.8442 43.4409 24.0379C43.0521 24.2317 42.6238 24.3332 42.1893 24.3344C41.4 24.338 40.6116 24.3353 39.8232 24.3353C39.7036 23.0892 39.1382 21.9279 38.2307 21.0641C37.7382 20.5993 37.1588 20.236 36.5256 19.995C35.8924 19.7539 35.2177 19.64 34.5403 19.6595C33.8629 19.6791 33.196 19.8318 32.5778 20.109C31.9596 20.3861 31.4022 20.7822 30.9375 21.2747C30.9393 16.3758 30.9398 11.4766 30.9393 6.57708ZM33.8695 9.42974C33.6879 9.50419 33.5338 9.63301 33.4285 9.79848C33.3232 9.96394 33.2719 10.1579 33.2815 10.3537C33.2824 11.5813 33.278 12.808 33.2842 14.0347C33.2657 14.5586 33.7509 15.0096 34.2703 14.9745C36.2909 14.9753 38.3115 14.9789 40.3321 14.9736C40.9474 14.9806 41.4237 14.2848 41.182 13.7162C40.6995 12.6272 40.1994 11.5462 39.7046 10.4625C39.5591 10.1429 39.3267 9.87056 39.0338 9.67634C38.7409 9.48212 38.3993 9.37388 38.0479 9.36393C36.8499 9.35428 35.6511 9.36481 34.4531 9.35866C34.2571 9.3613 34.0532 9.35252 33.8695 9.42974Z" fill="#F3903A"/>
<path d="M1.87402 21.5282C3.36025 21.5274 4.84707 21.5274 6.33447 21.5282C5.67788 22.3278 5.27543 23.305 5.17871 24.3344C4.56084 24.3598 3.91836 24.3133 3.36816 24.0053C2.91896 23.7648 2.54307 23.4078 2.2801 22.9718C2.01714 22.5358 1.87685 22.0371 1.87402 21.5282Z" fill="#F3903A"/>
<path d="M14.293 21.5283C18.8765 21.5266 23.46 21.5263 28.0435 21.5274C28.222 21.5158 28.4003 21.554 28.5584 21.6379C28.7164 21.7217 28.8479 21.8479 28.9382 22.0021C29.1008 22.2733 29.0568 22.6006 29.0639 22.9015C29.0533 23.2262 29.1113 23.5816 28.9303 23.8729C28.8375 24.0256 28.7043 24.1497 28.5453 24.2315C28.3863 24.3132 28.2078 24.3495 28.0294 24.3362C23.8353 24.3353 19.6411 24.335 15.447 24.3353C15.3476 23.3066 14.9462 22.3301 14.293 21.5283Z" fill="#F3903A"/>
<path d="M9.59841 21.6071C10.3279 21.4447 11.0911 21.5358 11.7616 21.8654C12.4322 22.195 12.9699 22.7433 13.2858 23.4196C13.6016 24.0959 13.6767 24.8596 13.4985 25.5843C13.3204 26.309 12.8997 26.9512 12.3061 27.4046C11.7125 27.8581 10.9816 28.0956 10.2344 28.0778C9.4872 28.06 8.76848 27.788 8.19723 27.3068C7.62598 26.8256 7.23645 26.164 7.09311 25.4317C6.94978 24.6993 7.06125 23.9401 7.40906 23.2796C7.63139 22.8595 7.94222 22.4925 8.32015 22.2038C8.69809 21.9151 9.13417 21.7116 9.59841 21.6071Z" fill="#F3903A"/>
<path d="M33.9462 21.6134C34.3792 21.5132 34.8281 21.5019 35.2657 21.5802C35.7032 21.6586 36.1203 21.8249 36.4914 22.0692C36.8626 22.3134 37.1801 22.6304 37.4247 23.001C37.6694 23.3716 37.836 23.7879 37.9144 24.2248C38.215 25.7217 37.3018 27.3354 35.8675 27.8584C35.4476 28.0198 34.999 28.0932 34.5495 28.0741C34.1 28.055 33.6592 27.9438 33.2546 27.7474C32.85 27.5509 32.4902 27.2735 32.1976 26.9323C31.905 26.5911 31.6858 26.1935 31.5537 25.7641C31.4216 25.3347 31.3794 24.8828 31.4298 24.4365C31.4801 23.9901 31.6218 23.5589 31.8462 23.1696C32.0706 22.7803 32.3729 22.4412 32.7341 22.1735C33.0954 21.9058 33.508 21.7151 33.9462 21.6134Z" fill="#F3903A"/>
</g>
<defs>
<clipPath id="clip0_1651_1385">
<rect width="45" height="28.0769" fill="white"/>
</clipPath>
</defs>
</svg>
