<svg width="32" height="19" viewBox="0 0 32 19" fill="none" xmlns="http://www.w3.org/2000/svg">
<g opacity="0.1">
<path opacity="0.1" d="M8.00858 1.8407C7.3061 1.98698 6.67473 2.37639 6.22133 2.943C5.76794 3.50961 5.52036 4.21863 5.52051 4.95007V14.4844C5.52051 14.6527 5.58604 14.8141 5.70269 14.9331C5.81934 15.0521 5.97756 15.119 6.14253 15.119H17.9609V12.6061H14.2288C12.5791 12.6061 10.9969 11.9375 9.83043 10.7475C8.66392 9.55746 8.00858 7.94342 8.00858 6.26045V1.8407ZM19.5097 12.6061V15.119H29.773C30.1029 15.119 30.4194 14.9853 30.6527 14.7473C30.886 14.5092 31.017 14.1864 31.017 13.8498V12.6061H19.5097Z" fill="#4B4868"/>
</g>
<path d="M24.8231 8.16409H22.3164C22.2339 8.16409 22.1548 8.13066 22.0965 8.07116C22.0381 8.01166 22.0054 7.93096 22.0054 7.84681V6.2604C22.0054 6.17625 22.0381 6.09555 22.0965 6.03604C22.1548 5.97654 22.2339 5.94312 22.3164 5.94312H23.7128C23.7622 5.94335 23.8107 5.95555 23.8545 5.97873C23.8983 6.0019 23.9361 6.03537 23.9647 6.07637L25.075 7.66279C25.1081 7.71014 25.1277 7.76585 25.1319 7.82383C25.136 7.88181 25.1244 7.93983 25.0984 7.99156C25.0724 8.04329 25.033 8.08674 24.9845 8.11716C24.9359 8.14759 24.8801 8.16382 24.8231 8.16409Z" fill="#FFC599"/>
<path d="M11.5864 10.2139H11.8974M5.67725 10.2139H10.0314H5.67725Z" stroke="#FFC599" stroke-width="0.854208" stroke-linecap="round" stroke-linejoin="round"/>
<path d="M26.5089 8.13877L24.363 5.21977C24.305 5.14096 24.2299 5.07699 24.1435 5.03294C24.0572 4.98888 23.9619 4.96594 23.8654 4.96594H20.1332C19.9683 4.96594 19.8101 5.0328 19.6934 5.1518C19.5768 5.27081 19.5112 5.43221 19.5112 5.60051V15.119H29.7745C30.1045 15.119 30.4209 14.9853 30.6542 14.7473C30.8875 14.5093 31.0186 14.1864 31.0186 13.8499V10.0425C31.0186 9.70587 30.8875 9.38306 30.6542 9.14505C30.4209 8.90704 30.1045 8.77333 29.7745 8.77333H27.753C27.5116 8.77333 27.2735 8.71599 27.0575 8.60585C26.8416 8.49571 26.6538 8.33579 26.5089 8.13877V8.13877Z" stroke="#F3903A" stroke-width="0.854208" stroke-linecap="round" stroke-linejoin="round"/>
<path d="M25.2639 18C26.8098 18 28.063 16.7216 28.063 15.1445C28.063 13.5674 26.8098 12.2889 25.2639 12.2889C23.718 12.2889 22.4648 13.5674 22.4648 15.1445C22.4648 16.7216 23.718 18 25.2639 18Z" fill="white" stroke="#F3903A" stroke-width="0.854208" stroke-linecap="round" stroke-linejoin="round"/>
<path d="M21.2271 10.2139H22.4711H21.2271ZM18.5057 18.0001H29.5248H18.5057ZM7.20055 18.0001H16.338H7.20055ZM5.6766 18.0001H5.93163H5.6766ZM24.0448 8.79886H21.5381C21.4556 8.79886 21.3765 8.76543 21.3182 8.70593C21.2598 8.64643 21.2271 8.56572 21.2271 8.48158V6.89516C21.2271 6.81101 21.2598 6.73031 21.3182 6.67081C21.3765 6.61131 21.4556 6.57788 21.5381 6.57788H22.9345C22.9838 6.57811 23.0324 6.59032 23.0762 6.61349C23.12 6.63666 23.1578 6.67013 23.1864 6.71114L24.2967 8.29755C24.3298 8.34491 24.3494 8.40061 24.3536 8.45859C24.3577 8.51657 24.3461 8.57459 24.3201 8.62632C24.2941 8.67805 24.2547 8.7215 24.2062 8.75193C24.1576 8.78236 24.1018 8.79859 24.0448 8.79886V8.79886ZM3.81055 11.4958H5.36559H3.81055ZM4.74357 12.289H5.36559H4.74357Z" stroke="#F3903A" stroke-width="0.854208" stroke-linecap="round" stroke-linejoin="round"/>
<g opacity="0.2">
<path opacity="0.2" d="M21.411 1.79321H19.856M20.6335 1V2.58641V1Z" stroke="#F3903A" stroke-width="0.854208" stroke-linecap="round" stroke-linejoin="round"/>
</g>
<g opacity="0.2">
<path opacity="0.2" d="M2.67565 8.29443H1.12061M1.89813 7.50122V9.08763V7.50122Z" stroke="#F3903A" stroke-width="0.854208" stroke-linecap="round" stroke-linejoin="round"/>
</g>
<path opacity="0.5" d="M28.2253 6.73656C28.6547 6.73656 29.0028 6.38143 29.0028 5.94335C29.0028 5.50528 28.6547 5.15015 28.2253 5.15015C27.7959 5.15015 27.4478 5.50528 27.4478 5.94335C27.4478 6.38143 27.7959 6.73656 28.2253 6.73656Z" stroke="#FFC599" stroke-width="0.854208" stroke-linecap="round" stroke-linejoin="round"/>
<path d="M5.51562 4.96592V14.4844C5.51563 14.6527 5.58116 14.8141 5.69781 14.9331C5.81446 15.0521 5.97267 15.119 6.13764 15.119H17.956V2.42766C17.956 2.25936 17.8905 2.09795 17.7738 1.97895C17.6572 1.85995 17.4989 1.79309 17.334 1.79309H8.62572C7.80087 1.79309 7.00981 2.12737 6.42655 2.72239C5.84329 3.31741 5.51562 4.12443 5.51562 4.96592V4.96592Z" stroke="#F3903A" stroke-width="0.854208" stroke-linecap="round" stroke-linejoin="round"/>
<path d="M11.7361 18C13.282 18 14.5352 16.7216 14.5352 15.1445C14.5352 13.5674 13.282 12.2889 11.7361 12.2889C10.1902 12.2889 8.93701 13.5674 8.93701 15.1445C8.93701 16.7216 10.1902 18 11.7361 18Z" fill="white" stroke="#F3903A" stroke-width="0.854208" stroke-linecap="round" stroke-linejoin="round"/>
</svg>
