<svg width="30" height="20" viewBox="0 0 30 20" fill="none" xmlns="http://www.w3.org/2000/svg">
<path d="M2.99146 8.63083L3.72836 5.68328C3.52689 5.64049 3.37572 5.46175 3.37572 5.24761V4.77237C3.37572 3.74052 4.21522 2.90108 5.24701 2.90108H8.60344V1.92081C8.60344 1.41305 9.01649 1 9.52424 1H26.6333C27.1411 1 27.5541 1.41305 27.5541 1.92081V10.0001C27.5541 10.2461 27.3546 10.4456 27.1085 10.4456C26.8625 10.4456 26.663 10.2462 26.663 10.0001V1.92081C26.663 1.90441 26.6497 1.89113 26.6333 1.89113H9.5243C9.5079 1.89113 9.49462 1.90441 9.49462 1.92081V10.0002C9.49462 10.2462 9.29516 10.4458 9.04906 10.4458C8.80302 10.4458 8.60349 10.2463 8.60349 10.0002V9.49511H3.3476L3.34643 9.49522L3.34521 9.49516C2.69845 9.49561 2.14929 9.92011 1.96066 10.5051H3.34609C3.59213 10.5051 3.79166 10.7045 3.79166 10.9506V11.9011C3.79166 12.6709 3.16541 13.2972 2.39561 13.2972H1.89063V15.2575H3.05565C3.43835 14.1525 4.48882 13.3565 5.72236 13.3565C6.9559 13.3565 8.00643 14.1525 8.38908 15.2575H8.60361V11.9011C8.60361 11.655 8.80307 11.4555 9.04917 11.4555C9.29521 11.4555 9.49473 11.655 9.49473 11.9011V15.2574H18.7388C19.1215 14.1524 20.172 13.3564 21.4055 13.3564C22.6391 13.3564 23.6896 14.1524 24.0722 15.2574H26.6333C26.6497 15.2574 26.663 15.2441 26.663 15.2277V14.2475H24.7323C24.4862 14.2475 24.2867 14.0481 24.2867 13.802C24.2867 13.5559 24.4862 13.3564 24.7323 13.3564H29.0095C29.2556 13.3564 29.4551 13.5559 29.4551 13.802C29.4551 14.0481 29.2556 14.2475 29.0095 14.2475H27.5541V15.2277C27.5541 15.7355 27.141 16.1486 26.6332 16.1486H24.2265C24.2266 16.1584 24.2273 16.1683 24.2273 16.1782C24.2273 17.7342 22.9614 19 21.4055 19C19.8496 19 18.5838 17.7342 18.5838 16.1782C18.5838 16.1682 18.5844 16.1584 18.5845 16.1486H8.54336C8.54347 16.1584 8.54414 16.1683 8.54414 16.1782C8.54414 17.7342 7.27825 19 5.72236 19C4.16647 19 2.90059 17.7342 2.90059 16.1782C2.90059 16.1682 2.90125 16.1584 2.90137 16.1486H1.44507C1.19903 16.1486 0.999506 15.9491 0.999506 15.703V10.9505C0.999451 9.77716 1.86518 8.80228 2.99146 8.63083ZM8.60344 3.79215H5.24701C4.70652 3.79215 4.26679 4.23188 4.26679 4.77237V4.80205H8.60344V3.79215ZM8.60344 8.60404V5.69312H4.64438L3.91665 8.60404H8.60344ZM21.4055 18.109C22.4701 18.109 23.3362 17.243 23.3362 16.1783C23.3362 15.1137 22.4701 14.2476 21.4055 14.2476C20.3409 14.2476 19.4748 15.1137 19.4748 16.1783C19.4748 17.243 20.3409 18.109 21.4055 18.109ZM5.72225 18.109C6.78683 18.109 7.65295 17.243 7.65295 16.1783C7.65295 15.1137 6.78683 14.2476 5.72225 14.2476C4.65767 14.2476 3.79155 15.1137 3.79155 16.1783C3.79155 17.243 4.65767 18.109 5.72225 18.109ZM1.89052 12.406H2.3955C2.67394 12.406 2.90047 12.1795 2.90047 11.9011V11.3961H1.89058L1.89052 12.406Z" fill="#E0B547" stroke="#E0B547" stroke-width="0.3"/>
<path d="M21.4054 15.2578C21.9131 15.2578 22.3262 15.6709 22.3262 16.1786C22.3262 16.6864 21.9131 17.0995 21.4054 17.0995C20.8976 17.0995 20.4846 16.6864 20.4846 16.1786C20.4846 15.6709 20.8976 15.2578 21.4054 15.2578Z" fill="#E0B547"/>
<path d="M5.72275 15.2578C6.2305 15.2578 6.64355 15.6709 6.64355 16.1786C6.64355 16.6864 6.2305 17.0995 5.72275 17.0995C5.21499 17.0995 4.80194 16.6864 4.80194 16.1786C4.80194 15.6709 5.21499 15.2578 5.72275 15.2578Z" fill="#E0B547"/>
<path d="M10.9498 13.3567H17.6033C17.8493 13.3567 18.0488 13.5562 18.0488 13.8023C18.0488 14.0484 17.8494 14.2478 17.6033 14.2478H10.9498C10.7037 14.2478 10.5042 14.0484 10.5042 13.8023C10.5042 13.5562 10.7037 13.3567 10.9498 13.3567Z" fill="#E0B547" stroke="#E0B547" stroke-width="0.3"/>
<path d="M22.3563 11.4556H28.0593C28.3054 11.4556 28.5049 11.655 28.5049 11.9011C28.5049 12.1472 28.3054 12.3467 28.0593 12.3467H22.3563C22.1103 12.3467 21.9107 12.1472 21.9107 11.9011C21.9107 11.655 22.1103 11.4556 22.3563 11.4556Z" fill="#E0B547" stroke="#E0B547" stroke-width="0.3"/>
<path d="M21.2452 5.4078C21.0712 5.23385 20.789 5.23385 20.6151 5.40786L16.6529 9.37004L14.5916 7.30883C14.4176 7.13482 14.1355 7.13482 13.9616 7.30883C13.7876 7.48285 13.7876 7.7649 13.9616 7.93892L16.3378 10.3152C16.4248 10.4022 16.5389 10.4457 16.6529 10.4457C16.7668 10.4457 16.8809 10.4022 16.9679 10.3152L21.2451 6.03794C21.4191 5.86387 21.4191 5.58182 21.2452 5.4078Z" fill="#E0B547" stroke="#E0B547" stroke-width="0.3"/>
</svg>
