<svg width="18" height="20" viewBox="0 0 18 20" fill="none" xmlns="http://www.w3.org/2000/svg">
<g clip-path="url(#clip0_569_13400)">
<path d="M17.9802 18.0262L15.9679 6.83651C15.8608 6.24078 15.3422 5.80479 14.7347 5.80479H12.0435C12.4768 5.19886 12.71 4.46245 12.71 3.69576C12.71 1.65753 11.0457 0.00109863 9.00003 0.00109863C6.95432 0.00109863 5.29002 1.65662 5.29002 3.69486C5.29002 4.4615 5.52321 5.19886 5.95649 5.80479H3.26535C2.65796 5.80479 2.13928 6.24078 2.03206 6.83651L0.019774 18.0244C-0.0458109 18.3893 0.053458 18.7651 0.292145 19.0492C0.530832 19.3334 0.881051 19.5 1.25302 19.5H16.7469C17.1189 19.5 17.4691 19.3344 17.7079 19.0501C17.9465 18.7659 18.0458 18.391 17.9802 18.0262ZM17.2407 18.6641C17.118 18.8101 16.9381 18.8999 16.7469 18.8999H1.25302C1.06189 18.8999 0.881942 18.8101 0.759292 18.6641C0.636643 18.5181 0.585671 18.3238 0.619355 18.1363L2.63164 6.94757C2.68674 6.64148 2.95323 6.41661 3.26535 6.41661H7.35524L6.82575 5.89814C6.22821 5.31175 5.89914 4.53105 5.89914 3.6988C5.89914 1.99522 7.29018 0.60954 9.00002 0.60954C10.7098 0.60954 12.1009 1.99566 12.1009 3.69925C12.1009 4.53146 11.7718 5.31164 11.1743 5.89807L10.6448 6.41661H14.7347C15.0468 6.41661 15.3133 6.63993 15.3683 6.94602L17.3806 18.1357C17.4143 18.3231 17.3633 18.518 17.2407 18.6641Z" fill="#F3903A"/>
<path d="M10.8131 3.69941C10.8131 2.70317 9.99962 1.8927 8.99974 1.8927C7.99986 1.8927 7.1864 2.70317 7.1864 3.69941C7.1864 4.69565 7.99986 5.50615 8.99974 5.50615C9.99962 5.50615 10.8131 4.69565 10.8131 3.69941ZM8.99974 4.89924C8.33574 4.89924 7.79553 4.361 7.79553 3.69941C7.79553 3.03785 8.33574 2.49962 8.99974 2.49962C9.66372 2.49962 10.2039 3.03785 10.2039 3.69941C10.2039 4.361 9.66371 4.89924 8.99974 4.89924ZM7.30723 12.4448L8.47279 11.2435C8.55157 11.1623 8.57401 11.0467 8.52976 10.9427C8.48543 10.8387 8.38308 10.7758 8.26965 10.7758H7.88571C7.80668 10.7758 7.72586 10.8041 7.67238 10.8622L5.98667 12.68V11.2015C5.98667 10.9613 5.78793 10.7665 5.5468 10.7665C5.30567 10.7665 5.10693 10.9613 5.10693 11.2015V14.6407C5.10693 14.8809 5.30567 15.0757 5.5468 15.0757C5.78793 15.0757 5.98667 14.8809 5.98667 14.6407V13.7735L6.70002 13.0533L7.80983 14.9338C7.86053 15.02 7.95601 15.0702 8.05628 15.0702H8.50365C8.6072 15.0702 8.70254 15.0165 8.75192 14.9258C8.80135 14.835 8.79693 14.726 8.74047 14.6394L7.30723 12.4448ZM13.0305 13.0468C13.0305 12.8913 12.9273 12.7524 12.7713 12.7524H11.536C11.3348 12.7524 11.1717 12.9284 11.1717 13.1289C11.1717 13.3293 11.3347 13.5054 11.536 13.5054H12.1508V14.038C12.0445 14.1398 11.8715 14.2266 11.6877 14.2982C11.5038 14.3697 11.3256 14.4054 11.1428 14.4054C10.773 14.4054 10.4767 14.2776 10.2486 14.0219C10.0203 13.7661 9.90763 13.3826 9.90763 12.8711C9.90763 12.3969 10.0209 12.0393 10.2461 11.7981C10.4712 11.5572 10.7749 11.4366 11.1565 11.4366C11.4082 11.4366 11.6183 11.4978 11.7865 11.6203C11.8799 11.6884 11.9569 11.7702 12.0173 11.8658C12.1115 12.0153 12.2881 12.0921 12.4622 12.0597L12.4632 12.0595C12.6119 12.0318 12.7361 11.9307 12.7934 11.7913C12.8507 11.6519 12.8331 11.4931 12.7468 11.3695C12.6564 11.2401 12.5459 11.1268 12.4151 11.0296C12.1131 10.8052 11.6938 10.6929 11.1568 10.6929C10.7438 10.6929 10.3985 10.7645 10.1214 10.9075C9.75746 11.0938 9.48112 11.3612 9.29234 11.7101C9.1035 12.0588 9.00911 12.4576 9.00911 12.9063C9.00911 13.3199 9.09364 13.7024 9.26282 14.0542C9.43194 14.406 9.68477 14.6764 10.021 14.8654C10.3575 15.0546 10.7516 15.1491 11.2041 15.1491C11.56 15.1491 11.9116 15.082 12.2588 14.9478C12.5437 14.8377 12.7616 14.7133 12.9358 14.5748C13.0029 14.5214 13.0305 14.4402 13.0305 14.3546V13.0468H13.0305Z" fill="#F3903A"/>
</g>
<defs>
<clipPath id="clip0_569_13400">
<rect width="18" height="19.5" fill="white"/>
</clipPath>
</defs>
</svg>
